<mxfile host="app.diagrams.net" modified="2023-12-04T14:30:39.826Z" agent="Mozilla/5.0 (Windows NT 10.0; Win64; x64) AppleWebKit/537.36 (KHTML, like Gecko) Chrome/119.0.0.0 Safari/537.36 Edg/119.0.0.0" etag="IOoxGz1BwKTR6HRFVAQW" version="22.1.5" type="device">
  <diagram name="Page-1" id="5pk4gmPgW1F5t-IVuUkb">
    <mxGraphModel dx="1825" dy="790" grid="0" gridSize="10" guides="1" tooltips="1" connect="1" arrows="1" fold="1" page="0" pageScale="1" pageWidth="850" pageHeight="1100" background="#000000" math="0" shadow="0">
      <root>
        <mxCell id="0" />
        <mxCell id="1" parent="0" />
        <mxCell id="w0s_Ixj0cFRI1buppDWQ-10" value="" style="edgeStyle=orthogonalEdgeStyle;rounded=0;orthogonalLoop=1;jettySize=auto;html=1;" edge="1" parent="1" source="w0s_Ixj0cFRI1buppDWQ-1" target="F_4bH8baSX07HVHHKdEK-11">
          <mxGeometry relative="1" as="geometry" />
        </mxCell>
        <mxCell id="w0s_Ixj0cFRI1buppDWQ-1" value="" style="rounded=0;whiteSpace=wrap;html=1;fillColor=#1A1A1A;" vertex="1" parent="1">
          <mxGeometry x="103" y="242.5" width="389" height="147.5" as="geometry" />
        </mxCell>
        <mxCell id="F_4bH8baSX07HVHHKdEK-9" value="" style="rounded=0;whiteSpace=wrap;html=1;fillColor=#1A1A1A;" parent="1" vertex="1">
          <mxGeometry x="531" y="242.16" width="197" height="147.5" as="geometry" />
        </mxCell>
        <mxCell id="w0s_Ixj0cFRI1buppDWQ-25" value="" style="edgeStyle=orthogonalEdgeStyle;rounded=0;orthogonalLoop=1;jettySize=auto;html=1;" edge="1" parent="1" source="F_4bH8baSX07HVHHKdEK-5" target="w0s_Ixj0cFRI1buppDWQ-2">
          <mxGeometry relative="1" as="geometry" />
        </mxCell>
        <mxCell id="F_4bH8baSX07HVHHKdEK-5" value="" style="rounded=0;whiteSpace=wrap;html=1;fillColor=#1A1A1A;" parent="1" vertex="1">
          <mxGeometry x="-117" y="250.5" width="191" height="139.5" as="geometry" />
        </mxCell>
        <mxCell id="F_4bH8baSX07HVHHKdEK-1" value="" style="shape=image;verticalLabelPosition=bottom;labelBackgroundColor=default;verticalAlign=top;aspect=fixed;imageAspect=0;image=data:image/jpeg,/9j/4AAQSkZJRgABAQEAAAAAAAD/4QAuRXhpZgAATU0AKgAAAAgAAkAAAAMAAAABAF4AAEABAAEAAAABAAAAAAAAAAD/2wBDAAoHBwkHBgoJCAkLCwoMDxkQDw4ODx4WFxIZJCAmJSMgIyIoLTkwKCo2KyIjMkQyNjs9QEBAJjBGS0U+Sjk/QD3/2wBDAQsLCw8NDx0QEB09KSMpPT09PT09PT09PT09PT09PT09PT09PT09PT09PT09PT09PT09PT09PT09PT09PT09PT3/wAARCAD5AdoDASIAAhEBAxEB/8QAHwAAAQUBAQEBAQEAAAAAAAAAAAECAwQFBgcICQoL/8QAtRAAAgEDAwIEAwUFBAQAAAF9AQIDAAQRBRIhMUEGE1FhByJxFDKBkaEII0KxwRVS0fAkM2JyggkKFhcYGRolJicoKSo0NTY3ODk6Q0RFRkdISUpTVFVWV1hZWmNkZWZnaGlqc3R1dnd4eXqDhIWGh4iJipKTlJWWl5iZmqKjpKWmp6ipqrKztLW2t7i5usLDxMXGx8jJytLT1NXW19jZ2uHi4+Tl5ufo6erx8vP09fb3+Pn6/8QAHwEAAwEBAQEBAQEBAQAAAAAAAAECAwQFBgcICQoL/8QAtREAAgECBAQDBAcFBAQAAQJ3AAECAxEEBSExBhJBUQdhcRMiMoEIFEKRobHBCSMzUvAVYnLRChYkNOEl8RcYGRomJygpKjU2Nzg5OkNERUZHSElKU1RVVldYWVpjZGVmZ2hpanN0dXZ3eHl6goOEhYaHiImKkpOUlZaXmJmaoqOkpaanqKmqsrO0tba3uLm6wsPExcbHyMnK0tPU1dbX2Nna4uPk5ebn6Onq8vP09fb3+Pn6/9oADAMBAAIRAxEAPwD2WiiigAooooAKKKKACiiigAooooAKKKKACiiigAooooAKKKKACiiigAooooAKKKKACiiigAooooAKKKKACiiigAooooAKKKKACiiigAooooAKKKKACiiigAooooAKKKKACiiigAooooAKKKKACiiigAooooAKKKKACiiigAooooAKKKKACiiigAooooAKKKKACiiigAooooAKKKKACiiigAooooAKKKKACiiigAooooAKKKKACiiigAooooAKKKKACiiigAooooAKKKKACiiigAooooAKKKKACiiigAooooAKKKKACiiigAooooAKKKKACiiigAooooAKKKKACiiigAooooAKKKKACiiigAooooAKKKKACiiigAooooAKKKKACiiigAooooAKKKKACiiigAooooAKKKKACiiigAooooAKKKKACiiigAooooAKKKKACiiigAooooAKKKKACiiigAooooAKKKKACiiigAooooAKKKKACiiigAooooAKKKKACiiigAooooAKKKKACiiigAooooAKKKKACiiigAooooAKKKKACiiigAooooAKKKKACiiigAooooAKKKKACiiigAooooAKKKKACiiigAooooAKKKKACiiigAooooAKKKKACiiigAooNcJ4l8bSRTyWWlnayErJMRkg+ij+pppNmdWrGkryOxutQtLFc3VzFCO29gKpp4m0eR9q6jb5Pq2P515ZHbXOpyNKZBI5OWaR8n/GpH0S5AJBjY+gOM/nWnIu55k80Sdkj2GOVJUDxurqehU5FSV43pmr3+g3gaFnUKf3kLH5W/D+ter6ZqEWq6fDdwH5JBnB7H0+uahxsd2HxMay03LtFFFSdIUUUUAFFFFABRRRQACmPIsalnYKo6kmob27isbSW5uG2xxKWY15RrGu3uv3R8xnEZP7uBTwP8T71UY3OaviY0VqelyeJdHhba+o2+fZ8/yq1a6nZ3w/0W6hm9kcGvJY9EuXUE7EPoT/AIVHNZXOnMsu9UIPysj4NXyLucEc1TdrHtOaK898N+OZY5Y7XVm8xGIVZ8fMD/teo969CFZuLTPTpVY1VeIUUUUjUKKKKACiiigAooooAKKKKACiiigAooooAKKKKACiiigAooooAKKKKACiiigAooooAKKKKACiiigAooooAKKKKACiiigAooooAKKKjllSGJpJGVUQbmYnAAoAceRXMazN4XnnEN8bdp3bbmMfMCfUj+tcz4j8Y3GpSPb2LNDaDjcOGk/wHt/+qqPhOzF74jtI2GUjYyN/wHkfritFGyuefPFRnJQirkviLQpvDV/G0ErNDJkxOeCMfwn/ADzVyyuRdWqS4wTwwHY1Y+IepxXF1b2MZDPAS8hHYnoPrjmqOkRmPT1z/GSwqlqrs8bM4QjJ8pBrkKvAs2PmU7SfUGuj+G90Xs7y1JyI3DqPQH/9VYOtOBp5B6swArW+GsZ82/k/hwi/jyaT2Ncpb5kd9RSZrNvfEOmaeSLm8iVh/CDk/kKyPopSUVqzTorkrj4h6ZHkQw3E3uFAH61Sb4lJzs05/YmUD+lVysxeJpLdndUVwy/EpeN2nP7kSj/CrcHxE06TAmguIvfaGH6GjlYLFUn1Ou5orKsvEmlX+Bb3kRY/wsdp/I1qZyKVmbKSezOS+Id0YtFhgU48+UBvoOf54rkdBhXZJORls7VPpXT/ABJjY2VjIPurKyn6kf8A1jXOaGQbN17rIc/jWkdj5/Nm7sv3MwtraSUjIUZx61l6JpM/ibVGWSQqijdK4H3R6D3NXtTiaXT5VXkgbgPXFSeAdTistVltpiF+1KAhP94Z4/HJp7J2OXLacJSXN3Og0s+FrG8a0t/IW6ibZumHzFh6Mf6V1IIxXlnjixFp4jlZRhJ1Eg+vQ/qKXw/4tudHkWG4Z57PoVJy0f0/wqeW6ue5DEqnNwkkvQ9UoqG2uYruCOeBw8ci7lYdxU1ZnencKKKKBhRRRQAUUUUAFFFFABRRRQAUUUUAFFFFABRRRQAUUUUAFFFFABRRRQAUUUUAFFFFABRRRQAUUUUAFFFFABRRRQAUUUUAFcN8QtYMcUWmQsQZPnmx6dh+J5/Cu3YgKSTgDvXj2t3R1TxBdSqdwkl2IR/dHA/xq4K7OPG1fZ09OoWFmBay3kg+6p8sH19al8PaoujveXYwZhb7IlPdiR+nf8K0LmIJpskSDhY8AD2rl/StNzwMNWbk5fcXbK2fUrwtMzMCd0jE5z/9c10gAAAAwAMADtWdokYSw393Yk/hWjSfY4sTUc5tPoYeuXG+ZIQeEG4/U1taL4hs/DehBFX7RezsZWRTwnYAn6Dp71zeqBhqU27ucjPpUtjpMlzh3zHF1BxyfpTaTWp6GHrLDwUl2LOpeJtV1dykk7pGx4ih+UfpyfxqrDo91Lgsqxg85c1uW9rFajEKBfVupNTUttjmrY+c3dGTHoCf8tJ2J9FGKlGiWo/56H/gVaNFF2crr1H1M7+xLX/poPo1RyaBGfuTMD/tDNatFF2Cr1F1Oem0W5jyVCyAc/KcGptP8Q6pozhYp3CL1il+ZT+B6fhituo5raK5TbMisOxPai99zopY6cHdk2oeJrXxLoMtrcKLa8TEiAn5XI7A9iRkYNc9olx5d0Yz92UYH1FF7pD24aSDMkQ5I6kf41VsQz3sIXrvB+lNJJaHZWrrEwbfY6mud1KzNlchoyRGx3KQcbT/APWroqpavGJNPkJ6oQw9qSZ5uHqOE15lTXdWGsWenyyHN1GjRy++CMH8ahubMS6bDdoPnVQJMd+2frWZXT6dGP7MhRhwy8g9waex3Yms01J7l/4fawyTvpczHY+ZIc9j/EP6/nXfivGLSZtJ1uGUE5gmGfcZ/wAK9kR1kjV0IKsMgjvWc1Znu4Gr7SnZ9CSiiioO4KKKKACiisHxJ4mHh42+62abzt2MNtxjH+NNK5M5qCuzeorh0+I6PIi/2cw3EDPmjj9K7YHIBoaaJp1YVPhY6iiikaBRRRQAUUUhPBoAWiuHf4jqkjL/AGc5wxGfMHb8K2fDficeIXuFFsYPJC9W3Zzn/CnytK5jHEQlLlT1N+iiikbBRRRQAUUUUAFFFFABRTSwHJIA9TTfOj/vr+dBLkluySio/Oj/AL6/nR50f99fzosHPHuSUVH50f8AfX86crq/3WB+hzRYFKL0THUUVHJPHEMyOqD1Y4oG2ktSSiqR1exBwbqPP1qaK6gm/wBVKj/Rs07MhVYN2TRPRRRSNDkPHettY2K2UD4muQdxH8Kd/wA+n51wWmgHUIB6N0q54m1A6nrk0+fkCqqj0AXn9SaoWkgivIXPRWGa2irI+fxlV1G+3Q6ogEEHoRg1yt1bta3LxHscg+orqqqX9gt7GMELKo+VvX2+lCdjx6FXklZ7Mi0SUPZFO6MePrWhXO2csmmXuJ1ZVb5WH9R9K6IEEAgggjII70NCxEPeutmU5rBbm/WaTGxFxt/vH39hVyiikYuTaS7BRRRQSFFFFABRRRQAUUUUAFU0sFi1AXEYG1gQy+h9R9auUUFKUlddwqjrEoj09xnlyFFXv881z9/cNqN4I4AzqvCgd/emjShC8k3sinDE1xMkS9WOPpXVogjRUX7qjAqnp2nLZIXfBlYYJHb2FXaG7l4iqpystkc5q4A1KT3AJ/Kux8Aa000L6XOxLxDfCT3XuPw/rXFalIJdQmYdAdo/CrHh+7Njr9lMDgCUK3bg8f1pyV0evgqjpuP4nslFFFYH0IUUUUAFcH8S+unf9tP/AGWu8rg/iX107/tp/wCy1UNzmxf8JnFQ/wDHxF/vr/Ovb1+6PpXh8P8Ar4v99f517gv3R9Kqp0ObL9mOorP1bWLTRbXz7yTap4VQMsx9AK4u8+I127kWdpDGnYyEkn8qhRbOypXhT0kz0SivObb4jXyOPtNrBImedhKmtG7+IlvGkLWtq0u9TvDNtKH09/rT5GQsXSavc7TpQehriLb4im4uYYf7PA8x1XPmdMnHpXbnlT9KTTW5pCrGom4s8Pm/4+Jf99v512fw1/12of7qf1ri7j/j5m/3z/Ou0+Gv+u1D/dT+tay+E8rC/wAdHfYoqtfX8Gn2j3NzIEiQZJNcafiTydunErngmTk/pWSTZ6tStCn8TO7ork9E8XXOt3qwQadtQcySGTIQfl19q6mSRYoy7sFVRkkngUNWKhUU1dbD6K4vVPiHBBI0WnQfaCODIx2r+Hc/pWR/wsPVd+fJtcf3drf401Bsxli6UXZs9Lori9L+IkE0ix6lB9nLceah3L+PcfrXYxyLKgeNgyMMgg5BpNNbmtOrCovdZm+I/wDkFP8AUfzrj66/xH/yCn+o/nXIVUdj5vOZNV1bsFFdDpmhWt5YRzSeZvYc4bFW/wDhGbL/AKa/9907omnleInFST0eu5yfNdJ4V/1c/wDvD+VWP+EZsv8Apr/31Vyx02DT1ZYd3zHJ3HNJtM7cFl9ahV55vQqa3q/2ALFDgzN6/wAI9a5WWaS4cvM7Ox7k5q3rLGTV7gk9GwPbioLCFJ76GKQ4Vm5PSmlZHn43EVK9dwT0vZIgyPWlQtGQyMVYdCDXcrYWqxhRBHtAx90Vgazo3kSJJaRMUc4KKM4P+FCaNK+V1aMOeMr27E2i627Srb3Tbi33HP8AI10ea4uHRNQlwyxbO4LHGK6H7PqP9+L8zUtI9HA18QoWqRbPI7aITXUcbE4dsE02WJoZWjcYZTg06Itb3UbMCCrAkHtW9qNgt6gZSBKo4b1ra9jzKlXkmk9mLpl4Lq2AJ/eoMMPX3q5XLf6RYTg4aOReme/+IrYtdYhmAWYiKTpz0NS0cdajZ80NUy9LDHMm2RFdfQjpSW9uttH5aFtgPAJzj/61PBBAIIIPQg5FLSOfmdrBWFrVzL9rMIZljUA4BxnNbtQXFnBckGaMMRwD0prcujNQldq5laLdS/aTCzMyMpIBOcYrcqC3s4LbJhjCk9T61PQwrTU5XSsFFFFIyCiiigArH1u5lSRIVYqhXccHGa2KhuLWG5AE8Ybb0J4xTTNaU1CV2rmLpN1Kl4kW5mSTgqTnHvXQVXhsbe2ctDEA3Td1qxQ9R1qinK6Vhk0QmjMbFgp67TjNENvFbpthRUHfA60+gkAEkgAdSTjFIyu7WCq1/eLZ2xbI8xuFHr/+qorrV7e3BCESydgDwPxrEkknv584Z5DwFA6f/WppHRRoNu8tERIjSuFUFnY4HvUtzELO6KA5MZBJ9+tbWm6aLX95JhpSMcc7f/r1jXR+06lIF58yTaO+e1Vc7aVTnqWWyPaIH8yCN/7yg1LUcKeXCif3VAqSuc+qWwUUUUDCuD+JfXTv+B/+y13lcH8S+unf8D/9lqobnNi/4TOJh/18X++v869ueRYYGkkICINxJ7AV4jD/AK+L/fX+deteKZGi8MXzKcN5JGfrxVT3RyYGVoSfY8y1vV5db1OS5kJ2ZxEp/hX/ADzUWnaXdatc+RZQmRwMsc4Cj3NU69Q8CWcdv4cimUDfOzOx79cY/DFU3yrQ56NN16j5n5s5a48BatBB5i+TMQPuI3J+ma5tkaNyrqVZTgqRjBr3HArzXx/Zx2+uRTRgK08e5wO5Bxn8sflSjJt2N8VhYwjzROe07/kJWv8A12T/ANCFe2H7p+leJ6d/yErX/rsn/oVe2H7p+lKe6LwHwM8OuP8Aj5l/3z/Ouu+H9zFZpqc9w4jiRULMTwBzXJTf8fMv++f50zLAEZIB6gHGau11Y4oVPZ1ObsbPiTxFLrt5xuS0jP7qP1/2j7n9Ko6VpVxq98ltbLyfvMeiD1NVBglQSACcEnnFeueHNJtNL0uMWjCXzQHaYfx+/wBPak3yqyNqNN4ibcmWNI0i30axW2tl4HLMern1NcZ49115br+yrdiI4wGmwfvHqB9B1r0E14zrMpm1u+kbqZ2/nxUQV3qdeMl7Omox0uQWtrNfXKW9tG0ksh+VR+v4V06/DvUfI3G5thJjOzn+dc5p+p3WlTmazkWORl2klQePxrS/4TTXP+f0f9+1rR3vocFJ0uX302zJu7SewuntrmMxyxnlT+n1Fdf8P9bdLhtKnYmNgWhyfukdR9D1rlNQ1O51SdZryQSSKu0EKF4/CptAlMOv2Dg4InUHHvwf50SV1qFGfJVXLsen+I/+QU/1FchXX+Iv+QS/1H865Cs47HHnP8deht6fr8dlZRwmB2KjrkVa/wCErj/593/MVz62txIAyQSMp6EKeaX7Hdf8+0v/AHwadkRDH4uMUo7JaaG//wAJXF/z7SfmK3InEsSuBjcAcGuENndYP+jTf98Gu5tgRaxBgQQgGKlpLY9bLcTXrOXtem2hy3iGzaC+M4B8uXv2B/8Ar1k//rFegTQx3EbRyKroeCCKxLjwxGxJt5TH7HkU0zkx2VzdR1KXXW3mY8OsX1uAFuCVHZxmtCHxRMMCeBWHqpxVabw5fRZ2hJB/snH86z5raa2cLNG0ZPTcOtPRnD7XG4be6XnsdlY6rb34PlPhwOUbgir9eexSvDIssbFXU5Brof8AhJh/dpOJ6uFzaE4/vdGcd440j+z9XEsSbbe4UFcDgMBgj+R/GjSroXNqFJ/eRjaR6+9ega5pEWtaa9rL8pPKOByrdjXlFzbXeh6g0UqmOZD36MP6g1UXdWM8xwd23HZnRuiyDa6qw9CM1B9gtd2fs8f5VDa6tBcAByIpO4Y8H8avAgjIII9Qc09UeA1ODs7iIixoFRQqjoAMYpajuLmO2CGQ4DNtB9KkpEtO131Ciiigkhukle1kW3OJSMKaxI9RvLJykmTjqsoroabJFHMNsiK6+hGaadjanUUVaSujMj16M/6yFlP+yc1MNatD1Zx9VpsuiWz5KF4z7HP86gOgH+GcfitPQ2tQfkWjrVoOjOfotQSa9EPuQux9zimDQD/FcD8FqaLRLZMF2eT6nFGgmqC7soS6nd3R8uPK56LGMk1s2KTJZotySZO+TnFSxQxQDEaKg9hin0mzKpUUlaKsgooopGIUhCsCrAEEYIIzmlqKG5juHkWM58ttpI70FJN6oZ9gtM5+zx9fSpo40jGERVHoBinHAGSQB78VSudVt7cEKwkk7Kpz+tPUqKnPRXH6jdC1tWbP7xhtUf59Kr+DtLbUdeiYqTFbnzXPbI6D8/5Vmqt3rN+kcaGSZzhVHQf4AetepeHtFj0LTVgB3TN80r4+83+ApN2Vj3cuwjTu+hr0UUVkfQBRRRQAVwfxL66d/wBtP/Za7yuC+JeN2nf9tP8A2Wqhuc2L/hM4qH/Xxf76/wA69j1m0N/ot1bL96SIgfXHFeOQkefF/vr/ADr3Afd/Cqn0ObAxvGSZ4bgjIIwRwQe1dp4J8S29nAdOvpFiUMWikY4HPY+lJ4v8JyrPJqOnxF0c7pYlHKnuQO+a4z1HpwR6VWkkcv7zDVL/ANNHstzrWn2kBlmu4VQdw4P8q8u8R6z/AG5qz3ChliUbIlPXHrj361k4UdhU01rNbJE88TRrKCybxgsB3+lCikyq2JlWVkrIfp3/ACErX/rsn/oVe1/wH6V4ppxH9pWnI/1yf+hCva/4D9KmpujqwPwM8Qm/4+Jf98/zrX8O+Hv+EgjvAsxjlgUFARkMTnr7cVj3BH2mX/fb+ddp8NcedqH+6n9apuy0OOjDnq2a01OMngltJ3guEaOWM4ZTXQeE/E7aPMLa6YmykPf/AJZH1Ht7fjXWeK/DK6zb+fbBVvYx8p6bx/dP+NeYSI0TskilHU7WUjBBoTUlqXOE8NUvHY9xV1kjDIwZWGQQcg15H4ps2sfEV4jAhZH81Tjghuf55H4Vq+EPFf8AZrrYXz/6Ixwjn/lkfT6fyrqfFHh1Nfs0eFlW6jGY3PRh6H2NQvdZ1VLYmleO6OC8N3VhbamF1OCOS2lG3c65CH1+navRV0PQnhEi2dmYzzuAGPzryq7s7iwnMN3C0Ug7MOv09RUOWxt3Nt/u54q2r6pnJSr+yXLKNztdS1jw1Y35gi0mG6RR88sYGAfQetX9Fv8AwzqV9FFa2CxXX3kDQ4xjnqK8+t7aW6mWG2iaWQ9FQZNek+EfDB0aNri6Cm7kGCByEX0+tS0kjfDznUneyt6Gl4j/AOQS/wBR/OuQrr/Ef/IJf6j+dchmlHY8rOE3XXodpoIH9kQcdj/OtDHsKz9A/wCQPB9D/OtGpe59Dhl+5j6Bj2FIe+OtLRSNjjLvV9QE8kbTbCrEYUYpun6pLa3olmd5EYbWBOa19b0U3J+0WwHm4+Zem7/69c1JE8LlJEZGHUEVorNHyuL+s4etzNtq912O4i1G1mQMkyEf71YfiK/t54khiYSOGySO1YOBR7D9KLWKr5rUrU/Z8u+4VY+zTf3G/Kr+laJLcyLJcIUhXnBGC3/1q6ryk9B+VFx4TK51oc09CSs/VdFs9Zg8q8iDY+6w4Zfoa0KKz2Pp2lJWZ5xqXw9vYGLWEyXEfZXO1h/Q/pWHLoWsWZIaxukx3QEj9K9jpMfSrU2cc8BTk77HidxDeAZuYrgKvGZUYAfnU9nq8tsAjjzIxwMnBFeyMiupVlBB6gisHUvBulahlvI8iQ874Tt/TpVKa6o5auWJqyZx0OrWs2Mv5Z9HGKtgq4ypDD1BzRffDq9iJNlcxzp2Vxsb/D+VYVxoer6aSZLO5TH8SAsPzWmrPZnlVcsnHozeormRqd5FwZm44w4z/OrC65cjqkbfhiixyvB1Eb1FYo19+8Cn6HFO/t/1t/yeizI+rVOxsUVj/wBv/wDTv/4/TTr79oF/E5osw+rVOxtUVgvrlyc7UjX8CahfVbyXgTEeyDFFi44SozpCQgyxAHqTiqk2q2sOR5m9v7qc1lwaPq2pEGO0upQf4nBA/M1t2Pw91CYhryeK3Tuq/O3+FGi3Z1U8tnLozEvNYlmBSEeWhGCc5JqrbxXbgtbRzkHgtEpOfyr0zTvBOlWJDPCbiQfxTHP6dK30jWNAqKqqOgA4qXNLZHqUcsSVm7Hj8Wi6xdkBbK7fPdlIH61s6f8AD7ULgg3skdsndQd7fpxXpOKWk5s6oYCnHfUytI0Gy0SEpax/OR80jcs34/0rVooqL3OyMVFWSCiiigoKKKKACopbeKYjzY0fHTcoOKlooE1cr/YbbjFvDx/sCp6WigEkthKz7vQdMvnLXNlC7HqxXk/jWjRzQJxT3RmW3h7S7N98NjAjjo23J/WrsltDMQZIo3I6FlBxU1FO4KMUrWIBZWwIIt4gR0IQVNilopDSS2K/2G25zbw8/wCwKfFbxQ58mJEz12qBmpaKAsl0CoHs7eRizQRMx6koMmp6KAaT3K5sLX/n2h/79ipgoVQAAAOwp1FAJJbFe4s4LuPZcwxyp6OoIrP/AOET0Tdn+zoM/Stikp3YnCL3RXtLC2sk22sEUK+iKBVmiikNJLYY6LINrAEehFM+yw/880/75FTUUxOEXq0IqBFAUAAdgMUtFFIoKKKKACoZbeKZcSRqw/2hmpqKCXFSVmigdEsCc/Zk/KpYtOtYCDFbxqR3C81axRTuyFQpp3UV9wYooopGoUUUUAFFFFABRRRQAUUUUAQTWNtc/wCvt4pP99Aaz5fCujTZ3afACe6rt/lWvRTuyXCL3Rz7+B9DbpaFfpI3+NRf8IDov/POb/v6a6Wii7I9jT7HNf8ACA6N/cm/7+mpE8DaIvW1ZvrI3+NdDRRdgqNNdDHi8J6NFjbp8BI7sN386vw2FrbY8i2hjx/cjAqzRRdlKEVsgxRRRSLCiiigAooooAKKKKACiiigAooooAKKKKACiiigAooooAKKKKACiiigAooooAKKKKACiiigAooooAKKKKACiiigAooooAKKKKACiiigAooooAKKKKACiiigAooooAKKKKACiiigAooooAKKKKACiiigAooooAKKKKACiiigAooooAKKKKACiiigAooooAKKKKACiiigAooooAKKKKACiiigAooooAKKKKACiiigAooooAKKKKACiiigAooooAKKKKACiiigAooooAKKKKACiiigAooooAKKKKACiiigAooooAKKKKACiiigAooooAKKKKACiiigAooooAKKKKACiiigAooooAKKKKACiiigAooooAKKKKACiiigAooooAKKKKACiiigAooooAKKKKACiiigAooooAKKKKACiiigAooooAKKKKACiiigAooooAKKKKACiiigAooooAKKKKACiiigAooooAKKKKACiiigAooooAKKKKACiiigAooooAKKKKACiiigAooooAKKKKACiiigAooooAKKKKACiiigAooooAKKKKACiiigAooooAKKKKACiiigAooooAKKKKACilooASilooASilooASilooASilooASilooASilooASilooASilooASilooASilooASilooASilooASilooASilooASilooASilooASilooASilooASilooASilooASilooASilooASilooASilooASilooASilooASilooASilooASilooA//9k=;" parent="1" vertex="1">
          <mxGeometry x="-97.65" y="280.5" width="152.29" height="80" as="geometry" />
        </mxCell>
        <mxCell id="F_4bH8baSX07HVHHKdEK-2" value="" style="shape=image;verticalLabelPosition=bottom;labelBackgroundColor=default;verticalAlign=top;aspect=fixed;imageAspect=0;image=data:image/png,iVBORw0KGgoAAAANSUhEUgAAAu4AAAEhCAYAAAAgSyU2AAAAGXRFWHRTb2Z0d2FyZQBBZG9iZSBJbWFnZVJlYWR5ccllPAAAAyhpVFh0WE1MOmNvbS5hZG9iZS54bXAAAAAAADw/eHBhY2tldCBiZWdpbj0i77u/IiBpZD0iVzVNME1wQ2VoaUh6cmVTek5UY3prYzlkIj8+IDx4OnhtcG1ldGEgeG1sbnM6eD0iYWRvYmU6bnM6bWV0YS8iIHg6eG1wdGs9IkFkb2JlIFhNUCBDb3JlIDUuNi1jMTQwIDc5LjE2MDQ1MSwgMjAxNy8wNS8wNi0wMTowODoyMSAgICAgICAgIj4gPHJkZjpSREYgeG1sbnM6cmRmPSJodHRwOi8vd3d3LnczLm9yZy8xOTk5LzAyLzIyLXJkZi1zeW50YXgtbnMjIj4gPHJkZjpEZXNjcmlwdGlvbiByZGY6YWJvdXQ9IiIgeG1sbnM6eG1wPSJodHRwOi8vbnMuYWRvYmUuY29tL3hhcC8xLjAvIiB4bWxuczp4bXBNTT0iaHR0cDovL25zLmFkb2JlLmNvbS94YXAvMS4wL21tLyIgeG1sbnM6c3RSZWY9Imh0dHA6Ly9ucy5hZG9iZS5jb20veGFwLzEuMC9zVHlwZS9SZXNvdXJjZVJlZiMiIHhtcDpDcmVhdG9yVG9vbD0iQWRvYmUgUGhvdG9zaG9wIENDIDIwMTggKE1hY2ludG9zaCkiIHhtcE1NOkluc3RhbmNlSUQ9InhtcC5paWQ6REU5ODg5MUU1QzBEMTFFOEI3MDJCODY1QUJBQTAzQTciIHhtcE1NOkRvY3VtZW50SUQ9InhtcC5kaWQ6REU5ODg5MUY1QzBEMTFFOEI3MDJCODY1QUJBQTAzQTciPiA8eG1wTU06RGVyaXZlZEZyb20gc3RSZWY6aW5zdGFuY2VJRD0ieG1wLmlpZDpERTk4ODkxQzVDMEQxMUU4QjcwMkI4NjVBQkFBMDNBNyIgc3RSZWY6ZG9jdW1lbnRJRD0ieG1wLmRpZDpERTk4ODkxRDVDMEQxMUU4QjcwMkI4NjVBQkFBMDNBNyIvPiA8L3JkZjpEZXNjcmlwdGlvbj4gPC9yZGY6UkRGPiA8L3g6eG1wbWV0YT4gPD94cGFja2V0IGVuZD0iciI/PmI49fkAADjUSURBVHja7J0JvFVV2f/XCRFQxAHINPXigCbmgInhPJCZvZrlVFqa/dPKN0+ZpTmVaA6oVNYxzdQyLX3TBm3QMjHMVAYVFEcc4DgrFxEHRATO/3k8m7wi3HvOvWc9a629v9/P53ED3rvXXs/aw28/+1nPKjkAADCjVKluIJvhYkPE1hNbN7PBYiuL9RZbdTm/PlfsTbE3xF4WaxebLfai2JNiT4lNV6uV217D2wAA+aFWq7kSbgAA8CbSVYDvKraj2EfEtu5ElLeaGWJ3i00Wu0Vsioj5RYwKAADCHQAA6mJ9Q9nsJ/Ypse3F3hfJoc0Ru1XsGhHwVzNSAADpCfcVcAMAQI/F+gDZfEHsMLGPRnqYq4t9WuwFMYQ7AECCINwBALov2D8km29lon2lRA77FkYOAADhDgBQFMGuk0tPFds3wcP/FyMIAIBwBwDIu2DXijBjxA5MtAv318ptsxhJAACEOwBAXgW7psGcLHacq5drTJVxjCYAAMIdACCvon032Vwmtn4OukOaDAAAwh0AIHeCva9sxop9PSddWiw2npEFAEC4AwDkSbRvIptrxLbIUbd0Aaa5jC4AQLq8DxcAALxLtO8tm0k5E+3KzYwuAADCHQAgL6L9O7K5XmxADrtHfjsAQOKQKgMACPZKtSSbH4kdk9MuviV2GyMNAIBwBwBIWbT3ks1FYkfmuJuTauW2eYw2AADCHQAgVdGukfYrxA7JeVfJbwcAyAHkuANAkTm/AKJdGc9QAwAg3AEAkqRUqZ4km28UoKtviN3JiAMAINwBAFIU7fvJ5syCdPeOWrntTUYdAADhDgCQmmjfXDZXFqjL4xh1AACEOwBAaqK9v2yuFVupQN2mfjsAAMIdACA5LhTbpED9fUXsLoYdAADhDgCQDKVKdX/ZHFqwbt9WK7ctZPQBABDuAACpiPZBsvl5AbtOfjsAQI5gASYAKALnig1KvA8LxJ4Xm5P9eclKqH3EVhFb3703d5/8dgAAhDsAQBqUKtUdZfOlhA55sdg9Yndndq/Yk7Vy2/Nd9FNXgd1SbE+xHcQ2FruPMwAAIEfPNFwAADkW7XqPmyS2TeSHqnXW/yz2F7EbRKTPZvQAAKAjtVqNiDsA5JqDIxftj7l67v2vRKy/xHABAEBnEHEHgHze3CpVDUw8LLZhhIf3lNhosSuo+gIAAI1AxB0A8swXIhTtKtLPFBsjgn0+QwQAAM1AxB0A8ndjq1S11O1Drj5BMxZ0ougXRbBPZYQAAKBZNOJOHXcAyCOfjEy0XyH2UUQ7AAD0BFJlACCPHBPRsZwqgv10hgQAAHoKqTIAkK+bWqWqkfZHIjmc/xXRfhGjAgAAPYVUGQDII0dEchzfRbQDAEArIeIOAPm5oVWqvWTzjNiagQ/lEhHtX2FEAACgVRBxB4C8sVsEov0OsaMZCgAAaDUIdwDIEwcHbl9XPz2gVm5bwFAAAADCHQBgGWRpMvsGPoxviGh/jtEAAACEOwDA8tlebGDA9q8X0f5bhgEAABDuAACds0/AtjU15lsMAQAAINwBALpmj4BtX1Art81gCAAAAOEOANAJpUp1kGy2DNT8XLEzGAUAAEC4AwB0zS4u3LoUP6+V2+YwBAAAgHAHAOia7QK1+5bYT3E/AAAg3AEAGmOHQO1eVSu3PYv7AQAA4Q4A0AWlSrW3bLYO1PyljAAAACDcAQAaQyelrhig3SfEbsf9AACAcAcAaIxtArV7Za3cVsP9AACAcAcAaIxtA7V7Da4HAACEOwBA3MJ9Rq3c9iCuBwAAhDsAQAOUKtWVZbNpgKb/ivcBAADhDgDQOFsHuo/dgOsBAMCaFXABACRMiDSZxWL/KbLTS5VqP9n0MWpufq3cNp9THQAA4Q4AaTMiQJtTRUi+VnC/Xym2v1Fbh4r9hlMdAIBUGQBAuDcLtdud286wrUm4GwCgDhF3gMZ4v9gvjNp6UewruLxzSpXqGrLZIEDTdxTc7+vIZm2j5l6qldumc7YDACDcAZphJbF9jdqq4u6GCFW/fXLB/T7SsK2JnOYAAO9AqgwApEqIFVPn1Mptjxfc7x81bGsCpzkAAMIdANInRMT9btxumt9OxB0AAOEOAAh3hHuzlCpVTa/cGuEOAIBwBwBoVEB+UDZrBmi66PntW4r1M2rr4Vq57WXOdgAAhDsApM1HA7U7Gb+bQbQdAADhDgA5IET99vZaue3JgvvdMr+diakAAAh3AMgBISrKMDGVijIAAAh3AIBGKVWqJRdmYurkgvt9oGyGGjU3T+x+znYAAIQ7AKTNxmIDEO7mWL4sTa6V2xZyqgMAINwBIG22CdRu0VNlWDEVAADhDgDQFCHSZF6oldueQbibQX47AADCHQByQIiKMncV2eEB5hUg3AEAEO4AkLiA1JU7hwdoelLBXb+J2GpGbT1VK7c9x9kOAIBwB4C02Vysb4B2yW+3g2g7AADCHQByABNTw8CKqQAACHcAgKYIMTH1mVq57fmC+90y4n4npzkAAMIdANInxMTUQue3lyrVlV09RckCrd0+hdMcAADhDgBpC8h+svlwgKaLnibzEbFeRm1NrZXb3uBsBwBAuANA2mxtKCAR7u+wnWFb5LcDACDcASAHhJqYelfB/W45MZWKMgAACHcAyAEhJqbOqJXb2gvud8uJqUTcAQAQ7gCQA0JMTC10mkypUl1XNmsZNTdbXpIe5TQHAEC4A0DaAlJX7RyKcDeH/HYAAIQ7AEBTjAjUbtHz2y3Tk6jfDgCAcAeAHBBqYurkgvvdMuI+idMcAKBzVsAFANCRUqW6lWx2jeyw9g/Q5qtiXxJ/xD5kV9XKbS96OA96u3oJTgtqjlQZAACEOwA0zQFiJ+MGt4rYjyM/xgViv/C07y3F+hr142F5+ZjLKQcA0DmkygDA0myAC5LhDhG88zztm/rtAAAIdwBAuEOLGOdx31SUAQBAuAMAwh1axM0e921ZUYaIOwAAwh0AmqFUqfaXzWA8kQSvOE9Vb+Q8GOjs6ua/LnY/wwkAgHAHgOYg2p4O42vltkWe9m2Z336Xx34AACDcASC3rI8LkiEv+e2kyQAAINwBoBsQcU8Hn/ntVJQBAEC4A0DkEHFPg+dq5bYHfey4VKnqc8FyYioVZQAAEO4A0A2IuKeBzzSZTcRWNepHVV5AnmM4AQAQ7gCAcEe4N89Iw34QbQcAQLgDAMI91/jMb7cU7uS3AwAg3AGgWUqV6tqy6YMnomd6rdz2tMf9MzEVAADhDgCRQ7Q9DbxF2+XlbWXZbG7Uj7fEpjCcAAAIdwBoHirKFFy4CyMMnwtTa+W2+QwnAADCHQCah4h7/CwWG+9x/5ZpMkxMBQBAuAMAwj233FMrt83xuH/Lial3MpwAAAh3AOgepMrEz82e928p3CcxnAAACHcA6B5E3OPHW/32UqW6nmw+YNSP9lq57TGGEwAA4Q4AzYs2LQP5QTwRNW+K/cfj/rcz7Av57QAACHcA6CZDcEH0/MdzFRbqtwMAINwBIAE2xAXRM87z/i3z24m4AwB0gxVwAQAI94t9JpJj2VnsWwHaPVZsRsRj5C1KXapUe8tma6N+1BDuAAAIdwDorpIqtz0pmydjOBYRkSMCNLtI7OfihzcKegoMF+tj1NZD4udXuOqWzagJ7SXZrJpZqcP/elVswbiRg17FSwAI97ygFRE2Exvq6hUy1hIbLLaS2IDsZ3SZ7dcze15sltjjYo/qA0XshZz5pK/YpplPtGrEumKDxNYQ65f5RVOmNAo2V0xzaOeJPSs2M7MnxB5w9clxAL75SIA27yuwaFe2NWyr8PXbRZyvI5sts+fVRq4+x6Stw725s99dmD23nsmeYdPFHsnsHoQ9AMI9ZobpfUxs9+zBs3YL9vm0q3+Svk3sBrHUSpZpLe5dXT3dYGQm2Hu1YL8LxKaKTRa7VeymTOgD5EG4311wn1tWlClU/XYR2nr/3UZsJ7FdMl8P7OFze63MlqYm7T2S+fhfYuNEyD/FLQUgP5QSfah/Vmx/Z1N3WqPxV4v9VuzhSH2iUZtDxPbN/myBfrkYL3a92O/E2nN+rQxxdvnPVVfQKi9ZLfFqgKaPqpXbfl7YB0GlqgEKqwnKW4ivp+VcrOucgU9kz6m9eyjUe8r07D79R7GJIuRrSB+ANKnVam8L9/MN2tJPeuf14PdXFjtc7EhX/7wYiv9k/tKb4MLA46f5qIeKfUVsROBjURF/ndhPxG5HuCPceyAg95PNHwI0va2IyckF9bmmZ8wyau41sdXE14tyKtg1sHSEqweXVo/wEDX6/huxX4qAf6wA57Z+cf56gKZ/Juf4o4n6TFNoz3T1FFr90j6vo2507/3SrqlZHa/n+ZktYWF23Xfk5aX+/qD4a0HC989Tsr9qumXHlOI3s3/rqJVe7/D3RZn/OvPv3Ozf32bx0etN1U9u3zTo273dFO6riX1b7KjAEYsl7JiZRuFPdfVI/GLjY9CXmLLYMWJrRnLuanTpwMy0WsRosb/zbgzdIESajD5Y7iuwzy3rt0/Om2jPousHZffkbSI/XJ3jdKKaHLemPP5U7DoR8Ytzem5baZyl0SDfo4n6TP1lXdVLdVWqQb+jDc8xTX/bPdY67jqh8jhXj3CeEolo78iGWdRCc763N2pT8ySPyG4GZ0ck2pclAm4Uu1lsC3QoJCDcp4mYLPLEa1ZM7Z5g7yemYv2J7HmwTWJd0Hx7/bo1XfrxdbEVc3huh6qUNTBFZ5UqVT3uEwI0vVGi/upv/GJ4uv4nRuGuk001+nWuq0fcY2bz7M36YrH+Htv5cPY2eolb9oQkF+k43iN2jqtXrwGIVbhPLrjPLSvKJL9iqgjcFcSOzAT7j8XWSbxLGoi6QOwx6dcR2r+8nNjyQq5pCbMR7g1zkquXIUW4N8bXDXXqrXI+j49NuGvJxl+4eqR2aEovXa6eZ64idbiHfX/X1StefDTBk1q/EhyfHf+WDqDz6IVOTB0UoOm7Cuzz9xnfW5IW7iJq93D11E99Vn0gZ6eDptFocOhB6ecnctSvEFH3gQneC4a4etpHCIYm6C8NSB5j2OToJX+IRbhvlom7IxO+OeiJp/WJD27R/rSW75/Fxoil/glT68jrJ/LDkafQCaFSDYpcCvJD7p01LnxTrZXbklwnQ4TsB8WudfUyuMNyfk7os+xG6e/1YkMQ7t3i/Qn66QcBtcbQBP11uOHL+3+j7bEI9//JBO+HcnCD0EovV4l9r4f70U+XGpnaO0cPA/XNr8TGujTLkIJ/QqTJaCWDaQX2uWV+e5LRdhGv+oDWBegOKNi58Smx+7P895Tv2SHKyyYVcS9VqlvJ5vMBD2GjxPyl6WSWcwFGd/xLaOH+VVePKq+SsxueTiAY083fHZG9yAx1+USrBF3pWrMoFCDce4qumPpWgX1OmszyBftAseuygMOqBT0/tIqZ5r//LuE+kCrTNToXLeTL2QARw4MT8tcXXH0legveFW0PLdy1xOPPXZwTZFvBd5d+S2rwIao5/oNdvtE3+ysQ7xCBcC/6iqkjDdtKpqKMCPYdXL1Iwr5clm8XRvh2wsdPxL0TRDB/TDYfj+BQNk7EX6pZjzds8j1B4FCiWYXbhQW44Z2avZk1gk5s1fzJAa4Y6EqvF/NMhOxmGGpi6t0F9rlWwrJaaVlTku5JRLTrOhlaL3ntgl+WWttdF+LZZdzIQU8l3I8QEfc1E7kHaJT9nEgOJ5V0GV0kcFOjtibWym3vWRMnRNmn3Vz902NR+KWr117vLNqkouWGAon2JXzZ1RezOhvpWnhCTUydWGCfa1qeVfBmauy18rMyiJoW8lUuR/ec2BdEsN+Sg76EEO79RRSvmMBqoFpMY2uEe1OcbNjW6GX9o3XEXWuQa65c7wLdALWvV3UiyjW/X/P8P+CKyRmuPkEZik2INBldlvvBAvvcMk0m6vx2Ee1ajvgGRPvb6AJ6W+ZEtGst9+fdu5ehtyLqdBl9sciev7EQ/bw+8ZmWSd3KqLllRtuthbu2pavL5T1/e1lsIFZZzv+71BW7xrmeF792fJZGuNtzr9wYFxbY50xMrYt2TdHS1Jg9Cn4N6iRtXbH8f0S0z8pZ35ig+l50nuH6CPemOMmwrdGdiSYrjhDbvcA3xcPEdl3q33ThpoPQbG/f4H6FGxDuxjAx1Y4oU5JEtA/ORPu2BT8XdBXYHUSwjxWr5bB/IYR7tEHKUqWqVZK+F9lhRZ0qIz7bSTY7Wd0vlxdttxTuupjQOQ50Qu6SeQVat/4nuOS/fDx7uYGCwcTUID4f4uwm0M2Sh9ATEYp2fS5pOsiHC34JavrqcBHsk3PcxxCVZQZF7A/9shLbF4HYS0IGz223Fu66lPJqSJS3ZyJrlRmdya0pMn1xybvQxZlWxQ2FI9TE1LsK7HPLNJnoou1ZTvuNBRft88SOFMH+ObFXct5XUmXeeWnXtNRjIx2njSP1mVb929Oouali/4hBuMM7fF9My43tgCveg75tn4QbCkeINBkVLUxMteHOyES7rh/xR1fs9Jj7xUaIYL+0IP2llvs7nCbWL9JjizVdxjLaflqt3FZDuMeFTgYhRWb5fMPVqw8Bwt0nUws+MdVSuE+KrO9a8nHPAo+9rp+xrYj2Ir24kuPu3o4c61f/L0U8ThtF6LNhrl673eS5JHZ9Vz+0ggOIC00f+pazXZkMiifci5zfrmXghhs1p5GjaFJlRk1o10oaX4t8iGa7eoRYK7toCovmSu/Wgv2+7OqpMb/3fH7p+hzryIvxaQj36NBVOGNesTzGyjKqRUpGbXUZbUe4Q6zog/UHYq/iityLyA1cmElcRc5vV9Hex6itB+VBFMV1LKJ9Oxff184XxcaL3ZG9TE4TYT13qeM+qAXCXctxHiz7nunxWta1SjSa/7ns71pu9boCC/eoUmVkPHaUzacivzcNjcxnWjjhC0bNNRRtR7hDrOiiVFph5me4Ivd8JFC7RS4FWbj67SJ+V3fxLP6nIvJqV8+zv0vE9OIufn6lHrSl0btzxb4n7bzlUeBsk/l3gw7//Gud1BdDRSFdwVSORRdislzoMLYc9xQq+8WWKnOCs/tC0VC0PVXhrje5RzPTG8IcV/+cuDi7wemki7WzG4i+vX2wYA9l9cP0zB7PfPNyB0GsqSjrZf7RfLfVI+3H/0O4I9w9oRNTHy6wz4tYv/0SV69uFkw7iv0lu6fd3IBY70h3XzZeEDtM2rrJo2DXFAKtUHL2Mo5TI/BXys/sLIJkUQTnQNVYuEdTDlLGQHO0t0/g3vR2SUg5X2ZF4DOda2c1H+A+12C0PSXhPjt7m9fyXbeJzW3id1Wk7uzqn4j2cfkswajC/P/EtGD/+Cb8U8rE+65i+7v659hSJH3aWmwzsQfQtgj3FjM1EiERCsuIe/CKMqMmtH8+u7+FEux6b/6BCOiHurmPlbvxO//MRPvzHoWNCtMrxPbq5MdULB6fCfsYhLvluR9FjruMk+q8sxK6P2lJyBhW7j3GUC+e3Wi0XYm9qsw9Yge6epWRr4v9tUnRruhnyd+4+gql+ratEx+fd/lAHwSfz/p1VPbG1ox/9ETRygK6MNSo7CVHP6e9Hkn/DkTXItw9MLGozpaH+Pvdu9MZfPKaC1xyU0S7LjL100DNa5BpaxHPh/RAtCvNBNi0UtKJYp/wLNo1yHNfF6J9CaOzaiahsc5zX1n63SeCfuvX600Suk0FT5eRcVs905xWOu6aZn4hVuE+09Wj4/pQ1xnwrcrNU1F7vquXZNR66gsSff4+lwl2XTzkKrE3W7Tfp109p0v9c3kE/dwXXZtrEakCMkSqVpHz2y1rl+uy3YsD9/dHrr5ytyX6nNFP7LuIeJ7agv31b/DnNKK8s7Q5pslUnGau2V5iWjjgZtd42V6tYnRhllZTJOGuBM1zF5/r15qYqvskIdyFb7rufenqDqc3e5+MUbjrrH9Nkfirxzbmu3rVEq2u8EhiJ7V+mhyWCXZfD8VZ2YNHoylzAvZ1K2ebkwi2MDHVnu0M2wpav33UhHaNCh9i3Oyt+vwS4Xy5WK1F+2wk4v4HfZ5Jm95Sk0QEruPqqZindEM77OrsqnN09mJjTeg892MTfIYGrSwj57m+KB9t1FzT0fbYhLtOGNMyUsdkf7ZAP+OOzKIHsaNfHbRM4hfdO5NNfaM58yNcfZJrKHZF3yLcW4imb0wvsM8Lkd8uol2fbecbN6t53KNEPD/T4v12FnHXINRR0uYBYt6CLCJm9Ounpsbs2BP/yH5CrtgZIuL+/oACVHPsj0vwHhW6JORXnd2XktO781UylsmpWvnk4y5M7qmKYL0paYR/t0hP5DdcPXVoXIC2H8/E83ixDQO0v4urT+4ChHsrmBJB+kaoB7mKWdNUmYDd1QDHFkZtaVDliyKcr/a0/+WVo9No3Wel3WkezxnN0T5PrNyC3WmFt2+LnVEg4R4yVeZ7rl5JLjWCpcpk5/t3jJrrVrRdiSHiPi+gaO94DCreY4zEaR7+3oFE+xI09/1/XD1aac026FuEewsp8sJLmxo+yGfIC9KLITo5akK75lRb5fVqUGUvj6LdLWfMLhMb4Vm0a3WPCS0S7Uv4jux3tRDnhZyPLwV4hgUR7uJjDbLFvkLw8hiQfS0IgaYIW6UWndHdIFIMwv1wF0eVB13d7wDXuomereIrYrdEcBw6F+DLAdrVqFlvB7ki4MTUyQV2u2V+e8h7ulbRsKjZrgGfPUQ8+w6qvG+p55SugHqE2Oser09dAE+rum3V4l2v6urpsKGwjrqHirifmfhzc+MAzyTNQDneqDnNZLimFTeEEPxQ7NqIThaNXoyJ6Hh0sY5fR3Q8eqL9xbhNjZ5FtQwytIRQE1OLHHG3TJMJsmJqlttukder6TH7ini+3aCtAR3OXZ2A6jV1UATMmOy546uqxjHSRqgUDusJquY57tkqtp9N/F4VIl3mYFevqGeBRtsXpijcNYJ7SoQnjNYxfyqC43jM8O2vGb7pWlees1FSqkEL8Qr3V7LrqqhYRtwnBOqjrhBpUaf+yyKgrYoaaBlFDXLtIG1aFArQtB+fa3lo1P3wQOdHESLu5+TgXmUq3LP5PycaNafX8G96soOQwl0XDJof4QmjOYvnRXAcRzi76jrNMEPstwV4+4b8Cfe7m1mdLk9kEc5hRs3pvJypgbpaNmhjrAjoKw37dJy09x0xk3VH5Bq519XXCfHJ0YHqultH3AcaX+dawnn3HNyyrL+yf8rV5wBZ0KNoe0jhrssx/yvik+aXrvkVWluJVri5NWL/jDVu74PoXIR7K4R7gf29reH9Xiv3mM8VGjWhXV9MdvbcjK6GeqJlv0SwmxdNkPHTVbh9po1qDvPHEO4tFe3vc/5TfacZvZRbC/eTjdrpcbQ9pHA/PfKHnH4m/H3A9r8XuX8eMBZBa6Nz8wMrpgbBsn57qDQZ35PndWLoYSKkFxbknDlV7F6P+/9igD5Zp8pY5rjrAle+S6CelIl335h9ZZfn0Z7Ornpdj6PtoYS73gj+k8BNK1Tt8FtduM/MsfpnsIM8wYqp9ow0bMu8osyoCe1a69z3KqnHi2ifWZQTRgTGgkwM+krR2U9E04CcC3eTlVPFj32d//r4t8s5odkADxt0ybIkpNUXNP3a85tW7CiEcL80kfuWvly8EaDdixLxz02Gba3mAOHeM+bIQ+fRAvs87yum7ur81l/Wrwi/KNpJI9fM/c7fCrS6iuo+xl3SVW0XGbbXz2i12KOd/xKoSwTug0a+814SUsZme1df5NGCMa2ItocS7n9K5J41P8ADSNv8cyL+0c9lsxHukIhwL2y0XR5OWuLM6pP9i/Jwmhmgm/t53v+x40YOWlzQU+gssVmJjtvSLyKLMvFuyUDP17c+H0/y3Ie/ie9uy/78sJHfLNJlrCobaqXCX7ZqZ9bC/Z4AF01Pj9eSf7gwUf5u3QOdXUpPyQHCHeHeXSzTZMzz20dNaNf7w74em7heRPudRT15RLBpoYbRnna/Z5bmYYn1BFXfKR86sdLnnKGae/fkTS2pazHPw6twl/NuuGz2snr5zVLPkhTuMVdKWRb3G7f3z8T8c59RO/0c5AImpgYh7xNTP+z8Vp46jSvXXSb2gof96iJPOxj3JTd57nI/1fSYoz0f/9VZidAlL3Iq2i0qHfmuLPNdo/FvabQ9hHCflNjN6nHj9iYm5p8njNrpw3MzNzAx1Z5cT0x1fssK3jJu5KApRb9os/KeFU+7H5Vz4e4zVUYr9Pn8YqGLLX5/Gf/+SMrCXV54NH/+IKPxb2m0PYRwv8+lxfOGbelb7L34BxDuLUcnpj5RRGfLA0pfeocbNac54JMDdHM3j/uucMn+Fy2cMD+x8VsWuajlLtf25s5/Sc1L5N65rACmRTaCz1QZnWhrkYLb8mh7COGe2sOz3TgK8Bb+AYR7y5lcYH9vJbaiUVsPykP+1QB99PVF4UWxv3HJ1pGxfcn5KZ4wXERo7xwLd1857mM8i09dz2Z5JSYtIu5eSkLKPtdz/lcGXsK5rY62Wwv3Fzy9rfvE8iE0I8F7+asOoPEbpj5kRgRo+q4Cu90yTcZ8AueoCe0beBRG14wbOegtrtx3cbWHffbJXjCtsE6V8SE+d5XNJz0f909EdD63vJd0I9/5KAl5nJjFi6JmJFzmY8eWwv2lBG9SlvVe2/EP5Bz99LlqgHbJb7chxBymLT3u+09csu/hRrFXPOzXUrgnnSqTBUDO9XzMc8TO6+T/a8S9ZvTMaKXv1pTNEUbjfo68+HipEmgp3N/kntcp83EB5JxQE1OLHHHP+8JLvoS7Pq/u4JJ9N9kk1X952PUwwz5oCohlILHVOe4HOP9fLs8WP73ciQ/nOZsvF63Oc/+W8zuZdwkabb/Y184thftcbnud8jIuAIR7y2mXh8yTRXR2Fl1a36g5TZt7KEA3fa2uOGHcyEEEU5bNeA/73NS4D5ZR90EtvKY1xeNsz8f7rNgFDfzcAwa+G9pC3+lCVUcZjbm3aLu1cAcAhLs11G+3YZI8qEKsLOqr8sStXK6mvlnfuA+WL/OtzHH/qtiGno/3tAZFZ2olIbXe/QCDY/YabUe4A4AJWV4mwt2WvNdvV4Z42u8ErtrloqUAW71y5no5Fu4tSZWRe2h/t+ya6q3kUdd4+UKLiPtGLfTdMUbj7TXajnAHACv0BjwgQLsTC+zzXOe3j5rQvoLzV1HmAS7ZZSOiRCvttLq0c18RVwMNu2GZKqN9W6kF+zne4/m+hFOylVEb4WED37WqJOQRzu9CWEuYLfYL340g3AHAAlZMNUQedr1ks23OX5De72m/Wnf5KS7ZTvGRJrGG4fEntXqqXM8fkM2xno9RVwi+tomft5rTsnEPfafrWBxndKxjs4m7CHcAQLh3gxfkJvpMQf2tk/36G7X1uPh5VoA+ru5pv0+PGzmoxiXbKdWExtPq+DtjzR7+/qliK3s+xhPkOm74vM8W5HrBwHc9TZf5ktjaBsep0fYLLE4mhDsA5FW4Fzm/fTvDtiYF6uMqnvbLitBd46Oc4kqGx59MxL1UqWrE+UjPxzdehPhN3fg9i3SZjXrgO02ns4y2v4ZwB4DkYWJqEPJev13xVY95Dldtl/go77yK1cGLwNLKHwsM/dWTVBkt/9jL8/Gd0M3fs1hBtSeVZQ50/qvwKGbRdoQ7AFgQamJqkRdeKkJFGV9Qvz2McO9l3AfLdJluCfdSparX8X6ej+06eZHp7jVsEXEf2k3facDoZKPxNYu2I9wBwIJQE1MnF9HZ8sDSyKXVSpS6kuZUTvHCsSgHfbBMl+nuROrzPB/X4h6KW4uIe3dTZfYV28zg+Eyj7Qh3AMircH+2Vm57rqD+1jSZklFbU8TPC3LmvwFcsl3Sx8M+XzPuQ9S13OUFfB/Z7Oj5uK6Q67cn4jvmkpAnGI3tTy2j7Qh3AMircC9yfrtlGciQCxX5emFYhUu2S1bzsM+Fxn2INlUmK+c6xuD6ObUnOxDB+rRsXjXw38ZN+u9jzmaej6aM/dT64kO4A4A3Ak5MLXJ+u2VFmZDC3VeUi4h71/iouf6ycR9ijrgf7vynu10kwrsVPrCo595suoxVbvv54kPr8xbhDgDeb7ghhBAVZWwIOTF1tqf9Dhk1oZ1nY+es52Gf1msBWEbcG85xL1Wq/WRzusFL7xkt2ldUwj2b0LurwTFptP38EBcfNycA8AkrphoiDy0tfTbYqDld4GpmDoW7rrS4Lpdup2zgYZ/W9fMtI+6DmvjZY5z/BYN+KNduq/xtIdybqSxzktGYBom2I9wBII/C/dmsTnMRsYy2h0yTceNGDtKyjS952v1QLt1O2bTF+5sl1+ybxn14yrCthlJl5MVbf+67Bi+8Y1u4v2iEu/hvC9nsY3A8waLtCHcAyKNwn1hgfxetfruvqOk2XLrLFUcfcq2fwDvTuh/Zi4LVC/6K4rf+Dfyc5mav6vlYzmhxFZSYUmVyH21HuAOAzwc8K6baU4QVUzsyw9N+d+AKXi67etjnY4H6YpnnPriL++UQ2Rzt+Rj0K8OFLd7nE87/KrRdloSU/6/i/kCDcXzdGddtR7gDgBVMTLV9UdLa2sONmtOFW2Ko3ONrAZjtmaC6XHZMaBy7IqY8d50s2tvzMXy/1esuyP50Ma5HDPzXVUnIE4w07QUtnB+AcAeAqGBiqi1bGzz4l3C/9aIjxoJPyx1uzyX8npdD/Yq2m4ddTyuAcB/YiV/1hfsQz+1rSssVnvZtsRDTRp34T6scHWZwDBptHxv6OkS4A0CehPtTIihnFdTfhZmY2oF7PO77M1zCyzzHfFQ8mRKoP7EswnSu87/a8Ulyb1yc2At0Q8JdONbZBC2CR9sR7gDgkxEB2izywktFm5iqTHf+FmLan3SZ9/BZD/t8rkULAXWH4Kky2SqfHzO4Xq/3uH+LiPvQ5fhP/foVg/ajiLYj3AHAC3Iz1XtLiIj7ZIS7CVFE3MeNHKQRxNs97b5N7ONczf+9prW+/Rc87Po/AbsVdBGm7D55rkHbJ8jLUc3j/i0i7ssrCanR9n4G7UcRbUe4A4AvdCJR/wDtFjLiLgJgzUxoWvCKs4mwNcptHvd9FJfyf9GKHYM87PffAfsUOsf9YOd/QvlNIjjHe25Dv3wt9tzGRsu4760mm/81GLtoou0IdwDwBRNTbTFNk/GYK9sdxnnc996jJrRvxOX8Nsd42u+NoTok5/FLmSgzF+7ZF4wzDNo90cCPuhjaTM/NLKskpL5Yr2rgw0tjibYj3AEgT8J9RvYgRrj7ZVJkfdfjme3xGTm66BezCKZPOD+LUj0h1+zjgbtnlS6z9NcKjRQP8dzmNeLfe4z694BBGxt3OCc1PebbBm3qS8k5MV2PCHcA8EGIlSdZeMmGO2PqeJbnfoPHJg4ZNaF9WIFFu+qEszzt/roIumiVLjO4g081xeMUz+0tMmijIxa13Dt+/fqq67xST6u4WF5+nkO4A0DeH/TDAzRd1IWXeslmW8MmJ0bohmt9uljs/AJf0l/0eD1fG0H/rCLuHUXmcQai8zIRnI8a+tEi4r5Rds/TNKNjDdqLLtqOcAcAH4SamFrUiPtmYisbtfV4TLmeHbjJ1SfN+mKPURPaDynaiSUCScWlr6onMyN5CTQV7uLTtQ1EpwrO04z9aFkS8lCxdQ3aiy7ajnAHAB+Empg6qaD+LlwZyKUZN3LQm7K52nMzPxLxPqhg59ZPnJ9KMsqvPJcobBSrVJneItpXke3pYn09t1UR3z5r7MeHLIR79kX3RIO2ooy2I9wBIC/C/TF5UM0tqL+LuGLqMoWg5/1ryc0rRLyXinBSiUDSxZY+72n3Ktgvj6SrlrXcdxM73HMbeh8829qJ2f3X98uCpsocJLahQZcuiTHajnAHAB8wMdWW7QzbmhirE8aNHKTHNtVzM3s5m9zapUX0SmIrGLan6W6XemzirwFXS10ay+PQuRK9PLdxrvh2TiBf+p6gOsD5myjdkbdcRHXbEe4A4POBz8RUW3/rg+xDRs3NNxDGPeWnnvevE/D+bjzGm7v6isCLjNrTiid/dn7nqfw4onPmWSvfCut73v/zrp7eFIoHcuBD5ZcRvVgi3AHAK0xMtUXTZKxSN6bIw+ytyP1xVSZefHCJ2IhxIwc9YNUZEdFfc/W5G8Ms8sGlvT6uXqJxE8/n0b9iOWHkWBbK5pmc3A9+IP15PWD7D+fAh3qPOyvmA1zBAQC0DlZMtRfuVtwZuzN0kuqoCe0/lD+e18LdarWaI2Xf1xgKdo16a6rK/h2OwXebWmJPyzPu4rmp0yM8dTS6ul7i94LHnd/0pkZ4MAf31Kij7QoRdwBIXbhPL/DEVMuKMhMT8cnPxV5sYZ+3MhbtOmdhSgfRrtQ8t6mi/fdi+3junqZaXR/hOVPNwb3gVLkPLgh8DA8l7sPoo+0IdwBoNSEmpt5VYH9TUWYpRGS/1qKHr0btd5L9zTAS7CWxE+SP/xYbstT/fsVjuxrd/6eBaFdOjqQE5NI8mfh94F7nvxxql8jYappaykGU6KPtCqkyANAqAcDEVFt/a2k0q7riz6fwQOvARWLfENugG787S+xQEez/MBxLLTV5pdgey/mRxZ7a1YnNvnPal/BPOYduiPR8SV246wvR4kiORdNltkvQh4tcAtF2hYg7ALSKUBNTixpx39awrQkpOUZEt6YMfLs7vyq2hbFo/7irR0z36OTHXvXQrtZon2wk2lUUHRvxKTMz4fvAbSLa/xbR8aQ6QfU3qQQniLgDQKsIkd+un92nFNTf2yPcOxXv142a0K6lGz/RoLD8vtgY+T2TyGVWl/0HYt91XVcGWtTCdge7etnMzxkOx1gRRfdHfLqkHHE/MbLjeSBBH+r1dUYqB4twB4CUhbtOTH21oP62jLhPTNRHR7n6p/t+XYi2g0Ww32F1UCKeh7h6TnKjk4tfa0Gb+oX9CFdPBxhoOAY6R+D0yM+TVIW7LmR1e2THlGLEXaPtj6VysKTKAECrYMVUO+HX19nNJ9AI9OQU/SRifKbrPCL5J1evGmMp2g9w9a9EzVQEWtiD9nTS66ddPR3nYmPRrufO4SKK5sV8nsjx6YvRS4md3vq18aQIjyu1yjJJRdsVIu4A0AoxEmpi6qSCunxrw/v3tMCLuvQUTQvZV2y3Dv/2ptixItgvNH7Z0hVDv9aNX3+tG+3pV4bPunqu/4cD+f48OXf+nch5olH3NRI6r38rvp0W4XHpy7Kustw3ET8mFW1XiLgDQCtgYqotlvXbJ6TsKBHnGpk8TGx29k+PiG1rLNqHufpXi691cxcLG2ynl9jOYlrLXlcD/VVA0a79/X5Cp0pKtdy13vipMR5YVt3mkUT8mFy0XSHiDgCtIER+uz4gphbU39Rvb068Pz1qQvuh8scDxcryd7MvCCKiv+zqUf+VerCb15ez796y2dTVJyrriqdaoSaGqLG+JB0QwYJAzZBSnvvF4tsnIj4+nVeyZQJ+/L/Uou0IdwBoFSHy2x9OPIWjJ7BiavPi/UbZ3Ggo2Ae4ek55K6q3DJX9HS/bVcS0KsxaYhtltmJkrtYo5ucSq/ufknDXe96ZkR9jChNU9UvcWS5BEO4A0Aq2DdBmUSemqmhbz6i5uS7duswhx0hfZH/nurcA1LIYkVkKfF1E+80JDlsqqTLnZyuUxsyDCfjxGvHjgwmepwh3AOixSOklm60CNF3U/HbLNJmJkS5RH+u1oPXYdaGhs8V6F9AF58r5cnGix55CxF1TkMYmcJyxv+zrPe30VC8yhDsA9BRdNn2lAO0yMdVAuHN6NyzaNYXl12J7FdQFKthPSPj4U4i4j5EXo5cTOM7prp4y1SvS40s22q5QVQYAekqIian6UCjqiqlUlIlPtGupyXsLLNqvcvUUmWS/zmTpJzFPpn1a7GeJ+FL9+Hish+cSjrYrRNwBoKeEmJj6oDwc3iigQOxl7G8i7l2Px2hXXwinqIEwLTl5pFyPi3LQF02X2SjSYzstsXueLsS0cYTHlXS03Tki7gDQc0JE3IuaJqM1uVc2autRecDN5vRermhfRza3ip1S4GfpBWJfzoloV2JNl9HUk8sT82WsK6iemfpJSsQdAHoiXkJNTL27oC63TJOZxBm+3PNeV2LVSPPqBXWBphscJ4L9hznrV6wTVE8WXy9MzJcxCvfrI11tFuEOAGaEmpiKcPfPnZze7xHsfVy9qsfRBXaD1hE/TATQH3PYtxiFu97r/pCgL2MU7qfl4SRFuANATwg1MfVehLt3yG9/t2jXfF2tzb5Vgd2gKRv7iWh/IKf9izFV5sREJ/3GVhJSo+25KGhAjjsA9IQQE1OnFXRi6mqy2cSoufkFfjlalu8Pk809BRft/6fXe45FuxJbxP0W8fc/U3SkHPersnkqokM6LS8nKRF3AOgJTEy1Q1enLRm1dbc8eN9CsFc1uHW52KEFdoMKMC31eGUB+hqbcD8xcX9q1H3dCI4jN9F2hYg7AHRX1DAx1RbLFVOp3+7ejhouls1lYo8V1AV/FRtWENEem3D/k/g99QnisZRdPC1PJynCHQC6CxNTbdnOsC3y298R71rycXNXr9c+v0AC9iDp+z5iTxdorN+UzQsRHIrO4zk5By6NIc/9xjxF2xHuANATQqTJaEm0+wrq720N26KizLsF3XwxjdoNc/VVQms57err2QvKptLfaws63DFMUL1C/P9QDnwZQx9Oz9sJinAHgO4SamLqm0VzdKlSHSqbgUbNPVekKGuTAn6G2Oezl9brc9Q1/ZLwE7EN9AVFbF6Bh7kawViMzokvQ6fK/EPO5dyl/SHcAaC7MDHVDsv8dqLtXQv4KWKfdvU5Hpe7dFNoXhI7W6xN+nOM2IuMbvA894tkHJ7MyXUyKzvHQjE6jycowh0AmibgxNTJBXU59dvjFCb3in1J/riOq1cAeSqRQ9d5Il8VW1eO/yQEezTCXSv4nJUzf4YqH5rLaLtCOUgA6A5MTLWFijJxC/jZshkjL7TnynYHsYPFDhAbHJkgvVrsKjne+xi15RIyVWasjE17zvz5iNhOAdodndcTFOEOAN0hRJrMArFpRXO0iMF+zu7rxqICvxy1QsBr+cjb1GTcyrLdReyTYruKDXe2X7l1IvftYjeK3SDHNo0RavgFJwSaVvKjHPozRJ57bqPtCHcA6C4hJqbeV9BFgYYb3qt18u/rnN4tEfH6EnRLZvoCtoZsdnb1sp6bZ7ZOiwXnpOzFS+eCTMxWr4TmCBVxP1PG67Uc+jNEZZmz8nyCItwBoDuEiLgXNRL8AbFbjdq6kVPbm5DXSXrXZeYyMb+6bDbNBPzaYmuJfVCsf/Yjq3XYhYpwFXb6YjXH1fPpZy4x2f8reLk14yTjoj5e2fhl4aKcutRauN8qY/jvvAt3q5JW9yfqIyv/pPgZc66Rf2KIAM4zPBeinijGiqnmQuKPsvkjkiqXY6sC/A48ER1/ElvXsL0L5FxYkFNf6pegm8V6G7V3St5PzhLXJwA0Kdw3C/QivpVW8WAEAACgkC/7tRrlIAGgaUKkyWid7AdwPQAAFBmEOwA0y0cDtKn1shfiegAAQLgDADQOE1MBAAAQ7gAQM6VKVSe0b4lwBwAAQLgDQNwME+sboN27cD0AACDcAQAaJ8TCS2+4MKvvAQAAINwBIFlC5LdPYWIqAAAAwh0AmmNEgDbJbwcAAEC4A0CjlCrVPi7MiqnktwMAACDcAaAJNNreO0C7RNwBAAAQ7gDQBB8L0OY8sYdxPQAAAMIdABpn9wBtTq2V2xbhegAAAIQ7ADRAqVJdQzbbBWh6Et4HAABAuANA4+wjtkKAdpmYCgAAgHAHgCY4IFC7TEwFAABAuANAI5Qq1cGy2TNA06+JTWcEAAAAEO4A0BiHujBlIHXF1MW4HwAAAOEOAF1QqlRLsvlyoOYnMAIAAAAIdwBojL3EhgVqm4oyAAAACHcAaJDjA7Z9J+4HAABAuANAF5Qq1Z1ks0ug5mfUym3PMAoAAAAIdwDoXLRrbvsPAx7COEYBAAAA4Q4AXfNZsREIdwAAAIQ7AERKqVIdKJvzAx6CloC8iZEAAABAuANA5/xYbM2A7d9WK7e9xDAAAAAg3AFgOZQq1QNdfcGlkFzHSAAAACDcAWD5ov3DsvlV4MOoiV3LaAAAACDcAWDZon2Qq0e6Vw58KOMpAwkAAIBwB4Bli/ZVZfM3sQ0jOJwrGREAAACEOwAsW7RrBZdtIzicuWLXMCoAAAAIdwB4t2hfRzb/jkS0K1fUym2vMzIAAAAIdwB4R7TvJJu7xLaI5JB0UuqFjAwAAMDyWQEXABRKsK8om1PETo7sxf36WrntYUYIAAAA4Q6AaK9UR8mmIrZphId3DiMEAACAcAcoumAfKZvRYntGeoh/r5XbJjBSAAAACHeAIor1/rL5jNjXxLaP/HBPYsQAAAAQ7gApiOzestlAbHqt3FbrwX7aZKPpMJ8U20tspQS6f7X0eQpnAQAAAMIdIAV2FLtF7BUR31rpZZzYJLGZYgvFXs5+rq9YP7E1xAaLrefqiyZtJra12FqJ9Xue2HEMPwAAAMIdIBX2zrYDxHbPrAj8oFZue4bhBwAAaAzquAOEZ58C9nmq2FiGHgAAAOEOkASlSnWobIYWrNtviX2pVm5byBkAAACAcAdIhb0L2OdTRLRPZegBAAAQ7gAp8amC9fefjhQZAACAblHCBQCBLr5KdVXZtLviTBKvin2kVm6bzegDAAA0R61WI+IOEJA9CyTa3xD7NKIdAACg+yDcAcJRlGoyi8UOJK8dAACgZ5AqAxDiwqtUe8nmBbGBBejuV0S0X8KoAwAAdB9SZQDCMbIgor2MaAcAAGgNCHeAMBShDOQ3RbRfwFADAAC0hhVwAQDCvcUsEjtCRPvlDDMAAEDrIMcdwPqiq1SHyGZGTrv3ithBItr/wUgDAAC0Ds1xJ+IOYE9eo+2Pin1GRPsDDDEAAEDrIccdAOHeCn4vtg2iHQAAwB+kygBYXnCVan/Z6CJEK+akS6+7+iTUyxhdAAAAf5AqA2DPx3Ik2m8S+5qI9hkMKwAAgH8Q7gC25GG11GfEjhPBfjXDCQAAYAepMgBWF1ulqtfbc2JrJtqFuWI/Ehsron0eIwoAAGAHqTIAtmyTqGhXwf4zsR+KYH+JYQQAAAgDwh3AjtSqyWh5xwvFLhXB/hrDBwAAgHAHKAop5LfPEfuDmOav/0sEe41hAwAAQLgDFA0tmbi72G5iq0d0XM+K3ezqtdj/LmL9LYYKAAAgPpicCmB90VWquvDZFmI7iY0QGy72IcMX6SfEpoiNFxsnQv0hRgUAACBudHIqwh0gDjGvon0DsY3F1hVbT2wtsUFia2TWV2xVsT5i/ZZ1TYu9IrbA1VNeNJKupRufFtNa69PURKi/iscBAADSE+7/X4ABAKPuiN8eAaklAAAAAElFTkSuQmCC;" parent="1" vertex="1">
          <mxGeometry x="279" y="280" width="207.62" height="80" as="geometry" />
        </mxCell>
        <mxCell id="F_4bH8baSX07HVHHKdEK-6" value="" style="edgeStyle=orthogonalEdgeStyle;rounded=0;orthogonalLoop=1;jettySize=auto;html=1;strokeColor=#FFFFFF;strokeWidth=3;dashed=1;flowAnimation=1;shape=link;" parent="1" source="F_4bH8baSX07HVHHKdEK-4" target="F_4bH8baSX07HVHHKdEK-2" edge="1">
          <mxGeometry relative="1" as="geometry" />
        </mxCell>
        <mxCell id="F_4bH8baSX07HVHHKdEK-4" value="" style="shape=image;verticalLabelPosition=bottom;labelBackgroundColor=default;verticalAlign=top;aspect=fixed;imageAspect=0;image=data:image/jpeg,/9j/4AAQSkZJRgABAQAAAQABAAD/2wBDAAsJCQcJCQcJCQkJCwkJCQkJCQsJCwsMCwsLDA0QDBEODQ4MEhkSJRodJR0ZHxwpKRYlNzU2GioyPi0pMBk7IRP/2wBDAQcICAsJCxULCxUsHRkdLCwsLCwsLCwsLCwsLCwsLCwsLCwsLCwsLCwsLCwsLCwsLCwsLCwsLCwsLCwsLCwsLCz/wAARCAEOANYDASIAAhEBAxEB/8QAGwABAAIDAQEAAAAAAAAAAAAAAAYHAQQFAwL/xABJEAABAwMCAwUEBQgHBwUBAAABAgMEAAURBiESMUETUWFxgQcUIpEjMkKhsSRScoKSorLBFTQ1YmPR4RYzc3R1s/ElQ1OD8ML/xAAbAQACAgMBAAAAAAAAAAAAAAAABQQGAQIDB//EADQRAAEDAwMCBAQEBwEBAAAAAAEAAgMEESEFEjFBURMiYXEUMoGRBjM08BUjQqGxwdHh8f/aAAwDAQACEQMRAD8AnVKUryu5TiwSlKUXKLBKUpRcosEpSlFyiwSlKUXKLBKUpRcosEpSlFyiwSlKUXKLBKUpRcosEpSlFyiwSlKUXKLBKUpRcosEpSlFyiwSlKUXKLBKUpWFlKUpQhKUp/rWUJSsOLbZQXXnG2WhuVvrS2jHfxLIFcGVrLRsMqDl2adWPswm3X/30p4P3q7RU8svyNJ+iwXAcld+lQtXtI01xcMeJdpCunZstJJ9CsmtlnWzLxHDpvU3CcfEiKlwfdipX8Nqhks/wufis4upXStK3XBFxacdTDuETs1hBRcY5YWolPFlIycjxrdqDIx0btruV1BB4SlKVqhKUpWEJSlKEJWaUoQsUpShCUpShCUpShCUpShCUpShCU6ZrIClEAAknu3NQfUmuEw3TarAkS7otYYW+2jtUMuk8IbYQnIW507h49JdLSSVT9kY/wDFo94YLlSa7XqzWNoOXOUlpSxlphA7SS9+g0N8eJwPGocnVms9SPORdJ2jsWkkJcluhDrjYPIredAZSeuME92a6WnPZw7IeF31e65KlvKDphLcKwFcwZToPxH+6DjvzyHv7L1sRrdqpDi0NNRr04VKcUEIQnswkZKtulXCl0eGEXeNzvXj7KBJUOOeFrx/ZjcbitMnVGoJMl1RClMxSpQB5kB5/I+TYrduVn9lui48WRPtRfXJdLTIdC5jyygBSlcLqg2AMjOw5iu3O1rZIpUiMHJrgOPovgZz4uL/AJJNQXVNzc1SxHjvxY8f3ZxbsVxvjW6hS08KgpSjgpO2dug7qskWnzPbdrbD99Epk1KnY6xddSCFq12UwX9L6IkSYYUtsOJdhxAFpOCC2ylZ++jmqdfIznQL+OnA+tz59mg1U0WbqHTMxbkSS9GcUnhWplR7N9sHkoHYju228KmcHV1+mNB1q6SwpOErQpaVFKsdxHKtYqDxXFmAfULeesEDBIASPRdGV7Qr1Cyq46KfjoGxU45JZT6KWzw18xfafp944l2y4xcnALDzMtIHeoLDavlXqzq/U7WOKWh5P5rzLRBHiUAGvRy9acuh4L7pqA/xDCpEVAQ+PEHZf79a1H4e3C7owfZcYtagdi5HuutC1XpK4FKY11YS4cYamJXFcz3DtfgPoo12+YChuk7pI3B8iNqgTugNG3sFWnbu9EkY4hDmAupB7gFkO+ZBVUdkQPaPoZRcCnxBSrPasH3m3qGftoIPD6pTVVqvw8AT4RsexTuKsDxcG49Fb4pUGsftEtk4oYu6EwZCsAPoKlRHFf3s/En7x4ipwlSVJSpKkqSoBSVIIUlSTyKVDYiqzU0ktM60gspzHh4uFmlKVEWyUpShCUpShCUpShCUpShCUpShCUAJxgZOcADmT3ClRLXGpTZIIhQ3MXO4tkJWk/FFin4VO7HZSuSPU9N5NNTuqJBG3qtXP2DcuXrDVkhx5WnLAVuSnnPdZj8XKnFuLPD7rHKe/ksjy6ZqU6J0PG06yibOCHr06ghSx8SIaVDdpg8s/nK9BturT9nujf6IYRebk0P6VlN/QNrTvCjrTywf/cWPrdw26nPc1BqAxS5AgLBk/VfeBBDGfspx9v8ADz5X+GKKii2t/wDqS1NQGAyPWxedSwrUSw0BJnYH0SFYQ0TyLyhnHlzPhzqnLYt52fqJlZI4pqpS2kcQa41uLyQnPTO1SfgUpR5lSsqJ5qUeZJPOoqZ0G16ivLrzhLLrWT2GHCXT2a+EYOO/rUum1FrTuiZcjv1SETS1jXs6Wxb3XbEdR6Y8+dfXuiiNjv1wOVR6Tq2S4rsrfDSknZKnsvOHyQn4fuNePums7ngvqebbO/5Q4GED/wCtO/7tS/4pWyOwA305/soTdKIF5CG/VdW4NW9Ta2ZjzCRjbicRxpPQp3zUTQ+q2zFKjPoebSccSM8LqO4g1229IvYBkzAD1Sy2T+8sj8K9l6XgJQrDsjj4TwqUUhIV0JCRypm9lTPZ+2xHVToJKamaYnP3A9LYXym/WogcRfCiBkBvOD3Z4q+hfbQTjtHh5tH/ADrgMstQ5/YXBniQlRQsEkAZ5LGKkRtFpUMiOjhIBBC17joRvXennqpQbEY7rhU01FAQXA2PZfbV3tSlJKJQSoHIKgtBSR1BxzqQ2j2kvQpSoF7CZluXlLcpkh11DatgHB9od4O/nyrmR9H2p1CXJKHW+IZS204QoA8isqzv4V5v6Jthz2EuW0rBx2gbcRnpnACsd9Ia3WYpH+E+xI6hS6NkEPmYTY91KL77PrFf439LaXejMPPAuhps/kMjrgBOeBX3eA51CLPqTUGkZjlsuDD6orLnDIgSDhxknB446jyzz54Prkc6FI1XYbiYEGfIhSS7jhS+Ux3lcOUEpXlpQVtw5HUenXv97n3WIlrVNlLc5lKm4F2iNdisrHxdi8ndpaD3BQI5gbkKiSMjnbseLgp2ySxBBVqW+4wLpEZmwXg7HdBweSkqGxQ4nmFDqK26ojTWo5mnpodQFOQnlITNjcWziBsFo6Bad+E+nI1eMaVGmR2JUVxLseQhLrLieSknqR39/wD+xR9S040jrty0/uyZwy7xY8r2pSlKF3SlKUISlKUISlKUISlKUIXhLlxbfEmT5SuGNDZU+8epCeSE+KjhI86pyzz3b5rezTrglDhl3aMpSFjibSkHDbYB2wnYDyqUe0i5vFNr09F4lOylolyUIA4nCpXZx2sc9zlXyqPzrfH0prDTccqCEQVWF+a6TlPangU+5z5Z4iPCrvolL4UPjO5d/hL6iS7rK5r/AHX+jY6W2SPfJPElrqW0clOkZ/Z8fKqyuF3t1tCjKdUuQr4gw2Qp5RPVZPIHvPyrnam1m/cZ0lNs4yXVlpDwBKuzHwoRHTzHicbkk9a1bXpR6QoSbutQ4zxmOlRLqif/AJl9PEc/EVLnDT55TZo4Cr88YkdvmNmjgLSduuor84uNCacbY+01FylOOWX3T/MjyrwcsirfcrNGuKkONTVNl3sVKASFOFsp4yAdtj61Y0aNGjNJajtIaaTyQ0kAZ7//ADUc1vHUiJaZyNlsSXGcjmOMdqg/NJrWlqDM/ZE2zVvDON2xgsCu9FtkGEkJjRmmcbEtpHGcfnLPxH51sFrw+6tiC4iZChS0AcMmO0/5FaQSPQ5HpXspqrnSwxQNGwfXqk0rXOd5uVylteH3VruN4rqrbG9eIjKdOBsOqj/lU2SqjgYZJDYBRXQlxsFDdQW0SI5ktp+njpJOMfG0NyD4ivrRzzcxfu0hQLkNHasoVn6RAOB+x186mrcOK3uUBxX+J8Se76p2qurky7prUTciOCI5cEqOn86O4SlbRx+smqjPqsdY97aQkEjlPKaEvh8GbNshWQrfevJVEOtPNtPNqCm3m0OtkdUrAUDWFVSdpBO5R34wVwNR2lNyil1oflsVKlskbFxA+JTZ/FPj51s6O1E0+wuNcUIkNBKWLjHeQlxDrR+FLwQvbI+1tvjxGOiTg5z6/wCVQq6IVYr1HuLCQIsxSi6hP1QTgOoA9QpP+lO6SQubs6jj/i608pcPD/qGR/tSrW+gLe1CcvenWShLKe3mRGipbamCMl+ONyOHmoZxjcY4cK5Xs5v3YvuWKS59FIUp6AVH4UPAFS2h4K5jxB/OqyNJ3JMmO5BcUF9kkORyrB7SO5vj0z8iKqDWdlXpfUizCHZRnVN3K2KTnDSePPZj9BQIHhjvplJG2sgLHdf8p3TTbmh4V00rQs9xbu9st9xRge9MpWtIOeB0fC4j0IIrfrzqRhjcWO5GE7B3ZSlKVzWUpSlCEpSlCEpSlCFW1rMe+e0mfPfUgQbOqTMUtzZtDVvQGW1Eq2ACsK9KjGtb7F1DfZM+I0URm2m4jCl5C3kNFWHVA8s52HdjrW5o+x3rUh1DGiTY8SO8IaLq86hxbymHHVvcDITsclOVAqGcDfGx99f2K02Fyzwba2QhiMtMl5zCnpD6ylzjdUABnBGBjbur1CNoja1nbCTPcL56rfstkiW5tDvwuyloSVPHkkKGeFoHkO/r/LvoHLnXKsz6ZFrtzxIJLCEK/SRlB/Cuw3vik4oKuscS0XHe6rEjz4h3m5Xs0jJGc4/E1qamg++afu6AMrZZE1sAfajnjOP1eKumyBtWw/ItsKOt65vsx4i0KQ4t9WAtCgQpKED4lHGRgA1a6ShZRQmMnJ5P76LpE4l4IUY0BLEyzLiqILtvkKbAJyexd+kQfnxAeVSpTJIJA2AyT0A7yeX31Tll1A/puXdXLelmS3IbXGaMkOBvCHOJt4oBByB0J61tk6+1cSpSpT0Uq5kiNAR5AcLZx4Amtoqna0N5KYS0u5xcTYKcXC/acglSX7iwpwZBbint3AeWD2eU/vVHn9eQGwUxLfIexnC5DqGkn9VAUfvpD9nraAlVynqUcDLUJPCnP/FdBJ/YFddjTunYhw3AZWofakcTys//AGEj7qgatN/JBqG+W/C5NFPGcZKirmub88rhixIbfcEtLfX81E/hXKuczUd1S27OZeU3GDikLTE7JDaV4KviSgbbd9WglDTQCWm20Acg2hKB+6BXy6lDzbrLmVNvIU04knmhY4TVbirYWOuyMD65XQVTGnytVa2+9aqQymNAcecZjJCQ2mOh4NpJOAcoJx3b1vjVGqGce8w21pHPtIq2j80Y/CteyuOWbUK4biiEOOuQXOYByr4FH1x86nylHfOfWplTKyNwuwEHN1mpmZGctuCoizrVhRxKgLT3qjvBWPJLg/nXrPuVjvVvkR25KUPhPbMJkgtqDiBnAUcp3GRzruSIdvkZ7eLHc8VtpJ+eM1xpel7M8CWQ7GVuctqKkZ/Qcz+IrnG+nLtwBaVAE9NuDrFpC29E3gsiA6tRKoL4jvb7mO7tk+ABP7PylXtVtaZlgj3NCQXbXKQVLA392k4bUDj+9wGqoTHu1pujkKG7l5YSE8kofQU8Y4kuHHftnnVt227zNU6avlpuFpmRZjdneR2paWYkpSGylK2XDtxcQB4cnzPRpE0Akg4KbQNDXOLTg5CjvsxnlyJdbatR/Jnm5bWTyQ8OBYHqAf1vGrCqmvZ1I7HUaGidpcKUwR0yAl4fw1cvpVM1qIMqiR1F0+p3XZZKUpSRd0pSlCEpSlCEpSlCFB/Y4B2WqT17S3D0w/Wl7RGzKcvTg3VGmMqH6KEJZOK9vY46A7qlkndTVtdSPBKnkk/eK9b+kSLpqOG5jD7z7YJ6FaQR/I16m6F8g3M/pyqrXS+GWO9VHNIyi5DkRid4z/Ekf3HRn8Qal7RSApRUlKUDiUtaglCUjclSjtiqxs1wTZ5sgyEuFtTTjTiG8cXaJOU8zjnsfOvSXc73qF9MRlC+yzxNxGD8CQPtuKPPzNOYKpscAaOVEmonSTl4Nm83Upu2uI0TjYtKESXxlJlOpPu7ZB5tI2KvM7eBqPw7RqrVkj3x9xwtKOFTJqiGgkfZZTjfwCRjxFd+yaSgxeCRcuCXJGCGiMx2j4g/WPnt4dambbgAAHIAJAAwAByAAo8CSU7pMDstviIoRthz6qq9Q2L/AGYnWotOGU0tpmSlb7aQlb7K/pEFAyOHltvsat5mWzLjRZLJHYyGGnmgnHCErSFAbbbcvSopreH79ZFPpGXbc6JIwMnsl4bcHpsfSvHRNzMm0KhrVl23uFsAnfsHMrR8viHpXONnhzbe66SvMsAf2UpdUO+uaT8SvAmtpxytNxSck5rjq2nyVcQEfISgyWKE7V8lVeCnwnmPlyrCH21/VPxDmDzqnzaVUwN3yMwtfGBNrqG6vjKYnRJ7W3btpClDOzzBwD8uE1LYspMuLFkpx9Oy24QN8KIHEPnmuZqaP71aX1AArirRJGOePqKHyOfStXSsjtLc4wo/FGfUBnohz4xj14qkPHiU4PVuFNlPiUgf1bhSAmvMnnWSqvIqqK1qSOd2Ud1CBHnWSeARwr7JwjmQ2sK/Amrj0c4XLQhJOQ1KlIHkVcX86qLUqOO2pX1Zktqz3BSVJP8AKrS9n6y5YUOk5Lspxee/4GxT2lZuj39v+qw0Dt7Y3drhVDppsxdbQ2E7Bm4zo/oEvN4q6+6qbsae29oPEndIvF1d/VBeVmrk7qq34gt4zfb/AGrXTfKUpSlVxSkpSlYQlKUoQlKUoQqs9k0kM6ilx1HaXbH0o8VtONuj7s1nXN8Zj3+8s25QW8l1tLz2PhZeQ2lK0ozzUCOdcDTz6tP6xtqnjwiHdVwpBJwA24pUVaj4YOanOstH2qHcBemw6pNwlSHJLKyksIkqwviTgA4V8RwSd/Pb16kL3PDYzlwsq5ViMM3yi4blVO6H1KDrwXxP8TgWsEFeTurJ8asKxNwGoEVyI2Eh5tK3VHda18jxq8DnArj3yIZEHtkJ+KGc+PZrOFAY7tjWdJTAUSIKiOJB7drPPhOyx6bH1rq+VtBI4kbrJZPKaul3sxbkKaNubczXulzz+daCVd3KvQKqEPxEL+dmEob6LdWWnm3WXRxNOoW06NjlC0lKvuquLI+5YdQuQ5CuFtxxcB8nZOCr6Nz549DU2lzoUBoPTH0stnkDkuOeCEDc1XV9uUW5TzLjMraAbbbKlqHG4pGQFkJ2Bxjqal/HxVIEkYIITihY9wcxw8pCsyVLjxG+0lPssI3GX1hJOO4cz6Co1M1daGuJMdD8lQyMgBpvPgVZVj9WopGg3a8rce41OYVwuvyXSQCRnBKsqPyrtsaYgNgKkvOPqwMpR9G3nu6q/CmLJaib8ptgub4aan/OdcjotR/Vs9wnsY8dtJ5cQU4r5qOPurU/prUbigpp1xKh9UsMpHPuITUlRCtsfHYxWEkADi4OJX7SsmvmS8qO0HEJBJWlOOQwQT08q7SUkuwumkx1XFlbA54ZDFcnuuCZmsZDbiFKuK23EKQsdiSlSVDBGyK0YM262915uIVJcWeBxothZJRnYpIJyN6kzV4fayAygg9CpWx79q5fK5m5o+Bwvl/sxng4lD4hnnvv86rT2NDnNYPKm8PiOBEkYC+kaouzRxIjML7yULaV9xx91bzOqIDmA+y80e9BDif5Gthq5mU80y5Ha4XFcJ5q6E/ar7kWu0PBSlxGkk8y0OzOT1+DFQ9jXODC2xKT1LqZh2zxWJ7LUusyHNtkwR321hKW1lOcLBCx9lW/3Va2hiiFo20yXchIiyZrp/uJUtWfkKpibY2GWX5DDqgGk8ZQ5vtsMBQqaQLhqi1+zu7vXJxj3GVEZg2ADgMkNylKbXxFG3CEklOcnY8gN280LqdoiIsmmnshEf8AJNx6rg+z1tcvU0iYsZ7GJMlLONuN5SWxnH6R+VW/VfezGCW4V1uKkkGVIbjNE9W2E8aiPVWP1amtwudrtTaXJ8ptkqHE20PjfcT/AIbSd8ePLxrz/WCZ6ssYL2wrJB5WXK3KVBpmvxlSbfbk4+y5PWSfPsmCP4zXJc1tqhZPC7DbB6NxGiB6rya5x6NUvFyLINQwKz6VVydaapHOTGV+lEYJ/Ct6Pr26oI97hQnkZHEWS4w56YUpPzFZdolSBcWKwKlhVh0rg2zVVhuRQ0HVRZCjhLMzhSFqJ5Nug8BPy8q73IkHmOY7vOlUsEkJ2yNsV3a4O4SlKVxWyp32iW1UO+malJDN0ZRISrp27YDbo265AP61WhBfRq/RkZ4EKme7BK+pTPifCoYz9rGR4LFc/WNlVe7K+0yjimQyZkPHNakjC2h+kOXiBUQ9l+oRbbo7Z5K+GLdlJ93KjgNzkjhSP1x8PmE16FpFX4kDSD5m4+yU1UIN2ngr0b4VB5pxJwoKQ4nrggpUMVC1B+yXXIyewd4h0DrKv8xVq6utCoE339hGIs1ZUrhGzUjmpPkrmPXuqC36MiVGMkYD0VOcnAC2yd0nPXqKsVVTOmPxMeWu59FUqMmkqDTScHH791JWHm322nWlcSHUJcQR+ad9/wCdcW6anYicbEDgfkYIU99Zho9eHoo/d51FGrlc/dBbWnFdktz6qB9IoqOODPPHhUhtOnmmeCRcUhx7ZSGTgtt4/P7zVdNOyMl0mVKNNFSXkmNx0C5ca13y+umU+4tLazkyZRUeIf4aeZ9MCpKzpizMx3mSlbjzrSm/eHiMtqPJSEjYY9fOuqFADA5csAbAdwFZ4/Go0lTI42bgdlGk1J7/AJcBQS1SXrTcH4cgFAWssOg7BLiSQlW//wC3qUqcJO3+lcXU8MOuGa0PiaShuRjmoAABZ/A16WecZccNuHLzICV5+0nor/P/AFq96VM5oEUuL5CxXsFTEKln1XTrTuH9XT/xkfwrrcrTuH9XT/xkfwrptXfp3+yV0H6lnuFy6UrFUlX5bEL+txf+IT+6a7qzse7rXCh/1uN+mf4TXdKXFFCG0lbji0obQndS1qOAkCtqcgVTC5VLWwTO0DsnuPvds1NIUD2NvtT7yiORfUQltOfmfTxrw1ZcFjS/s8sDWS4u2xrm8gbqJdQW2Bjx4ln5VObzbE2PQGoGFcJkuxErlrHJTrrraMA9yfqjy8arqxKNyuczUU9tJgadhRC20rdCnmGkxoUUZ8Ugny8ak6jVCR5kHA4/fqn2nU3gQhp5PKl79ya0dZLXZ4obcuwiIW5kBTcZbuXFvOJ6qJPwA9NzywYG/IkynnZEl5x591RU446srWonvJrMmTJlyJEqSsrkSHVPOrOd1qOT8uQ8q8aT0tK2EF5+Y5JTN7r4Ss1isFSE/WUlI6cSgn5Zqbey5r6rFfIcbJwFoJ6gKBP3V9bVgG/CEqYaa1W7EUzAujinIZIQxIcOXIuRsFqPNvx5jy2EPrO/TnUeopmVDC14WzXlhuFeQIO4IOQCCDkEHqDSojoi6SpkN+C8lxaIBSmPI4SpHZHbsFL5cSegzyI5YpXntTTOglMfZNWO3C6l4yMY5jceYqpNeadXbJovEJHBCmPcTgaHCIsv6x3HIK5p8QatuvCXEiT4smHMaS7GkNlt1B2ynoUnoRzB6GpGn1hpJd3Q8rSWMPFly9JX+FrOzPWy5YNyjMobnJVgF5H1US2vHlxbbHwUM1bfYd6duDkJMWa3CaeebjOyo7kdMhLauAvELGN+fXnWblbr7oi9x5MR5YCVqdt0wJwh5obKbcTyzjZY/kc1bNnvVg15ayy8lLc5lIVJi8X00dwbdtHVzKP/AAee/pNNUhzQL+Q82SOeHPiNHmHF1S86zOQ2W3mFqX2YHbkc0qz9ZIHSu1ZbwJiExn1D3psAJJ27ZI/nUhvFin2d0pfSHIq1cLUlKfonArI4Vjorw+Wag9ytjsRz32GSGwoKKU54mlA8x4VM1ChifGJYuEibJ8SDTVOHdCpkFcu+slzhBP5oJriWq7onIDbhCZSB8QOwcx9pPjXTWrKSO/76rcUG6YMd3SGdkkDzG8ZWuoBwLSoBQWFBaVciDzzUUdQ9ZbgFJyW85Qfz2zzSfEV3Z11iQuJIPav8uzQdkn/EUNq4Sk3m9LSrgy2jIRsEMoB6Jz/rV2rnxnayLLh2TzTIpI2l0uGHuu25erW2lKg6XFFIVwNpyd+iids1oqu6ZyuwQx2aE/S8Sl8SiU/DjYAda5luYhrl9hNCwDlIHFwjjBxhXXHrUhlRoseOkMstt/SoGUpHERwq2KudcHzVFRC5xIAH3UlkNLSztYGkuPB6LQpWaUi6J8gdkNEOsIC3m/iQkjIJ5cqktmvVzsUpudedK3NxKUJ93ebaeaSzxJOVhDiCgkjl8Qxv6aWlm2ndS6cbcSFoVNJKVAKSSllxQJB7ufpU41xrxiytv2q0Oocu6gW33kEKbt4Oxztgudw6cz3HUNF7lR307HvD3NuQo5rLW7OpIkKxWBmUv395ozA832bqlpXluMlJJHPClHPQdM1m+W5rT2m7JZmykvSpbkuc4kf751pvBOe4FWE/o1taG0w5CSL3c0KNwlJUqKh3JWw25zcXxb8a/uH6W2PaDntbBjl7vO8s9q3tSSSsbPWNp2HAyfcf8TAR7WbioPSlZp76qPwtu22+TdZ0WBHUlCnypTjqgVBplAytZTtnA5DO5Iq07dp+x2xtKI8RpbgAC35KEvPuK6qUtYPPuAA8BUL0IpsXmUCRxOW5aW894eQpQHp+FWTyqoa3VSiURNNgp1OwbbkLVft1rkoLciDDdQc7LYa2HmBn76guo9JJgtuXC1haoiBxSI6ipa2E/ntqJJKe/O47yOViUISQpKgFJUClSVAFKkqGClQPQ8jSqlr5qd4IJIXZ8bXDhUYkKWptCEKWtxQQ222Cpa1nkEJG5qZ2XRLz3Zyb0VNNHCkwW1YdVvn6d1J2H90HzPSpXa7BZrQp1yJH+ndK+J508boQpRPZoUeSRywO7eurTWs1tzxtgwO/VcmU4GXLzZZjxmmmI7TbLDSQlttpIQhA7gBtSvSlVxzi43KlWA4SlKVhC1LjboF2iOwpzQdYc37ltrA2W2roodD+IODT13sOoNHzmZsR57sEPZhXCPlBCvzHgM4URzBJB358hdlfDjbTzbjLzaHGXUlDrbiQpC0n7KkqBBFNdP1J9GbHLey4yRCT3UV057SLTdWk23UyGI0hwBoyFJzCkg7fSg7IPf8AZ8uQ6lx0XFeT7zZ30Bt1BWmO6rjjuJUMgtOjJAPTmKit+9nDD5ck2N1LDisqMOQo9iTnky5uR4AgjxFReLdNeaLdDIVLishe8eUntoLhO54ArKN+9JBq70uoRzttE7nkJPU0TZMSD6r7v2l7vZ3VS0RJDKWyXFhKSpDeNyptxOQU+tc5y+3GSwiK0gJfX8C3W/ruZ6JHIeNdjUftBvWorezblssw2iorm+6rcxLKd0JIXkhI54ycnyr0i6f0PNssRTOqokfUHCXXhN7RiJxqwQwe0QCOHlxDOd9sHbs1oBG7ouHwrSAJPMRxdc2DY228OzsOO/W7LOUJP949TXbACQEgAJAwABgAdwFadouVojS3LZqVbwSlYQi42yQ3IaQOhcCAoKR1yk57wek/RYNBKCV/7SNKSoBSf/UICcgjI6ZqyQVtLC3yjKSVVDWTvu4gj3VXXyATmcwMEEduEjBznZz+RoxcBMgpacV+UMuN8QP20BKgFD+dWt7h7LYgKpN2tr6cEKS/c23QQeYKGl7/ACqq7pEscO+SkWSe1NtzjS3mFNheWApYyysrSMlPQjORjrnC2pqW73GHAcE1pqZ/htbPktOF50pSlyZIZMyIPeIbzrMpsYZdYJS6lTn0fwKSM5IJG3fUw0hohbC2brfGx2wIdiQnPi4Fcw7IH53cOnM77Dh6dGb/AKfyAfy5B/cXVwVXtYrpIAIo8XHKlQRh3mPROfmah2vY5XBtUoDZiU8ys+DyOJOfVNTGtG7QE3S2zoJwFPN5ZUeSX0fE2fnsfA1WaKXwZ2vKmSN3NIVM1mvpaHG1uNuIUhxtam3EK+slaTgpPjmvivRrg5CUrZhTJNvlRpkZQS9HXxo4s8JBHCpKwMbEEg79atSz6htd5QgNLDMvADkR5QDgV17JRwFJ8hnwFVFTcEEbEEEEbEEb5BFLq3T2VYzgjqu0cpZwr07/AA79qVV1t1jfYAS28tM5hOBwSyrtUjH2Hk/F881M7bqywXHhbLxhyDt2U1SUJJ7m3v8Adn1x5VUqnS54M2uPRTWTNcu9SmCMeQx5HelKyLcrtylKUrCEpSlCEpSlCE+fKvlxtp5tTTzaHWlDC23UhaFDxChivqlbAkG4WLKMztDaRnFahCVEcV9uA4WgD4Nqy3+7XAk+y+Kon3S7vIHRMmOlz5qbUn8KsWlMItUqosB/3XMxMPRVO77Mb6k/QXC3Od3H27f/APBrWPs11Vy7S1nHX3hwfi3Vw0qWNcqR2+y0NOxVE17M9SKILsq2Np70uPLPyDY/Gvq5aMVp6G1PduCZLrslETs22ShCQtCnOLiUok/V7utW3/5qKa7/ALGh/wDVGf8AsPVJo9WqKidsbuCVo+FjWkhVtSs1ird0UFdXTv8Ab9g/55H8Cqt/u8qqDTv9v2D/AJ5H8Cqt/u8qpuv/AJrfZT6b5SlKUqvKUoZq3TTksrutvbKpPD+WsIGVPhI/3zYA3WBsodfPnX3+eDV6eNRu+aTgXUuSYykxJ6slSwn6B5Xe8hIznxHqDVl07VhGPCm47qJNBc7mqr6Vu3G1XS1OFufHU0OIhDo+JhzxQ6Ph9Nj3gVpVamSNkG5pUIgjlKc9qUroscrtWrUl5tJQhp7towI4o0kqW3j/AAz9ZPofSrCs2obXeQEMqLMwDK4jxHaEAbqaPJSfLfvAqo6+kLW2tDjalIcQoKQtBKVpUORBG+aVVemRVIuMOXZkzmeyvKlRTTeqmZzSo11daamMIB7dwhDclGQOIn88fa6Hn0pVNlo5YnlhacKeJGkXupXSlKhLolKUoQlKUoQlKUrKEpSlCEqKa7/saH/1Rn/sPVK6imu/7Gh/9UZ/7D1MNM/VM91pL8hVb1is0r0McJSupp3+37B/zyP4FVb/AHeVVBp3+37B/wA8j+BVW/3eVU3X/wA1vsp9N8pSlKVXlKSlKVjhC+XG2nUKbdbQ42sYWhxKVpUO4pVtUYuOibPK4nIS1wXjk8LY7SMT4tK3HooeVSmlSYaqaA3YbfvstHMa/lVHc9OX21cS345djJ5yYoU4yPFYxxJ9R61x8gjIIIIyCDkY8MVen+o9Kjd60lbbilx+GlEOduoKbGI7yjue1bGwJ/OH31ZKTXA4hs4t6hRX09stKq+lejzL8Z56O+2pt5hxbTrauaFoOCDXnVmBBFwofGEyB3etKzSsFt1m5V50pSvLU4SlKUISlK83340VlcmU+0xHRsp15XCnOMhIHMnuABNbBpcdoyUHC9Nq5t1vdosyR78/wvKAKI7Q45BSTjjUjonrkkZxtmoneNcOudpHsqVMoOUma8kduocvoWyMJHicnyqFrW44tbji1rccUVrW4SpalHmVKO+asVJojn+abA7KJJUAYarwQtDiELQoKQtKVoUncKSoZBB7q+qgmkNRNNIatE91KEpJEB91WEAE5LC1HYdeAk+HdU7OQcK2PcdjSerpH00hY4Y6KQx4flKievFJFogpzuq5pUkd4Qw4D+IqWgKVskE57qrXWl2YnTI0KKtDse3hzjcQcoXJcIC+AjYhIAT55qXpELn1LSBxlaTu2ssopSlKvqVrq6bBVf7BgcpoJ8ktrUat/u8h+FVZo1hT2oIa8fDFjy5KvAlHYJz+191WnVM11wM4b2CYU3ykpWQCo4SMnoBXOut3t1mjpkTS6e0K0MNsoKlurSM8IJHCB35Poaru86ru93DjCT7pBXlJjMKOXE9z7uyleWw8Kg0enS1WRgd10klDMdVMLvq+023tGYvDPmj4SlpWIzR5fSOjmR3Jz51t6evaL1C7RYQmYwQ3LaRsAo/VcQDvwnp47edSbchyrct1xmWuW1MiL4XEZSpKvqOtnGW1juP4gHpVgl0SPwdjPm7qMKh2654V0UrkWfUFqvLaAy4lqZgdpFeWA5xdeyJACh3Y38O/rnbIO3ntVSlhfE7a8WKnNcHcJSla82bBtrBlTnkssAEjiPxukfZZRzJPLatGsc87Wi5QXAcqu9ctNt3zjQAFvwYrruNsrAU3k+gFReuheLm7d7jLnrTwB1QSy3kHsmUDhQjI28/EmufXo9JG6KBrH8gJU8guJCUpg0qYCAtLK9KUpXlKcpSlKEJUI15bpLiYVzQpxbDKfdn28koaKiSh5KeQB+qr076m9fDrLL7TzD6EuMvIU2625ulaFbEEVLo6j4eYSALR7d7bKjznOPx50rt6gsEmyyOIBbtveX+TSMfVJ37J7GwV3dDjbuTw69EhmZMze3gpW4EGxTY866kTUOo4LaWYtzlNtJACWypLiEgdEpdSrHpXMrFZfGx+Hi6wCRwupK1BqOahTUq6S3GlDCmwpLaFDlhSWgkGuXt+A+VKUMjZGLMFkEk8pSs10rLZpV7mCO1xIitFKp0gfVZbO/CknbjV0HryG+ZJGxNL3GwCALmwUu0Hb1NRZtzcSQZixHj5GPoGFHiUPAqJ/ZqZ15sMMxmGI7CAhhhtDLSEnZKEDhAr0rzqsqDUTOk7prG3a2y0btbY92gSITuE8eHGXCD9C+jJQvb5HwJqn5UaTDkPxZLZbfjuFt1J3wob7EdDzB7j41d1cHUOnY96aDjZQ1cGE4YeIPA4jOeye4d8c8HBIz1G1MtL1D4c+HJ8p/suM0W/IVU0r3lRZkF9yNLYcZfbOFIcGMjOOJB5FJ6EGvGro1wcNwyl5FsFY6g9247we8V1o+o9SxEpQxdZYQBgJcUl0Adw7ZKj99cmlaviZJ84ushxHC7rmrtWOAj+k3EAgj6FmO2fPiSjNciRJlS3C9JfefdIxxvuLcXj9JZJrxpWjIIozdjQFkuceSlKUJCQVKOEjmTXbAWqehPlSpnp3R4ltKmXht1DLqMRYwJbdwSD2zvUZ+ynnvk4zgKUTatTxPLCeFJbA5wurBpSlUNMEpSlCEpSlCF8OssyGnWX20OsvJKHW3EhSFpPMKBqEXXQxyt6zvJAOVe6y1HY9zT2OXgR61OqVMpqyWmN4z9FzfG1/KpiXarxBJEuBLaA+32Kltnycbyk/OtAuNAkFaQRsQpQBHoavbflnavJceK4SXI8dZPMuMtqJ+aaex6+bedn2KjmmHRUd2rPLtG8/pJ/zrZjwrjMUERIUt8k4+hYcUP2scP31c6YsJH1IsZP6LDQ/AV7Du6dw2HyrL9fFvIz7lYFL6qurZoa4yCly6vJiMdWY6kuSVjngrHwJ/e/nU9hwoNvjtxYTCGGEZIQjqo81KUdyo9Sa2KUkqq+aq+c47KQyJrE76UpUBdUp4UpWULTuFstl1Z7CdHS6lOezUfhdaJ6trHxD8PA1CLjoSe0VLtkluQ3zDUkhp8eTiRwH5CrDpU6mr56bDDj1XN8bX9FTEq1XmESJVvmN4+12K1tnyWjKfvrQU42k4WpKVdyiEn5KxV7Db+eOteamY689oyysnmVtNkn5inTNfP9bPsoxpexVGl1kc3W/wBtP+dejSXHyAwh10nkGW1u58uAGrrTEgpORFijyYaH4CvZKUoACAEAbAICUjHkkAVu78QNt5Wf3QKXuVU8HSupZxSfczFbOD2k89lgHqGxlz7vWppZ9IWu2LRJfPvsxB4kLdQAwyrvaa338SSfKpLSlVVq084sDYei7tgY3Kb0pSlBXZKVilZQs0rFKELNKxShCzSsVmhCUrFKELNKxShCzSsUoQs0rFKELNKxShCzSsVmhCUrFKELNKxShCzSsUoQs0rFKEL/2Q==;" parent="1" vertex="1">
          <mxGeometry x="591" y="277.16" width="67.37" height="85" as="geometry" />
        </mxCell>
        <mxCell id="F_4bH8baSX07HVHHKdEK-7" value="" style="shape=image;verticalLabelPosition=bottom;labelBackgroundColor=default;verticalAlign=top;aspect=fixed;imageAspect=0;image=data:image/jpeg,/9j/4AAQSkZJRgABAQAAAQABAAD/2wBDAAsJCQcJCQcJCQkJCwkJCQkJCQsJCwsMCwsLDA0QDBEODQ4MEhkSJRodJR0ZHxwpKRYlNzU2GioyPi0pMBk7IRP/2wBDAQcICAsJCxULCxUsHRkdLCwsLCwsLCwsLCwsLCwsLCwsLCwsLCwsLCwsLCwsLCwsLCwsLCwsLCwsLCwsLCwsLCz/wAARCAEPAdsDASIAAhEBAxEB/8QAGwABAQADAQEBAAAAAAAAAAAAAAYCBAcBBQP/xABEEAABBAEBBAUJBgUBBwUAAAAAAQIDBAURBhIhMTRxc7GyEyIyNUFRcnSzFDNhgYORBxYjQsEVJDZSodHw8VNigqLh/8QAGwEBAAIDAQEAAAAAAAAAAAAAAAMEAQIFBgf/xAAlEQEAAQMDBAIDAQAAAAAAAAAAAQIDBBEhMgUSMUEioVFxwRP/2gAMAwEAAhEDEQA/AOuAAAAAAAAAAAAAAAAAAAAAAAAAAAAAAAAAAAAAAAAAAAAAAAAAAAAAAAAAAAAAAAAAAAAAAAAAAAAAAAAAAAAAAAAAAAAAAAAAAAAAAAAAAAAAAAAAAAAAAAAAAAAAAAAAAAAAAAAAAAAAAAAAAAAAAAAAAAAAAAAAAAAAAAAAAAAAAAAAAAAAAAAAAAAAAAAAAAAAAAADgfnJJHEx0kj2MjYm8973I1rU96qvARyRyNR8b2vY7ijmKiov5oa90a6a7s6Tpq/QAGzAAAAAAAAAAAAAAAAAAAAAAAAAAAAAAAAAAAAAAAAAAAAAAAAAAAAAAAAAAAAAAAAAAAAB5qgHoPxnsVqsbprM0UMTU858zmsamnHm4nHbZ4d9qOpTZNZ3t5XTIiRxIjU183f4r+yENy7Rb5zokt2q7nCNVRqROf2zmx9q1j6VRFngduPnsLrGiq1HeYxv+VQqamRpXETyUqbyc2O816fkpyjaj/eDM/MJ4GlTKyNLcVWp8rmJjxVdmm7T4al7KZbJuR1+3NNx1RjnI2NvH+2NvmJ+xYVrVuqrXV5XsXRNURdWr1tXgQK/9/uW6cm9Sdx5y/driYqiZ1ensWbcxNMxGimp7RMdusts3F5eUj4t61bzPuRTQzsSSKRr2LyVqoqHPj9YLFis/wApBK6N3t3V4L1pyUt4/Vq6Nrsax9qOR0eive1Ok/ToIJqntEvmstx8OXlYk4datPvQWa1liPhlbI1fa1eXWnM79jKtX41ol56/i3bE6Vw/cDVAWlcAAAAAAAAAAAAAAAAAAAAAAAAAAAAAAAAAAAAAAAAAAAAAAAAAAAAAAAAAAAGLnI1Fc5URqIquVyoiIie1VU0LWQi/0/IW6U8EroKs8sbmObIxHsYrk1RFNKq4pjdmKZq8NyWWGKN0sskccbOLnyuRjGonvc7gfhUyGOvNR1WxHM1eKbi6ap70R2i6HGb2TyeTk8retSzuTi1rnaRs19jI2+Yn7FHinObToOaqtckbVRWroqLr7FQ493qcUbxTs7VrpU1xpNW/0+DnLFmzlMl9omllSO3YZGkr1cjGNeqI1jV5aHmI6fB8EvhU1rbnOt3HOVVcs8qqq81XeU2cR0+H4JfCpy7lffEy69qj/PSFQiqioqKqKnFFTgqdSoS2Ve9+SvPe5XOWVNVcuqr5qc1Kkk8n6wu9ovchTsTOswt3qY0iWmv+f8lunJOpO4iFLZnoR/AzuNsjxBj+ZZAAqrQZxSzQvR8Uj2PT2sVUVeswBmJmmdYlrVTFUaTvD71TaKVmjLke83/1Ik0cn4q3kffr3Ktpu9BK16e1EXzk62rxIIyY+SNyPje5j05OYqoqfmh18fqt23tc+UfbjZPSLdze38Z+nQvceoStTaCxFo203yzeW+3RsidfsU+/Uv07jdYZWq72sXg9Otq8Tv2M21f4zu89fwr2Pzp2/LcAQFxUAAAAAAAAAAAAAAAAAAAAAAAAAAAAAAAAAAAAAAAAAAAAAAAAAAAPFTvT/qegxI41mc7mMnNZis2VSuyaVjK8PmQ6NcqJvNTiq9Z9CBz2YdFYqs1x7kXdXTVFZy4E3Z6Ta+Yn+opRxep2/IL9M8hk3Kqp1mfb2eLbopjSI9Jf3FZi1RaFL4NP/spJ+4rMV0Gp1O8RBe4rFjkmbXSbfbS+JTYxPrCr+p4HGvZ6Tb7eXxKbOJ6fV/U8DjeeEoo5wqSTyfrC72i9yFYSeT9YXe0XuQgseZWb/GGmvItmehH8DO4iV5Fsz0I/gZ3Gcj01x/bIAFZaAAAAAAzhVUngVFVF8rHxTgvpIYGcX3sHbR+JDe3OlcftHcj4Vfp0NOSdQCckB76l88AAbAAAAAAAAAAAAAAAAAAAAAAAAAAAAAAAAAAAAAAAAAAAAAAAAAADEjg1npNr5if6ilHF6nb8gv0ycs9JtfMT/UUo4vU7fkF+meNyPMft7bG/iX9xWYroNTqd4iT9xWYroNTqd4iK/wAUtjkmbPSbfby+JTZxPT6v6ngca1npNvt5fEps4np9X9TwOJJ4IqeUKkk8n6wu9ovchWEnk/WF3tF7kILHmVm/xhpryLZnoR/AzuIleRbM9CP4GdxnI9Ncf2yABWWgAAAAAM4vvoO2j8SGBnF99B20fiQ2o5QjucJdDTknUAnJOoH0CHzwABkAAAAAAAAAAAAAAAAAAAAAAAAAAAAAAAAAAAAAAAAAAAAAAAAAAYkcGs9JtfMT/UUo4vU7fkF+mTlnpNr5if6ilHF6nb8gv0zxuR5j9vbY38S/uKzFdBqdTvESfuKzFdBqdTvERX+KWxyTNnpNvt5fEps4np9X9TwONaz0m328viU2cT0+r+p4HEk8EVPKFSSeT9YXe0XuQrCTyfrC72i9yEFjzKzf4w015Fsz0I/gZ3ESvItmehH8DO4zkemuP7ZAArLQAAAAAGcX30HbR+JDAzi++g7aPxIbUcoR3OEuhpyTqATknUD6BD54AAyAAAAAAAAAAAAAAAAAAAAAAAAAAAAAAAAAAAAAAAAAAAAAAAAAAMSODWek2vmJ/qKUcXqdvyC/TJyz0m18xP8AUUo4vU7fkF+meNyPMft7bG/iX9xWYroNTqd4iT9xWYroNTqd4iK/xS2OSZs9Jt9vL4lNnE9Pq/qeBxrWek2+3l8Smzien1f1PA4kngip5QqSTyfrC72i9yFYSeT9YXe0XuQgseZWb/GGmvItmehH8DO4iV5Fsz0I/gZ3Gcj01x/bIAFZaAAAAAAzi++g7aPxIYGcX30HbR+JDajlCO5wl0NOSdQCck6gfQIfPAAGQAAAAAAAAAAAAAAAAAAAAAAAAAAAAAAAAAAAAAAAAAAAAAAAAABiRwaz0m18xP8AUUo4vU7fkF+mTlnpNr5if6ilHF6nb8gv0zxuR5j9vbY38S/uKzFdBqdTvESfuKzFdBqdTvERX+KWxyTNnpNvt5fEps4np9X9TwONaz0m328viU2cT0+r+p4HEk8EVPKFSSeT9YXe0XuQrCTyfrC72i9yEFjzKzf4w015Fsz0I/gZ3ESvItmehH8DO4zkemuP7ZAArLQAAAAAGcX30HbR+JDAzi++g7aPxIbUcoR3OEuhpyTqATknUD6BD54AAyAAAAAAAAAAAAAAAAAAAAAAAAAAAAAAAAAAAAAAAAAAAAAAAAAAMT4HBrPSbXzE/wBRSji9Tt+QX6ZOWekWvmJ/GpRxep2/IL9M8Zf/AK9tjfxL+4rMV0Gp1O8RJ+4q8V0Gp1O8Sml7ilsck1Z6Tb7eXxKbOJ6fV/U8DjWs9Jt9vL4lNnE9Pq/qeBxJVwRU8oVJJ5P1hd7Re5CsJPJ+sLvaL3IV7HmVm/xhpryLZnoR/AzuIleRbM9CP4GdxnI9Ncf2yABWWgAAAAAM4vvoO2i8SGBnF99B20fiQ2o5Q0ucJdDTknUAnJOoH0CHzsABkAAAAAAAAAAAAAAAAAAAAAAAAAAAAAAAAAAAAAAAAAAAAAAAADxVROJ6AOHZOjfo2bDblWaDfmldG6Rq7j0VyqisenD/AJn3IU1xDGpqq/YFXgmvDc58Dp8sMFhjopoo5Ynp5zJGo5q9aO4HzrOKqQYvJVcfUhY6WnYhiYxEbq57FajdVOHe6bNU601beXbs9V7I0mnfw4whWYtEShS09saO/NVJievbpyrBaglhmbwWOVqtVfxT2KVGM6DR7Jpxr9MxGku7j1RM6x4TFnpNvt5fEpsYr1hV/U8Dj8LXSbXby+JTYxHT4PwbL4VNp4taeSpJPJ+sLvaL3IVhJ5P1hd7Re5CvY8ys3+MNNeRbM9CP4GdxEryLZnoR/AzuM5Hprj+2QAKy0AAwAATVXI1Nd5eSNTVV6kQzG/hidtwyh4zV0RNV8rFy5+kh9Sng71ndfN/s8S/8Sayr+XsKGni6FPjFGjpPbJJ5z/3U62L067cmKqtocfL6pZtxNFG8t5OSHoQHrIeRAAZAAAAAAAAAAAAAAAAAAAAAAAAAAAAAAAAAAAAAAAAAAAAAAAAAAAAABpXcdj8jF5G7WinjX2SNRVavva7mn5KamP2fxONbG2GNz0i4RLO7yisTXXRNT7B4pDVaoqnWY3SU3K6Y7YnZxHLtezKZVsjHxuW7YejZGq1VYsiqipqe4j1hB8E3hU7BfxeMycXkr1aKZuioivb57PhennJ+5KfyP9mvRWMfc/2dEe10VlFc9iObp5j28/zQ42RgXI1mjd28bqNG0XNmkSeURft9xFRUXyic+H9qHWqeEoVt18ieXlTjvyJq1F/9reRzPaj1/me3T6bSlODVYp7653n0vU9QoyK+yiNo9vir/n/JbpyTqTuIj/r/AJLdOTepO4pX/EL+P5l6AetRz3IxiOe9eTWIquX9irETM6QtTMRGsvAiOc5GNRznLyRqKqr+SH2Kmz9yfdfZX7PGui7rdFlX8F9iFFUx9Km3SCJqO/ue5N6R3W5eJ1cfpl27vX8YcjJ6ratbW/lP0nKeBuz6PsL5CJeOnOVfy5IUNPG0qTU8jE3f9sj/ADpF/wDkpuhNT0GPhWbHGN/y85kZ17I5Tt+HvEAF3RTAAZAAAAAAAAAAAAAAAAAAAAAAAAAAAAAAAAAAAAAAAAAAAAAAAAAAAAAAAAAAABogAHikBtHsfk7Vu5kqEsczp3eUkrv0jeio3d/pu9Ffz0OgHhDdtU3Y7aktq9VZq7qHB7FezVldDZglhmauixytVrufs14FoxskisZGxz5FRN1jE1dy/AubuOx2RiWK7Winj9iSNRVb+LXJxT9zKrSqU2oytCyNunHdTivWq8TkXOld9UR3bfbs2+r9lOvbv9J2ns/Zl3X23+RZ/wADOMi/nyQoatGnTZu14msVfSVeL3dbl4m0DoWMO1Y4xv8AlzMjMvZE/Kdvx6e6IAC6qAAAAAAAAAAAAAAAAAAAAAAAAAAAAAAAAAAAAAAAAAAAAAAAAAAAAAAAAAAAABQPlZvO4rAVY7mQfI2OSZII2xM8pI96tV2jWoqLw0XU361iC3Xr2oHI+GxEyaFyf3RvajkUkbcMO0O2CUZWpJQ2excy2Wr5zFvZJvk0avs1azj+Z+uws80dC/grKr9q2evTUF3l4urq5XwvT8NNUT4QK/UakHjsjtxnZs9Wp3KVKvjsvkKy3pazJ5H7kn9KtFCm61GtTTec7VV1PMZk9u8y7I4mOalSt4azJVyWVdCk/l37y+TZBWXRicOLlVfcBejUmdl8rl7kuexeYdDLfwtxsD7FePycdiKRu/G/c9ink9Hb+y+1MzOY6i3fl+yVYKDbEaxo5dxZ55/PVVTTXdagFPqg1JbB5TL7RbN/aoJoKWW35arplh8tBHNBLuuekTl/uT8fb+B82tb2zj2ooYV+arZCOKJbuZ8lj4q7K0DkVI41c1XO338FTj/y5hd6jUkruT2gyecu4LBWK9GLFw15MnkJ4Esv8rOm+yCCN3ma6cV1/wDPlTJ7Q4vO0MFnLFe9DlYbD8bfggStJ5aFFe+GeNrtzly0/wDAV2oIWpkttcxf2lx9GzTp18ZmLVdchPWbPIyNq6RVoYNUauicXOd7z6mzWUy89vaDDZd8Mt/DTV0WzA1I2WYLDFkjesacEX3gUquRqKqroiIrl6k5kiz+IOy8iK6KPLSNRVbvRY6w9qqi6LorU0Kub7mbs5PCpzTYzaajisDBVkx+bneyxbe59DHyzw+fK5262RujdfeB0Gjk6eQox5GNJYqz2SSKtxi13MZGqo50jZOScFPgu292a3pVgjyluvEqo+3SoTy1EVOekiImqfkae3dx9nAYirA6aBNoMljab0kRY5WwT6SOa9F5Ly1QsatWtSr16lWJsVevG2KKNiIjWtamiJogHzZ9ptnq+Nq5d1xH0bb/ACVR0MckkliTVybkUTU31VNF14ew1cftjgchdix6NvVLkyK6CHJVZKzptE10jVyqmp9xlWpG2JrIIWpFI+SJGRtRI5JN7ecxETgq6rr1kZtSjcptNsViajUfdoXP9XuvRNUq043Nd/Uc32v00RPxT38QugEAAAAAAAAAAAAAAAAAAAAAAAAAAAAAAAAAAAAAAAAAAAAAAAAAAAAD8bM8VWvZsy6+Srwy2JNOK7kbVeuiH7BQOdbNbPX8rRnztjM5rHWc3asX5IcdOyBnk3PckW+isVddD9K9GfZbbHFqt29dq7SVpalie67ys32yvo6NZHtaictETrU6Ch4qKBH7D6p/OmqOTXavJqm81WoqKjNFTU92TRUzX8RlVF0XOs0VUXRdIvZqV+ijQCQ2bRybTfxFVUciOvY9UVyKiLpAqKqL7iax02zEy5F+1zLlraVchYatKVLj5d3yipDDShj0Zuqmmh1TQbqa66Jry104/uBzrZXIPwGxGWvyVpVlp5DIIyurXarK6ZsTWKicdEcui9R++yWZ2ZpQsimyLrGezNtJ8jJ9lt/1LcvFImvdHu7jPRTj4i+0UaKBBpdh2V2p2knyrZYsZn0qWq15sT5IWTQM8m6GRY0VU5r7O8zZbj2p2o2euYxkz8RgGXZZ7745I4Z7NiPyTYYfKaKunBVXT/8AblW6oqKiKi+xeQ0VE0TRETkickAj9jUX/Uv4iaoqIu01lU1RU11bzTU9wmv86fxAdo5GrFhER267dVUhfrovIr9FGgGMv3U3s/pv4+7zVOabGbVbP4bBQUL81qO0yzbe5jadp6NSSVXJ5zWaHTvYOIEdtBD/ADbs1Fbwj3vmgtR5GgkjHROlmrPcxWbsqIqKvHTh3nlX+IOzqwMTJfa6ORa1G2KT6ll0rZk4K2NGtXX8Cx0G6mqLomqcEXRNf3AkcxtfNj8FWybcbaht5GSWGhWuRvR8aIrt2a02NFVqaaOVPxPi7P5/YnCR2Zpsjeu5bISJNk78mPub88vsYzWPgxv9qf8AadIRFPV1A8Tkh6E4IAAAAAAAAAAAAAAAAAAAAAAAAAAAAAAAAAAAAAAAAAAAAAAAAAAAAAAAAAAAAAAAAAAAAAAAAAAAAAAAAAAAAAAAAAAAAAAAAAAAAAAAAAP/2Q==;" parent="1" vertex="1">
          <mxGeometry x="-91.61000000000001" y="191.5" width="140.22" height="80" as="geometry" />
        </mxCell>
        <mxCell id="F_4bH8baSX07HVHHKdEK-10" value="&lt;font color=&quot;#ffffff&quot;&gt;Register / Deploy&lt;br&gt;&lt;/font&gt;" style="text;strokeColor=none;align=center;fillColor=none;html=1;verticalAlign=middle;whiteSpace=wrap;rounded=0;" parent="1" vertex="1">
          <mxGeometry x="382" y="353" width="60" height="30" as="geometry" />
        </mxCell>
        <mxCell id="F_4bH8baSX07HVHHKdEK-11" value="&lt;font color=&quot;#ffffff&quot;&gt;Data Versioning&lt;br&gt;&lt;/font&gt;" style="text;strokeColor=none;align=center;fillColor=none;html=1;verticalAlign=middle;whiteSpace=wrap;rounded=0;" parent="1" vertex="1">
          <mxGeometry x="-51.50000000000003" y="353.5" width="60" height="30" as="geometry" />
        </mxCell>
        <mxCell id="F_4bH8baSX07HVHHKdEK-12" value="&lt;font color=&quot;#ffffff&quot;&gt;Front end&lt;br&gt;&lt;/font&gt;" style="text;strokeColor=none;align=center;fillColor=none;html=1;verticalAlign=middle;whiteSpace=wrap;rounded=0;" parent="1" vertex="1">
          <mxGeometry x="594.6800000000001" y="367.66" width="60" height="30" as="geometry" />
        </mxCell>
        <mxCell id="F_4bH8baSX07HVHHKdEK-13" value="&lt;font color=&quot;#ffffff&quot; style=&quot;font-size: 24px;&quot;&gt;&lt;font style=&quot;font-size: 24px;&quot;&gt;Simple MLOps on AWS concept&lt;/font&gt;&lt;br style=&quot;font-size: 24px;&quot;&gt;&lt;/font&gt;" style="text;strokeColor=none;align=center;fillColor=none;html=1;verticalAlign=middle;whiteSpace=wrap;rounded=0;fontStyle=1;fontSize=24;fontFamily=Comic Sans MS;" parent="1" vertex="1">
          <mxGeometry x="109.00000000000001" y="138" width="411.39" height="30" as="geometry" />
        </mxCell>
        <mxCell id="w0s_Ixj0cFRI1buppDWQ-2" value="" style="shape=image;verticalLabelPosition=bottom;labelBackgroundColor=default;verticalAlign=top;aspect=fixed;imageAspect=0;image=data:image/jpeg,/9j/4AAQSkZJRgABAQEASABIAAD/7QBqUGhvdG9zaG9wIDMuMAA4QklNBAQAAAAAAE0cAVoAAxslRxwCAAACAAAcAnQAOcKpIEZ1bm55R3JpZWYgLSBodHRwOi8vd3d3LnJlZGJ1YmJsZS5jb20vcGVvcGxlL0Z1bm55R3JpZQD/4gxYSUNDX1BST0ZJTEUAAQEAAAxITGlubwIQAABtbnRyUkdCIFhZWiAHzgACAAkABgAxAABhY3NwTVNGVAAAAABJRUMgc1JHQgAAAAAAAAAAAAAAAAAA9tYAAQAAAADTLUhQICAAAAAAAAAAAAAAAAAAAAAAAAAAAAAAAAAAAAAAAAAAAAAAAAAAAAAAAAAAAAAAABFjcHJ0AAABUAAAADNkZXNjAAABhAAAAGx3dHB0AAAB8AAAABRia3B0AAACBAAAABRyWFlaAAACGAAAABRnWFlaAAACLAAAABRiWFlaAAACQAAAABRkbW5kAAACVAAAAHBkbWRkAAACxAAAAIh2dWVkAAADTAAAAIZ2aWV3AAAD1AAAACRsdW1pAAAD+AAAABRtZWFzAAAEDAAAACR0ZWNoAAAEMAAAAAxyVFJDAAAEPAAACAxnVFJDAAAEPAAACAxiVFJDAAAEPAAACAx0ZXh0AAAAAENvcHlyaWdodCAoYykgMTk5OCBIZXdsZXR0LVBhY2thcmQgQ29tcGFueQAAZGVzYwAAAAAAAAASc1JHQiBJRUM2MTk2Ni0yLjEAAAAAAAAAAAAAABJzUkdCIElFQzYxOTY2LTIuMQAAAAAAAAAAAAAAAAAAAAAAAAAAAAAAAAAAAAAAAAAAAAAAAAAAAAAAAAAAAAAAAAAAWFlaIAAAAAAAAPNRAAEAAAABFsxYWVogAAAAAAAAAAAAAAAAAAAAAFhZWiAAAAAAAABvogAAOPUAAAOQWFlaIAAAAAAAAGKZAAC3hQAAGNpYWVogAAAAAAAAJKAAAA+EAAC2z2Rlc2MAAAAAAAAAFklFQyBodHRwOi8vd3d3LmllYy5jaAAAAAAAAAAAAAAAFklFQyBodHRwOi8vd3d3LmllYy5jaAAAAAAAAAAAAAAAAAAAAAAAAAAAAAAAAAAAAAAAAAAAAAAAAAAAAAAAAAAAAABkZXNjAAAAAAAAAC5JRUMgNjE5NjYtMi4xIERlZmF1bHQgUkdCIGNvbG91ciBzcGFjZSAtIHNSR0IAAAAAAAAAAAAAAC5JRUMgNjE5NjYtMi4xIERlZmF1bHQgUkdCIGNvbG91ciBzcGFjZSAtIHNSR0IAAAAAAAAAAAAAAAAAAAAAAAAAAAAAZGVzYwAAAAAAAAAsUmVmZXJlbmNlIFZpZXdpbmcgQ29uZGl0aW9uIGluIElFQzYxOTY2LTIuMQAAAAAAAAAAAAAALFJlZmVyZW5jZSBWaWV3aW5nIENvbmRpdGlvbiBpbiBJRUM2MTk2Ni0yLjEAAAAAAAAAAAAAAAAAAAAAAAAAAAAAAAAAAHZpZXcAAAAAABOk/gAUXy4AEM8UAAPtzAAEEwsAA1yeAAAAAVhZWiAAAAAAAEwJVgBQAAAAVx/nbWVhcwAAAAAAAAABAAAAAAAAAAAAAAAAAAAAAAAAAo8AAAACc2lnIAAAAABDUlQgY3VydgAAAAAAAAQAAAAABQAKAA8AFAAZAB4AIwAoAC0AMgA3ADsAQABFAEoATwBUAFkAXgBjAGgAbQByAHcAfACBAIYAiwCQAJUAmgCfAKQAqQCuALIAtwC8AMEAxgDLANAA1QDbAOAA5QDrAPAA9gD7AQEBBwENARMBGQEfASUBKwEyATgBPgFFAUwBUgFZAWABZwFuAXUBfAGDAYsBkgGaAaEBqQGxAbkBwQHJAdEB2QHhAekB8gH6AgMCDAIUAh0CJgIvAjgCQQJLAlQCXQJnAnECegKEAo4CmAKiAqwCtgLBAssC1QLgAusC9QMAAwsDFgMhAy0DOANDA08DWgNmA3IDfgOKA5YDogOuA7oDxwPTA+AD7AP5BAYEEwQgBC0EOwRIBFUEYwRxBH4EjASaBKgEtgTEBNME4QTwBP4FDQUcBSsFOgVJBVgFZwV3BYYFlgWmBbUFxQXVBeUF9gYGBhYGJwY3BkgGWQZqBnsGjAadBq8GwAbRBuMG9QcHBxkHKwc9B08HYQd0B4YHmQesB78H0gflB/gICwgfCDIIRghaCG4IggiWCKoIvgjSCOcI+wkQCSUJOglPCWQJeQmPCaQJugnPCeUJ+woRCicKPQpUCmoKgQqYCq4KxQrcCvMLCwsiCzkLUQtpC4ALmAuwC8gL4Qv5DBIMKgxDDFwMdQyODKcMwAzZDPMNDQ0mDUANWg10DY4NqQ3DDd4N+A4TDi4OSQ5kDn8Omw62DtIO7g8JDyUPQQ9eD3oPlg+zD88P7BAJECYQQxBhEH4QmxC5ENcQ9RETETERTxFtEYwRqhHJEegSBxImEkUSZBKEEqMSwxLjEwMTIxNDE2MTgxOkE8UT5RQGFCcUSRRqFIsUrRTOFPAVEhU0FVYVeBWbFb0V4BYDFiYWSRZsFo8WshbWFvoXHRdBF2UXiReuF9IX9xgbGEAYZRiKGK8Y1Rj6GSAZRRlrGZEZtxndGgQaKhpRGncanhrFGuwbFBs7G2MbihuyG9ocAhwqHFIcexyjHMwc9R0eHUcdcB2ZHcMd7B4WHkAeah6UHr4e6R8THz4faR+UH78f6iAVIEEgbCCYIMQg8CEcIUghdSGhIc4h+yInIlUigiKvIt0jCiM4I2YjlCPCI/AkHyRNJHwkqyTaJQklOCVoJZclxyX3JicmVyaHJrcm6CcYJ0kneierJ9woDSg/KHEooijUKQYpOClrKZ0p0CoCKjUqaCqbKs8rAis2K2krnSvRLAUsOSxuLKIs1y0MLUEtdi2rLeEuFi5MLoIuty7uLyQvWi+RL8cv/jA1MGwwpDDbMRIxSjGCMbox8jIqMmMymzLUMw0zRjN/M7gz8TQrNGU0njTYNRM1TTWHNcI1/TY3NnI2rjbpNyQ3YDecN9c4FDhQOIw4yDkFOUI5fzm8Ofk6Njp0OrI67zstO2s7qjvoPCc8ZTykPOM9Ij1hPaE94D4gPmA+oD7gPyE/YT+iP+JAI0BkQKZA50EpQWpBrEHuQjBCckK1QvdDOkN9Q8BEA0RHRIpEzkUSRVVFmkXeRiJGZ0arRvBHNUd7R8BIBUhLSJFI10kdSWNJqUnwSjdKfUrESwxLU0uaS+JMKkxyTLpNAk1KTZNN3E4lTm5Ot08AT0lPk0/dUCdQcVC7UQZRUFGbUeZSMVJ8UsdTE1NfU6pT9lRCVI9U21UoVXVVwlYPVlxWqVb3V0RXklfgWC9YfVjLWRpZaVm4WgdaVlqmWvVbRVuVW+VcNVyGXNZdJ114XcleGl5sXr1fD19hX7NgBWBXYKpg/GFPYaJh9WJJYpxi8GNDY5dj62RAZJRk6WU9ZZJl52Y9ZpJm6Gc9Z5Nn6Wg/aJZo7GlDaZpp8WpIap9q92tPa6dr/2xXbK9tCG1gbbluEm5rbsRvHm94b9FwK3CGcOBxOnGVcfByS3KmcwFzXXO4dBR0cHTMdSh1hXXhdj52m3b4d1Z3s3gReG54zHkqeYl553pGeqV7BHtje8J8IXyBfOF9QX2hfgF+Yn7CfyN/hH/lgEeAqIEKgWuBzYIwgpKC9INXg7qEHYSAhOOFR4Wrhg6GcobXhzuHn4gEiGmIzokziZmJ/opkisqLMIuWi/yMY4zKjTGNmI3/jmaOzo82j56QBpBukNaRP5GokhGSepLjk02TtpQglIqU9JVflcmWNJaflwqXdZfgmEyYuJkkmZCZ/JpomtWbQpuvnByciZz3nWSd0p5Anq6fHZ+Ln/qgaaDYoUehtqImopajBqN2o+akVqTHpTilqaYapoum/adup+CoUqjEqTepqaocqo+rAqt1q+msXKzQrUStuK4trqGvFq+LsACwdbDqsWCx1rJLssKzOLOutCW0nLUTtYq2AbZ5tvC3aLfguFm40blKucK6O7q1uy67p7whvJu9Fb2Pvgq+hL7/v3q/9cBwwOzBZ8Hjwl/C28NYw9TEUcTOxUvFyMZGxsPHQce/yD3IvMk6ybnKOMq3yzbLtsw1zLXNNc21zjbOts83z7jQOdC60TzRvtI/0sHTRNPG1EnUy9VO1dHWVdbY11zX4Nhk2OjZbNnx2nba+9uA3AXcit0Q3ZbeHN6i3ynfr+A24L3hROHM4lPi2+Nj4+vkc+T85YTmDeaW5x/nqegy6LzpRunQ6lvq5etw6/vshu0R7ZzuKO6070DvzPBY8OXxcvH/8ozzGfOn9DT0wvVQ9d72bfb794r4Gfio+Tj5x/pX+uf7d/wH/Jj9Kf26/kv+3P9t////7QBqUGhvdG9zaG9wIDMuMAA4QklNBAQAAAAAAE0cAVoAAxslRxwCAAACAAAcAnQAOcKpIEZ1bm55R3JpZWYgLSBodHRwOi8vd3d3LnJlZGJ1YmJsZS5jb20vcGVvcGxlL0Z1bm55R3JpZQD/2wBDAAMCAgMCAgMDAwMEAwMEBQgFBQQEBQoHBwYIDAoMDAsKCwsNDhIQDQ4RDgsLEBYQERMUFRUVDA8XGBYUGBIUFRT/2wBDAQMEBAUEBQkFBQkUDQsNFBQUFBQUFBQUFBQUFBQUFBQUFBQUFBQUFBQUFBQUFBQUFBQUFBQUFBQUFBQUFBQUFBT/wgARCAPoA+gDASIAAhEBAxEB/8QAHQABAQACAgMBAAAAAAAAAAAAAAEHCAUGAgMECf/EABsBAQEAAgMBAAAAAAAAAAAAAAABBQYCAwQH/9oADAMBAAIQAxAAAAHakAAAAAAAAAAAAAAAAAAAAAAAAAAAAAAAAAAAAAAAAAAAAAAAAAAAAAAAAAAAAAAAAAAAAAAAAAAAAAAAAAAAAAAAAAAAAAAAAAAAAAAAAAAAAAAAAAAAAAAAAAAAAAAAAAAAAAAAAAAAAAAAAAAAAAAAAAAAAAAAAAAAAAAAAAAAAAAAAAAAAAAAAAAAAAAAAAAAAAAAAAAAAAAAAAAAAAAAAAAAAAAAAAAAAAAAAAAAAAAAAAAAAAAAAAAAAAAAAAAAAAAAAAAAAAAAAAAAAAAAAAAAAAAAAAAAAAAAAAAAAAAAAAAAAAAAAAAAAAAAAAAAAAAAAAAAAAAAAAAAAAAAAAAAAAAAAAAAAAAAAAAAAAAAAAAAAAAAAAAAAAAAAAAAAAAAAAAAAAAAAAAAAAAAAAAAAAAAAAAAAAAAAAAAAAAAAAAAAAAAAAAAAAAAAAAAAAAAAAAAAAAAAAABON4cuTdN4Xwe/JjDfF+H353a8/D5vXsrNYvV1d20c1as5bSzV/3dnDZq648h3+fPzCfMezxZUdG7D7sdzCX0+UKAAAAAAAAAAAAAAAAAAAAAAAAAAAAAAAAAAAAAAAAAAAAAAAAOL6R4PbkrjMK8Hruw5Z6t0+YPO/bx/nMXl4OHb4yy1LLZLOSC2SxZLOVSy2ePlLPr7N02evyZg7lrb45jB7XXWrvOc13Ljg+bzGv0dnAAAAAAAAAAAAAAAAAAAAAAAAAAAAAAAAAAAAAAAAAAAeuPZ49Ex1gM7lHoHWpqO2QYbNSWOUllJZbBb4yy1LLZLKgtkstks5VLLZLKkstSy2Sy2dn6zO/z5w77qjyOxaptCxdkrZdN949XkAAAAAAAAAAAAAAAAAAAAAAAAAAAAAAAAAAAAAAATgcU4XLd+xpx80TdoMXlpLFgtksqSy1LLYLfGWWpZbJZyQWyWLJZyqWWyWVJZallsllqWWyWVOQ492cMz5K1N5zZNO2ZdQ7ftOkB29IAAAAAAAAAAAAAAAAAAAAAAAAAAAAAAAAAAA4Lq7OXxn1bitD3NDVdpkscoKkstgtksqSy1LLYLfGWWpZbJZUFsllslnKpZbJZUllqWWyWWpZbJZbBUllsyJjyerxbV/Zq3nbc/nHbhl8AAAAAAAAAAAAAAAAAAAAAAAAAAAAAAAAAAnhirHe3nMYeD5r9CSzHZGBZLLYKkstgtksqSy1LLYLZ42WpZbJZyQLJZysllqWWyWVJZallsllqWVJZeUFSVb4rFljlMu5a1H7xtGj7Avm+nadFCwAAAAAAAAAAAAAAAAAAAAAAAAAAAAAB83rwxhcp9PXT5n9Eks8/oSyoLZLLYKkstgtksqSy1LLYLfGWWpZbJZyILJZbJZyqWWyWVJYqWcrJZallsllqFSWWwLCUFvYdhtV+Xzmr7RuH5jc/moc+AAAAAAAAAAAAAAAAAAAAAAAAAAAAD4vPCuFyvjxNnzD6JB1d0lipZUFsllsFSWWw8+c9c7Fz2Sx2PmXebyeNwJ92xHuyOPwHyOa77fHiH7covV5cb/T393dHRZ3t2ceiO9jofpyElxn82VXX24b47Orz+nXjiNnXm9mqV2l4HxZDXiZq6/4cpjSdp63j8t6pZ0euSy8oKkspByksoLZLK5TY3V7lczre0zi+U3b5gHLiAAAAAAAAAAAAAAAAAAAAAAAAAA9XsxJjPdx/AHyr6TB0d8FslipZUFsn09t9/j6R5Zi7VsOBwt2fI9z2D652DzZjEh3dQAAAAAAAAAAAADw80dY6llR48hr31Ta70YjPaps89Gw2x4+n1/Jis9Bx7ZKqC3xWUhbz+yOp3cc9qWxjw89x+bBQAAAAAAAAAAAAAAAAAAAAAAAA670dnX8b+Xj8n+lQY7IQVBbJfv7evj7knvGza9ijuvb21a16/YZjFBQAAAAAAAAAAAAAAAAAAAHr6R3t0ejAPSNtPgwez6rzMOM9f2/ih4cv4rFSyosrKmadQdgds+ed9Gx6YAAAAAAAAAAAAAAAAAAAAAAAB8uD+xdO+cbylmq7JBbDnfT08BzmSe0bfq3T+3+Tb9XD09AAAAAAAAAAAAAAAAAAAAAAAAADw80dAxVspMXndRWw2IdY3nq8MXsEFPr+ScuG1PK667E798io9+JAAAAAAAAAAAAAAAAAAAAAAdY7Hg3X8xxg+XfRXj5fRz4fNyneu9bhq/Vu1Vu2ph6OkAAAAAAAAAAAAAAAAAAAAAAAAAAAAADo2GtnvHFZ7URm7D2qfQfilngzEzxgf78hhtsHx/Zv3yILAAAAAAAAAAAAAAAAAAAAB83G9Ixv9Hz/ACP6XHIZU7+np2SvsfRNHDJ+EAAAAAAAAAAAAAAAAAAAAAAAAAAAAAAAAB8P3ONwXjXb7p+vblrg5nhtX3/KuatRNpNt+dcuM9qQAAAAAAAAAAAAAAAAAAADHPfsH6zneP7n2ft3g9nz/Qbnq4coAAAAAAAAAAAAAAAAAAAAAAAAAAAAAAAAAAAB8+Fc5Tx5DUDJnecF6xvu17i+U3H5oHLiAAAAAAAAAAAAAAAAAABxHs5N5+0PR1AAAAAAAAAAAAAAAAAAAAAAAAAAAAAAAAAAAAAAAOI5dx5dB79Lw7A7ekAAAAAAAAAAAAAAAAAAAAAAAAAAAAAAAAAAAAAAAAAAAAAAAAAAAAAAAAAAAAAAAAAAAAAAAAAAAAAAAAwng03eaQ5RNjQAAAAAAAAAAAAAAAAAAAAAAAAAAAAAAAAAAAAAAAAAAAAAAAAAAAAAAAAAAAAaeYqyriodu6j243qAAAAAAAAAAAAAAAAAAAAAAAAAAAPE6vwWmnpN0ch/nXssbBAAAAAAAAAAAAAAAAAAAAAAAAAAAAAAA0/xPvljM1Z7jnXvh3YAAAAAAAAAAAAAAAAAAAAAAAAAADx8vE/OP3en3DYrXXYo2OAAAAAAAAAAAAAAAAAAAAAAAAAAAAAAB6+N1ywIfoR9/wCdGUTc0AHp4/UrFh+hHJfnLnk2lAAPgPL5tCeNP0K5T84dwjLgBxR9HzaEccfoXyf5xbSmeOn6sY8NruP1jG2eR9BR+jDU7aI+8A9B6Pn0O4g/Qj7vzp2BNnQAAPl+rUI2nfnuP0T+vQzfM9PG6tYeL7QbAa/+B+gr89x+hHn+elP0dYuyiADGxknqupHRjbbiNYhtJ2fTQfoh9H57bBmwzw8wAD5/h06x4foRyf5yZ9NoeM1xwYbdcBrANpe8aRZIN0AAAAAAAAAAAAAAaeYqyriodu6j243qABor1Ht3URlXFWVTcMADhea4U/Pv3en3DZzWPZwz4B1vsnWzQjz8PMAH1HysifKdFWDunSx+hf26p7WAGj3SNqdVhynFj9Evdh7MIABxOgOyms4BlHcfE+WDSfH+esMnFgH1nyOUHFuU9hslm7oHfwYnOtayAAct2sx87n0wAyvt9+dWyBsQADQfr/YOvgA8Tycr9x1zJGOcpm4YAAAAAAAAAAAAANPMVZVxUO3dR7cb1AA0V6j27qIyrirKpuGABwvNcKfn37vT7hs5rHs4Z8A632TrZoR5+HmD3HeNxPm58A6Vpl+gWHzUcDe/RDYg2QB8mgH6FauGCgZI3Q/ObfM7MAY7NVeqyjmuF2GNj/MHh5+J+cfu9PuGxWuuxRscAAD06E7O6jAHu2m4zP54+QOmdzGgnBbj6bl+v5B+hX3YbzIAaD9f7B18EOZ269OTADieQ9wAAAAAAAAAAAAAA08xVlXFQ7d1HtxvUADRXqPbuojKuKsqm4YAHC81wp+ffu9PuGzmsezhnwDrfZOtmhHn4eYypivYw2MAA8PMfnvx+RMdjIuOueN+gOn9wH5y+WQcfDYPXzmD9AHr9g1L2i0APQBvtqtuWAPHy8T84/d6fcNitddijY4AAGqWFO+9CHl4jfz7PzxH6HT88h+hj88x+hWhHGe0oM8bQaibdgGg/X+wdfHYOv5QNyAAAAAAAAAAAAAAAAAaeYqyriodu6j243qABor1Ht3URlXFWVTcMADhea4U/Pv3en3DZzWPZwz4B1vsnWzQjz8PMbR6ubPGegAAah4jytikfb8XIn6DgAw1qZ+iOgJxgNvstab7kGBtYO49OBy5tLlz1+wAePl4n5x+70+4bFa67FGxwAANDes9n6wDyPF9Y+R9Y+R9Y+R9Y+R9YyVuHrnsYAaD9f7B18ZfxBmA24AAAAAAAAAAAAAAAABp5irKuKh27qPbjeoAGi3UO/8AQBlLFveDeAADrPZsOGo/mDZzWPZwz4B1vsnWzQjz8PMZ8wH3Q3kAAOKNMeleXiO09Wy0bfAAay7NdXND0pdvdQfvOO8gbBa+b5nZgAPHy8T84/d6fcNitddhzZEAAGlWPM94EHLcTD9GLjvIgAAAAABoP1/sHXxmDD+YDbgAAAAAAAAAAAAAAAAGnmKsq4qHbuo9uN6gAam4Z2v1QHn4Dfnn9HdkzJ7pvUzKmkPt6UANnNY9nDPgHW+ydbNCPPw8x4+Q3Eyp+emzRnFwPxnatY/PAAA2q1o35PsAABphjbbvUQAAyTufh/MAAAB+dfr7j04Zvwh95+hLWXljYRr57DP74/sOgaSfo1piY1B3Pdf89ezG+TB+QTt7gOLO5sOYxNn+naafAfo66/2AA0H6/wBg6+MwYfzAbcAAAAAAAAAAAAAAAAA08xVlXFQ7d1HtxvUAD5tC9/ccmlr6fmAAB2k6s8PMbOax7OGfAOt9k62aEefh5g5k4YHr8vIAPG7HHZczAAAB69BN/wDW414A5Xis/GynuAAADXbXD9D9NTHSUAA2rzbhHNw6/wBgGgPC75agHTAJR6vaADw8/cb49h4XmgDQfr/YOvjMGH8wG3AAAAAAAAAAAAAAAAANO8V5Fx0O3dR74buAAA6hrht8Pzy479HuPPzy7VvX9Brrnz7hqtwO44062Z7YAHW+ydbNCPPw8xtJq3tMXBu8Y/OX1/o18J+fmRdzvIxpksAAAAGrGzOgZ8IJvhqrumAAAAJRi7Gmzg1D+TccacezcMdZ7MADw8xhjDW5g/PXi/0e+Q/Ozz/QnkDQjvW34whl7kQABr5jvccacZxysAAAAAAAAAAAAAAABgEz9wmi/FH3/ADMWHdrjNQAAAAAAAAAHW+ydbNCPPw8xtNqztMZyAAAAAANUzaxoL8ZmjAsoOzGyOYfDzAAAAAAAAAAAAAAAAAAAAAAAAAAAAAAAAAAAGo+3GqJhVRHjlM6zvNxPOgAAAAAAAAADrfZOEPz/wDNSbTas7YGaAAAAAANC99NGDpyiHJnGbk8VmQAAAAAAAAAAAAAAAAAAAAAAAAAAAAAAAAAAAAfD9w6Y7mOK5UAAAAAAAAAAAAOtfD3MdM7lQAAAAAA4jlx0x3MdQ7V7QAAAAAAAAAAAAAAAAAAAAAAAAAAAAAAAAAAAAAAAAAAAAAAAAAAAAAAAAAAAAAAAAAAAAAAAAAAAAAAAAAAAAAAAAAAAAAAAAAAAAAAAB1XsnD4s1vNZxcRy+fxAdvAAAAAAAAAAAAAAAAAAAAAAAAAAAAAAAAAAAAAAB6eJ1/xuayxkPove/R4w9XhAAAAAAAAAAAAAAAAAAAmGcz9bweVxBkrGD59u2w9w5lP6NovIDL44AAAAAAAAAAAAAAAAAAAAAAAAAAAAAAAAAAAcZx5cljbonRda3f6OV4HPmM2DIdN5+TBQAAAAAAAAAAAAAAAAAAARhrrmbcJ/MPoHj7/AEMBm8nd5145rctVze6/2Dd9SDu6wAAAAAAAAAAAAAAAAAAAAAAAAAAAAAAAE6zhLG5rJGGPkaj9FhPDmOx7N9O7nvXyUMpggAAAAAAAAAAAAAAAAAAAAJi/KPzY326/vt+L5H9NSzhzncOnvb5c8cnrt3bd9Rym4/kNq1wOfEAAAAAAAAAAAAAAAAAAAAAAAAAAAA43E/jyGU8PdA9Wrb5BhdqSxZ37pe0Gc1XlRufzIAAAAAAAAAAAAAAAAAAAAAADquH9isWaXtPSZZoW6QWwV5d06Q93kzxymuXatx1XMjq/Z9p1ujv6gAAAAAAAAAAAAAAAAAAAAAAAE6hjHG5jMuK8aTXNz9npMJtCWOcFPHy716PJ3nJUv0D46Hf5gAAAAAAAAAAAAAAAAAAAAAAHp9yMHcNnbCPzH6B8w17PQVBbJYrkuNnf1ZJ7rgBseA2RYO7js2u5AcdyOaw4dnEAAAAAAAAAAAAAAAAAA4zo3l9mS+NwT1LCbLl/HPCsDtfjUx+YC2QpLLYe7lx5DZrh+y7z8pDK4EAAAAAAAAAAAAAAAAAAAAAAAAB1rsro7dd/DK+Kflf0fxGLyUFslipZUFslls5rhXo6ch9ownM5hdkfZrXz2aw+d2KOdy2J704Lmslj/MdvWAAAAAAAAAPCPNwHXvL7MgTDvWMdltheq4A8MXmspdN69MTn4PBlpLLyixZKqC2Syovjbc+8XlPb/nIbDp4AAAAAAAAAAAAAAAAAAAAAAAAAADone55PRroyfjD5b9Ggx2RksVLKgtkstgqSy2C2Sy2E58eW5Xqk9nl79yOL3t8WX/twjPV5s8+7AE7+nYi66zs69i2ucrYz5te05Z++TBnjw7sz8dimdHpyJxXT55fbzPCp5MhFnX6JLLUsqSy8oKkstgWEoLZEplyZh2rQQ2fSAAAAAAAAAAAAAAAAAAAAAAAAAAAAAHSO7vL6NdPHMeIvmX0L0SzEZZLKgtkstgqSy2C2SypLLUstgt8ZZallsllQWyWckll5JZbJZUllqWWyWWpZbJZbBUllsCyVUPZznqzJyeQ9t+eBsengAAAAAAAAAAAAAAAAAAAAAAAAAAAAAAOG5l1c8CcXsLif5/vHUpZrGywLJZbBUllsFsllSWWpZbBb4yy1LLZLOSBZLKks5ckstksqSy1LLZLLUstkstiypLKgcpL3D0eXr+fuZ5HdfmoZfXwAAAAAAAAAAAAAAAAAAAAAAAAAAAAAAAAAjo2L9ieO1rYNf3auqaHvCWeb1QVJZbBbJZUllqWWwW+MstSy2SzkgWSy2SzlUstksqSy1LLZLLUstkstSynjZU9vaM3ZrXOj5TrcfnYenyAAAAAAAAAAAAAAAAAAAAAAAAAAAAAAAAAAAATqfbXn7sA8Vsh0XTNuxQ5Dj9U2qSzh2wWyWVJZallsFvjLLUstks5IsWSy2SzlUstksqSy1LLZLLUsqSy8o+/KeQxWMMwd79226EGZ18AAAAAAAAAAAAAAAAAAAAAAAAAAAAAAAAAAAAAAADw6T3l5fRgTg9lut6rtGDZ3npusbP6JZ4/bJZallsFvjLLUstks5ILZL4qlnKpZbJZUllqWWyX2c+Pq8e+5EzGBwvk3Jd2TUfR7zM68FAAAAAAAAAAAAAAAAAAAAAAAAAAAAAAAAAAAAAAAAAAAPT7kdM6jmFicrrl8OzXC4LO6/wAy313EZnorneFx2T9UOn0pY5SWckWLJZyslWyTz58fCc9z/t8HQZmLtGTxOAO35x8sxg+g91+lmtfD0eYAAAAAAAAAAAAAAAAAAAAAAAAAAAAAAAAAAAAAAAAAAAAAAAAABKjjOK7Q6O/o/wAORnm9WMvVlJ092KvLKZcYe/JDnw6JyHa3f5+I5XyeryBz4gAAAAAAAAAAAAAAAAAAAAAAAAAAAAAAAAAAAAAAAAAAAAAAAAAAAAAAAAAAAAAAAAAAAAAAAAAAAAAAAAAAAAAAAAAAAAAAAAAAAAAAAAAAAAAAAAAAAAAAAAAAAAAAAAAAAAAAAAAAAAAAAAAAAAAAAAAAAAAAAAAAAAAAAAAAAAAAAAAAAAAAAAAAAAAAAAAAAAAAAAAAAAAAAAAAAAAAAAAAAAAAAAAAAAAAAAAAAAAAAAAAAAAAAAAAAAAAAAAAAAAAAAAAAAAAAAAAAAAAAAAAAAAAAAAAAAAAAAAAAAAAAAAAAAAAAAAAAAAAAAAAAAAAAAAAAAAAAAAAAAAAAAAAAAAAAAAAAAAAAAAAAAAAAAAAAAAAAAAAAAAAAAAAAAAAAAAAAAAAAAAAAAAAAAAAAAAAAAAAAAAAAAAAAAAAAAAAAAAAAAAAAAAAAAAAAAAAAAAAAAAAAAAAAAAAAAAAAAAAAAAAAAAAAAAAAAAAAAAAAAAAAAAAAAAAAAAAAAAAAAAAAAAAAAAAAAAAAAAAAAAAAAAAAAAAAAAAAAAAAAAAAAAAAAAAAAAAAAAAAAAAAAAAAAAAAAAf/8QANxAAAAUCBAMHBAICAQUBAAAAAgMEBQYAAQcQIDYTFVARFDAyNUBgEhYxMxchIkEjJSaAkKCw/9oACAEBAAEFAv8A7iFDmlS0bK28ujJqGjJisFQ5O5DoTyvHQ1igyrmmXq/919Nq7OyrGDtQVigugvTgCgShzBRczXAouc2omYt5lJ3dEr+TqnNKipTME4KPla42j1qhVXZa3sr27aTrFCWk8ucSKTTggVI3pEu+QK3NMhsrmNqVPK1Z7u9rXpI8rkFIpze1IXpG4/Gr3sGy2UJE1LJEtV1/v396QyRegpvmaNTQBhMD8UGMJYV8rJKpa5KXC/RULipbRNs3LMok8tQX8QvfspxlBCalrgocBdJRL1DaY1TQk+gisMPw1yek7bZxeVLlfprY9KmgTPJkrt8LNNAQW5ycRtX/ALv1BmmByOkqslaT8Hc3glsA4OR7kPqbe5KGo5kkid4t8Fd5HYihjEYPqtr3CJhmHbXb8CGMJYHiQiV9aYJOa00nUFqievqFBaUp3eTHMfW2V8PZTkDgQ5Juuq1ZaIhzdDXM7rrW6ns6lrdSHZN1tWrLREOTka5n+1+q1FolJ1Fx9xMoETcBUGGKb0CE0GEk1aGI6+zkFfZyCvs1BX2agr7NQUKFJL0KDk0ODUKEqbUOIOIaNjrkVRqFSRX1Wtf2ra5HtSpqdSXZL1lSpLSEubkY5n+xLAI65MfcD6Jhx4qJh6UNFR5vJosgsn2hqco+jY22HUdCUY6Pg54aPjLmRRxY09/Ytboc0Km1xJdEvVzDQkgd3UTmd4wAiNEnji9RSeHBoiPoE9BBYAfeiBYYVMabVVKoKC9Koq5JaMAIgfjMryayq0iopan6s/PHfTPEITmqrpYoqNpNF0RNFkgJD0U4gtQBXDW9RSyFLSKUpjkYvEjb/dmUBFYVuqSN3+i3hBDcwSSMq1FJIwjT0AASw9LMLCaBdDkCql0PXpaGG5Q/Chz/AMEXU3p0s2pr3uK/gJEChddHEg2pMjIRh6isb068twgwBUva1bZfwYq/c0TdRUqAJSFqwa9TrQsypfSKMJk9BDYNuqiDYVnGGollOUdXNddvbrRqzUCpscCnRH1CRufej9SBlVOFII8lR9cdImicadI2taq7e3VFnvlK7p785dwS6ULYocbt8dTo/gDrEkbjToyK2e+mHPPfknTTB2LA4LROCvNOnNVmN0YLKqwbBt8BEGwrO0KJUUsRHt52aBcY2rEiotam6ZKHD6QZt0bNU0mSlJC/gqtESvJeYYek0QZ24ZvS1J4UxCg8ao+kaA5wMbGIlv8AhT1GUrxTm0Kmg2ijRkGtTgB0QdKlK7tvTXHRqaJIAnL+Fnpy1RT5DDEuUHdO7rOknnBTk/8AM5rGpgLRfEH2KkO1KE6poWNq4Lkh6Q5obuCdC3kt5XxFya07qRHW9Sxn/wDoYn02MZb/AH1IK++pBUFnylUv+c4nbtyiG6+sO0pamI7+RI7X8ix2izAnF9dxO3blEN19Xv8Ag5Wc4HZYRrDzEvXcUACDK8oaARks6uLyk/qywg/PXX+PJJGi/iRsr+JG2o3EkMYB1cXlJ/VlhB+eujGEsHNkVc2RUSeWoBoOOLTg5sirmyKizAmg1HrU6YXNkVBdEYxaT1qdMLmyKguaMYsnOXM7OM7FlpBX8vIu1NiszGibH5veg6jlydMLmyKubIqJUFqQaz1RKW3NkVc2RUQrIVZGnAILE7IvpK/VlhOqJS35sirmyKubIqC5oxi1uUpaWi5+KzKUK+LqHtKxcbr0ixHYVlEKClRWs5QUmBzZFXNkVBFYYaXuaRrKV4oMSe48XUFrlYttoqZps0Pqj3eKb2qMceCXXBLrD15UtT/oxCe1Lq/cEuuCXWFj0pLctK9RdGhcXE99VcEuuCXWGz6remfN2Vib2twWHO6vgl1wgWqMzuyaKyCcub+IIbBtnb/EyN4lrG0SFenc0uZ5nBJdXMyQL+CXXBLrCV2sQr14oOtnKQcEuuCXUYeDY681iY8KVr9wS9AgBHXBLrgl1wS64QLVh09Knph0SadII5d6mju+0ENg6W9epaTo1ikEwQRWGHTOHlS8vvBLrgl1hjITkx0lxQPVCOMGpOzw53l7vE7duUQ3Xol+68sMd26Xv0Yn9OWEPpucl26Hy+FFpSoiy1GsJcEuc0Z+SSTJrchM7kSaBQVpdnEtobTTjFJuWHDPzSS1iBvPwcJfQM53ProRf78CETYceNCKww6JFuLL/WnDreXu8Tt25RDdeiX7rywx3bpe/Rif05YQ+m5yXbofLoSpD15xOHsgOsqgr+jCK1wDzwzkt29fniq0d6Z88MHfv8f04svHDR54as/LI5WI0RV8y5Uv0EJFCquVL65UvrlS+gMziYOEx0yNM2WIEruwINCFoXulg4fyEVKoW+ow/gWeF0muMOiRbi0XFYNkrSvXAvGnkNjAiJNw1QKVEm93idu3KIbr0S/deWGO7dL36MT+nLCH03OS7dD5c4hEjpSsbWpIzpcpJE0MlIdmpSyOGXaIN4w82fmPJWmLWpVyExrXZYeu/KZPplLvzyQZMrXd8dwAsWDIXlJ/VlhB+dRxwE5L28GP7rkSSYpOi+GqRvBYNg2ykUTQSQl7ZlLA45I1hrcrQrC3BFnItxZtDQqfV8egjYwBycWlG7kkklpyvd4nbtyiG69Ev3Xlhju3S9+jE/pywh9Nzku3Q+XIkkxUexM5LC1aMS2Czmy54RuX+WeKzP3dxy/uo272fWPOevHJo1a302ywlaPqHmLyk/qywg/OrFB07jHM8LY4EpJpxDYLPLDa/bbLCtw7zHM5FuLK9/ptAI9ZiY+gYnbtyiG69Ev3Xlhju3S9+jE/pywh9Nzku3Q+XLDRvstlOkYbDC4oeWOOWHqvukvzlrLz5gtf6rZYSu/0G54ou/fX3L+71HmkLGy5i8pP6ssIPzqxYW8Z9yCUI8SM1EgScwS1zBLV3JJauZpK5mkq7kjvZamsiXZYRqfoc85FuLKPILOr90HE7duUQ3Xol+68sMd26Xv0Yn9OWEPpucl26Hy5YQEf46sQyOBMcmAzgyDRPGjk8myZnQTI7AGEwFOK4tsQKFJi1Rlh20c1kugXlJ/VlhB+dU8P7xMM+CXXBLrgl1wS64JdcEuuCXX4zwtM+iVZyLcWWGhPFl/QcTt25RDdeiX7rywx3bpe/Rif05YQ+m5yXbofLlhGH/ourFIPZKskN/pcNGKLP35hzw0eOZRysWHjgN2eGTPy6O6BeUn9WWEH51Si/wBUo8XDHduci3FlhXujoOJ27cohuvRL915YY7t0vfoxP6csIfTc5Lt0PlywiM7WrVieP65bk2g4rnoPJAoJc20bO5ZYcO/K5LUvd+eSPJobBPTqWWEovQLyk/qywg/OqUh+iUZBCIYu5qa7mpruamu5qa7mpruamu5qa7mpruamu5qaw0iipMpzkW4ssK90dBxO3blEN16JhbslmWGYuyX6ZMfZNHA2+kOWEPpucl26Hy5YRKrAXapsqssluUUIuplGnFhn4SrL6hAu8S632GG30hywmaPrO0i8pP6ssIPzqxBT93mGTQts2u/jSLcWWFe6Og4nbtyiG69E/L4Uxyg6qyOXacUnOySO54Q+m5yXbofLlDXWzPJtLq4ltLaIwZwssL0XeZTpkzPZ9Y/7zEtNGgy/uo00WYmPSL8E/qywfv8A8mrFtBcC/K9vqtA3uz3HfFkW4ssK90dBxO3blEN16MVknBkWQTBlDYncp9as1SopEnlchFJnjPCH03OS7dD5cr2+q0AlNn9s0YnycKo3PClrulZdWITPymTacPWjm0m1mE3TG5YTKuG96p0zCe43a/1WyiclMi7oiXEOSXUvckrUnZ54zvazRItxZYV7o6Didu3KIbr0YqNne2DOLyxXFlCDEhiWgFMmIAXHFBmSBkkuXyYzRhD6bnJduh8uaJae2q2LFNCqLJf2xSFZKmdACTYoCUl5tjaa8uKNIWgSasTWfmMe04YNHL4/rmSK7fKskC49sWJMXVAA/wAvkV/L6egYvJbjRrCV6bKexy7A9ZsUjXxw5rxXblFk0vZFduftlKJmxpaW4qMyenPFR0V0rVnrzzLdpceFcTDnItxZYV7o6Didu3KIbr0KU5axO9M5rA6eHhD6bnJduh8um5YRXCGwNF72DbDqJiZkmswsJoHlrEyO2bU2ieXMkoBBWvFhkuIGvCXb+T6yp5A2PLOpYXDRf+64QNI/JHdv5yLcWWFe6Og4nbtyiG69M0iIJOhUpTkKnUyR1U+BAL6wZYQ+m5yXbofLkFpUmNGuDQAZZng4tNH0jzwmaOKq8BSmKWJ5ZClUaN/OrCX0DN/jyORopJE10YM8EhKcvNZCBpWbORbiywr3R0HE6/8A3dlD916pBFkElJd8MnZvurRqG8XGLrigvSCNOzpdiwota5aJOUkesLVxK7+M3+g4ZP4hRqOJ4y3ZyXbofLlhLbtYpDhckXCcYW9tYhi4QuMXRABqxtWHr26XjcCb48LwsVnfvLrlftqMM/ImLwb27adsOGZzGrwiVBozC18BX8Zv9fxm/wBF4Yvwxx5gTRtu0DAEwD1hc2r7uOHL4gpUgVoa4xdcYugjsZdNHnVbSHDB7VU2YUNqakLclbCdExw5NXLf4zf6/jR/qEQoMbL6DiGbxpjlAy+LMfBE3ph3KTlEeHJduh8uWEnoeQywmB5akoIbBt4a5YU3o1y0xzXZQBo5vJvdGpCTr8tSWoIbAt0x2eUbIkXrRuS/LCtJx5J7WS7dD5csJPQ/YYky4peHPDBmu3MHwfEmWqW4zm7hehf5jzwrarpGL2sl26Hy5YSeh+LOpssUOf3A60pc1q0H4zjbGKRPIABLB8HxU3RojMdNk7oSSBMT7WS7dD5csJPQ/Fk25tH93qBxX7dbfhGK6U4D9l29o2HDt0eBszKkYEPtnxOYrZfoEXfLCpKcnj3izBGcilGX4pta1jybD8Pi2MfwlYhTuKf7MYq+zGKkTSibbe5WRpqcVH2YxV9mMVWt2W8VxaETsH7MYq+zGKgQ9jLEWWEkH/mQucxNa0o0BxfxE00BBaN+G+vHSHpD35A3OhzcNvcyXEv4e6PCZoIen9Q9DhzZ3Bq6S+Iu5LyzRkGNcjAf8OfZiUhpSpNWHsbbzZ0tbpT8g78i/OTY+nN9I1xK4r4SvcU7YQ9ytQ6V+MoY1dybulvqDuK7Ik8xMY2yYBtWv22+C/inmZkpaVqzlx2TA1c3c7W7LdLd2+zgj/F8293UNtNz0ncfgjtIUjPZ3kat40Xv2VFmflLd02TN3BO0t8kPS0icU68HX3B0StZTrM1KuvzfREGfmK7pyggCklYlGhU6QiEWNBKDSaSLyFwOtrXFO3FOk4NNo0wZ5mlKlMWqWxvLbEXT39r7+m1gGIoaGUnE0jc0y+3V3B3SNYHKbnnUcaNQbqv/AFUOY+5J+oyNq7uZ4H+0UkVpaRSJIr6o4SpA304zFasq97iF4EUY+aKupGlBOLdG0Tap8JI5qUNJJdakjinW26asc0reFdOgBpe9LXKuzs8JqbDXdYjSFIU3U3FAW4plCcaQ/wAP/aV/WpKTS8kVJXFMs6QrckqCyycpy6WyhxW1f+xeGSSYpOYmYtlR9VemmzkSINwC8X/aZ6WpKTzAdrESVAdRZoDQ+/MNAUFTK21NSqdCvSuQuK2v9+L+ai8d5WT1d+Ze+h9iC9y7kv7gRRExODRMvRjol7Qn3COw7e1EOwLHvzemo+aoS6UTk4VHyVzUUaIR1/YXv2VFI13brT8x949sG9wUW7LSaBKHEFAmSm1BmoaDMUd6BLG4VBkraKrSBtvVnhDeuboq5uirnCKrvKG1XkLaGhSZsDQ5c2goU0RWoU5BRs2U3o2WuRlzXpwOod7mX/HtYrGP762+sPeOv3v2WjEW7b9de2DvdXtcIuuRqKcC/X3hjA42OJGmN6yWWM4yOxYDb8CcmslzKXtxzcb1dvbj3RQyR8hmL+BqE5aop2j5qHqzJGj3e6FvIbU/wZ1jQFNHEGJjeolFDPNZIaEqrW7PhK1vIcCnKPHoK/PT2iNKnamtmStJXwxyjqddS9sUN1+loGxS6GNMPTIb/DxBsOzhFCTaWIFDeLo6NAocTGyEll0UUAkHxIYAmBXRROfS1nVoK/PQ0DOsc6boSQVRRICAfF1sfRraVxNSTRxJiYfvSihqBoYctU0giqBDXZ8cMKAcFVFUR9KokrKpQiUJK/Ptr/1SZIesulhq4+kkMQkUQnKTA+RKGVCqo+HJx0fEFYKOYnAmjCxk122v4l72tQAiNolicT6Ihi4yk8HThpNHm5Lfs+VdnbRrYkPocabR0KIIL0OFJ71eEAq8Ir7HFX2PVoOCgwhPagw1BagRdsBRTQiIq1uy3/4gP//EAD0RAAAEAwMHCQgCAQUAAAAAAAECAwQABRESITEGIjJAQVBREBMUIDNCYZGhFTBDU3GBsdEWI+FigJCg8P/aAAgBAwEBPwH/AHplKYw0KEJy52popjBZG7NjQIDJ5facIDJw21T0/wAx/HB+b6f5gcnFNinpBsnnIYCEHkz0ncrCjVdLTIIbzQZLuOzLCGT5hvWP5QlKGiXdr9YImRMKFCnulWTZftCBC2Tzc96QiWHEidI3kzgg5DJjZOFB3a1k7hxebNCG0obN7xC0PjABTUFmyLgLKpaw6ydKbObGp4DDhos1GyqWm6WctWd3hcXjDSWoNbwCo8dVUTIqWycKhD3J4o57UaeEKoqIGsKBQdykTMqawQKjDGTFTz3F48IAKYaw6ZovC2VQiYShZlnFvJx/e42rRR2eySGbFJmWhceOtiACFBiaSLFZr5fqBClw7gYsDvDcCwggRuSwmF2vTWTldhzqNx/zByGTMJTBQdeYMTPD/wCmEkiIkAhAu9wJgLeIwpMmiWkeDz9uXQARg+UJu4nBp66HCgQM4ej3/wAQMydj8QY9oO/mD5x7Qd/MHzj2i7+YMBNnpfifiCzx6XvV+0EyicBpFAYJlITvpwnPWR8RpCTpBbszgPuZtKSvS84nph6wYokGybHXGbQ7tSwWEESIEBMmHWWeoN+0NC0/IFyRawrOHauA0+kHVOpeca6gjMHSGgoMIZRrEuVLX0hvPWi1xhsj4wU5ThUo1606lXSC9IRDOD11tNMypwITEYZtCtErAY9Q6hEwtHGkOJ4kS5ELULzNyviageGrouFW41SNSG2USxLlwtQ1mjV3cQ1/AerPZZzQ9KSC4cdalDLmic8fEeVVZNAtpQaQ6nndbh94VXUXG0oNdcaTl01uraDxhnOmzvNEbJvHlOQqhRIbAYmTEzFcSbNmsSxp0paptEOQxykC0YYdzsC5rfzhVZRY1pQa7gZTlyzuraLwGGU0bvgzBoPDkmrEHzcShpBhAgJRoOrAFRoEMWwNUQJt2w8mSTS7E3CHL1Z0NTjduMBEo1CJflAdOibq8OMJLEXLbTGoRlAx5hbpBMDfnVpSgBlOePolh9OBN/W384Ea3juZm+XYntJD9oB23nbYyOB+EGKJBEptV509jm63bpKYxBtFGgwsqZc/OGxH/oiIMgeIWktMPWDkMmayYL90S+VrPxqFxeMPQSKsJENELtVlrnoy4COAw7YpPC52PGHbFVoOdhx3KUonGyUL4l2T9aKu/L9xNXRZe0EE7hG4NXlLvpCNgcSwYoHChoeSUBz2/lCiZ0jWThQdxMZS4e3gFC8YYyxBiGYFTceScPumuBs6IXBq7NyLVUFAghwUKBy4DyLtUnIWVAh1JVE85G8PWDFEo0NrzVg4eD/UX77IYyBBvnrZxvSACmHJPph0ZLmCDnG/Gsyd9YHo6mGzqLs0XIUULDmRnLegNYUSOiNlQKa01lTp3oloHEYaZPt0c5bOH0gpQIFChyu3JGiQqn2Q5cHdKiqfEdZwiVv+kksH0g6p0iKhZOFYXkaKl6Q2YXlDpHAKh4QYolGhg1RBm4c9kQRhtk4oa9c1PpDaVNWt5S1HiPVMYCBaNhE2mIvlaF0Aw/etpKGROByYhDF6V4nUMdvXUQTVCihawrJGymjdCsgVDszVhSVu08SQZM5NMKe8TZuFdAgwlIXimkFIRybIHbH8oQlTNDRJ53wAUw686m3Pj0dAc3b466gudscFE4ZvCPCWi4+6EoDjB2LY+kmHlBpMyN3PzBpA1HARgcnUdhxj+Ok+ZH8cJ8yAycT2nGAydb7TDBZCzDEBH7wSVMyYJwRBJPQKAe7nM5t1bNxu2jr6C5257aY3wxmCbwvA3DXTCBQqMTadCtVBuObx47hIcyZrRBoMMJuVaia1xtbcOUmpOcVGgRMpuq+GwW4n/sdyMZuo3zFLywg4ScltJjXWH87Ra5iecaHLpV2e2qNdzJLKIGtpjQYaTwo5rgPvBFCKhaINQ1R3M2zMM81/CHs6cO80uaXdSLhVuNUjUhtPqXOC/cIQeIOOzN78xgKFTDDmeNULijaHwh1O3Ti4o2Q8P3GO7cIRmjpDA1frCOUHzSeUJzlmp3qfWE3CKugYB64mKW8RhSYtEtJQIVyhbE7MBGFsoXJ7kwAsLOVnA1VNXepV1SaJhD7wExdh8QYCbPQ+J+I9rvvmegfqBmjw2KkGeuTYqD5wY5jaQ/8ACp//xAA9EQAABQIEAgYHBwIHAAAAAAAAAQIDBAUREiExMiJAEyBBQlBRBhAUMDNhkRUjQ1JTcYGhsRZiY4CQoOH/2gAIAQIBAT8B/wB6alpRmowuoxW9VkFVuKnS5g6+12IMf4gLsb/qPt//AE/6/wDgKvo7UBNcYPUjCKtEV3rBEllzasvE350eP8RQe9IElkyn6h2ry3e9b9gpxazuo7+6blPtbFBmtPo3lcM1eO5krIJWlZXSd/DDOwlVmPHyRxGJNXkyMr2L5C9+QaecZO6DsI9ZUWTxXDMlqQV2z8Jm1ViHlqryEupyJe47F5cqhakHdJiLWDLhf+obcQ6nEg7l4K46hlONZ2IT62t3gj5F5i98z5hiS5HVibMQ6i3J4TyV4HMnNQkYlibPdmquvTy5vQQap+G/9QR3zLwCo1JEFHmryD8hySs3HDz56BUDY4HNoSolliTz1SqKIKP8xh11b6zW4dzP3CUmo7EG6bLd0QG6DIVuMiCPR5PfWE0KMWtwVIhl3AVNiF+GPYY36ZD2GN+mQOBFP8MgdMiH3AqjxT7LBVDZPaowqhLLYsLpMpHZcLjutb029zAnHHPAvaEqJRXLnJ81EJrGrXsD765DhuOan1mYUiR8NAZ9H3FZuqsGaLEa1K/7hDLbWxNuQchR3dyA7RWz+GqwdpUhrQr/ALBSVJOyi61OndCfRObebeeQwg3F6EJ0xc103FadnUbbW6eFBXMRqA+5m8eER6TFj54bn8wRW5Zxlt0rLK4eozas2jsH4L8fcWXVpk3GXQua9nNVyodO50De0vWyw4+rC2VxE9H+9JP+CDMdqOWFpNuckU1h/O1jEinPMZ6l60qNB4iEOSUlvF28xWJ3sjGFO5XqQhTh4UlcxCoClccnL5BmO1HThaK3gEmnMyM9DEiE7G3Fl6oUn2Z2/YCO+ZcspRJLEYqMs5j5r7OwQaU9NO+ifMQ6exCTZBZ+fgZkR5GJdKSriZy+QWhTasKyzFKk9Ijolaly1ckqQ0UdvcsU6hEmzkr6AiJJWLwaRFbklZZA2Hac8TmpAjJRXLlegb6TpbcXhKkkorGG0E2nCX/REkT1U+Tge2K7fINuJdTjQdy8IlTW4xW1MRsZtkpzU+Vq8T2uMdtSzIQqg9BVwaeQhVJmaXCdj8vBTMklcxLqvcY+ohMnKf4v55etQvZX8adqglSkHiSYgV808En6hp5DycbZ3LwKTPajZHmYkzHZJ8Wnqp8b2drPU+XnxEzGDbPXsDiFNKNCtS9UeW9FViaVYQ6+25wyMj/oErSssSTvzz8tqOXGYk1Rx3hbyL10yL0znSK0Lma7TsZe0tln29SNMfindpQi+kCFcMgrBp9t8sTar80/PYY1O5iRVnXcm+EgZmo7n62GVPrJCQy0lhBITzJlfIxV6ccNzGjYfVbdW0eJB2EevPt5OliDFZivanhP5hK0rK6TvyjsllneoPVpBZNFcPT339ysuqkjUdiECH7Mi57j5t5lEhBtrLIxPgLguYT07Ou2+4yd21WDNclN7uINekDZ/ERYN1WI7osIdQ5tO/u7hcphvcsg5V4yNMw5W1H8NIcnyHtyhe/XpsHo/vXNedkxm5TZtuCdBchOYVaefuiUZaBE2QjaswirzE98JrkktbAq+92pIfb7n5B9vOfkH287+QgdcfPRJBVYlHodgqoyl6rCnnF7lX93Tqfazzv05+RGblNm24Qn05yCrzT586RGo7EIFN6P7x7XwFxtLqcCyuQqNGXH+8YzTzbTK31YEEIVPRG4lZq8En0ZuRxtZKD8Z2MrC6VuYiUxx/iXkkMR246cLZeDPMNyE4HCuQmUFSeKOd/kFtraPCsrHykeC9J2lkItMaYzVmfhT8ZmQVnU3En0f7Y6v4MPQ34/xE+/JJqOxBilSHdxWIR6UwzmriMWt4aZEeoepUV/VNv2Dvo/+kv6hykS2+7f9gqO63vSZdckmegbgyHNqDDVFfVvyDVFZRvO4ajtM/DTbxVUdle5JA6fFVq2QOlQz7n9x9kw/wAn9wVNiF3AmHHTogglCU7S/wCFT//EAFYQAAECAgIIEAsGBAUDBAMAAAECAwAEESEFEBIgIjFBURMjMkJQUmFxcnSBkbGywdEUMDM0YGJzgpOh4SQ1QFOSwkNjg6IVVJTS8GSj4kSAkPGgsLP/2gAIAQEABj8C/wDziNNmG299UYK1u8BBjS5RR4a6IwGmW+cx5cI4CBFc47yGiMKZeP8AUMVuLO+sxXXGIRVVFTixvKMYMy8P6hiqde5TTHnAXw0CMNtlzkKY0yTPuLpjCU41wkd0aVNNLOYK9J9OfQg5qa+aNJZW9unBEYGhsD1RSfnGmzDjm4VVRUPwVdcaS+41wVVRhqRMD100H5RRMS62t1BuhFDMyhStriPN6Qae8lBzZeaCJZin13avlGmTCgnat4I/F11xpMyu52i8JPziibl/fZ7jFDD6VK2hqVzejVJqEUN/aV5kYueKLvQEbVrvinLn2BADujN7R6v544CZgGUX61aeeApJCknER6KlSiEpGMmCmWTo6tsak/WNPdKhtBUnm2GplnlN+rrTyQETregq/NRWn6QHG1pcQcSkmkeiRRLjwhzONSOWKX3LoZE60cmxV3LOlo5RkO+IDc6nwdf5g1B7oBBpByj0OoWbt3I2nHBC1XDX5SMXLn2O0hdLeVlep+kBHkZj8peXez+hZW4oIQMZMFuTwE/mnGd6CSaScp2RDU5TMM/ma9PfCXWHA62dcn0Iw8Nw6lsYzF06rBGJsYhsposuu52yTqVb4i48lM5Wj2Z/QYsytC3crmRPfBWtRUs41HLssFAkKFYIxiEy9kFAHEmYyHhd/oGVKISkVkmC1LEoYyryq+mzSWXqXZT+5ve3NyEutLDjahSFJy+gCnHVBCBlMXIpRLjEjPunZylGGwo4bOfdG7CX2F3aD8tw7PKddVcpEXSsFsahvNs9ozJpB1bZxLEB5g7iknGk5js4p11VykRdrwUDUIzfhscYEu8r3DFUqocJQHbFYZT7/wBIwplpO8kmMKc/S3R2xXNOneAit14+8O6Mb3xIxvfEjG98SMb3xIxvfEip58co7oqm3RvgRgTv6m6e2MGZaO+kiKgyveX9IrlFK4BBjTJZ5G+2Yopr/DB9g14lJOJYzGA8ydxSDjSc2zSnXFXKExdqwUDUIzfX8FQ2lTh9QUxVL3G64aI02YQjgpuo0xx13loiqVQTnXhdMYCEo4Io/CaY2lfCFMGmTbBzoweiNLceZ9666Y0maQvcWm5jzbRBnaUDFDqFNH100fgg+zXkWg4ljNCX2FUpOTKk5jswpazcpSKSTFVKWE6hPafH3KElasyRTHkgyM7hil+YKvVbFEAiXSo514UUJAAzD8dQoAjMYN1KoSrbN4J+UUy00pHquJuopDIfTnZV2RcOJU2varFB8foiMJpXlG9t9YQ8yq7bWKQdl9AaOkJNZ257vG0MtqdPqiKXloYGbVGMNJfP8w1c0XLaEoGZIo2GuHUJcTmUKY0tKpZX8o1c0UsLRNJzahUXMw0tk+uKPG3Dh+xuHD9Q7aAQaQco2VMoyrCPlCMgzeLuUgrVmSKTALlEun1qzzRS4DMK/mYuaLlICRmGxhStIUk4wRFLaTKrztYuaCWrmbR6lSuYxcLSULGtUKD4tNj5hWAfIqOT1e7ZTB8supA7YJJpJrJPidIaKxtsSeeAqaduvUbqHPFyy0lseqNkriYZQ8n1hBVJPFv+W7WOePtLCmxt8aefxWgvH7W0ML1xttkluuGhCRSYU8vLiGYZvEAoRcN/mLqEXTv2hfranmigCgbLEEUg5DBUz9kc/l6nmgqca0Vr81qscubxDcwyaHEHn3IbmGtSrJmObZHwdB0ps1+sr6X4KU6G3+YuApQ0d3bL7tnCsJ8GeOvay74gqUjRmR/Fa7Rkv9DcNEq+aFeqrIdkKEHTnKk7m7faUjA/MVqYCl6e7tlYhvD0AK0DwV869sVHfEae3S1keRWn6X3grqqX2Bl1yMh2OUpRoSBSTC3jUMSRmF5obKC4vcyQFzR0Ve0GpHfFAqHoEQRSDBckiJZz8vWHujQplotL3cR3jeNTLWrQcW2GUQ2+0bptxN0DsaJRBrVWvezXgXMUst7XXHugNsoCE7noMWphtLrZyKguyVMw1+UdWO+8XY9w4K8Nrfyjt59jFurqSgUmFvL1SzTauWU051HEICzpr23OTe9CivyMz+cjtzxcTCME6lxOpVaQ62blxBukndhqZRVdisZjlGxaJVJ9dfZaDkzS01kRrj3QENoCEDEB6GKadQlxtVRSoVGFPSFLzWVk6pO9ntLklnAewkcL6jo2KW4s0JSKTCilN284aaM0B12h1/PkTveiBdaoYm9uBUrhQEuJLMw2btObfEMzKMTiaaMxzbE6DouhJJpVQMcXDSd9Rxn0S0KYRdDIcqd0Q/JOabKq0xl4fMHN/wDf/wADP+HyODOrSFKdI8mnczmPvRz4bf8Atj70c+G3/thNjrKLL6njpMxcgGnamjp9OlcWb6VW7E+37DsyhqenEMOLF0EUEmjkj7yT8NfdH3kn4a+6ErQoLQoUhSTSCNnlcWb6VW7E+37DswYXNTLhemHsJbistuyEqtwql2CgtIOsurqmjm2epKSAqWRck5a1W7FBKSoh26NGag17MGEb1uy/9H9+z3g80k1GlDiNUg5xHns9zo/2x57Pc6P9sOeDXbjrmqedoKqM29swYRvW7L/0f37PFS1BKRWSckeeMfFEeeMfFEXbS0uI2yDSL27dWltG2UaBHnjHxRHnjHxRAWhQUk1gjEb8B59tonEFrAjzxj4ogJE0wSTQAHBfBLr7bSjXQtYEeeMfFEBKZplSiaAA4K7ZRNT7SXR/DThr5hB0OXnHt5sJ6TH3bN86O+AHUTUturauh/bTFMlONTOdKFYQ3xjF/cuvtNKopoWsCPPGPiiPPGPiiLtpxLqcVKDSPEAvOoaBxXaqKY88Y+KI88Y+KIOgvNu3OO4UDRaK3FpbQMalGgQftjHxUwjet2V0Z5tqnQqLtQFOrjzxj4ojzxj4ojzxj4ogJTNMqUTQAHBX4gpm59lpY/h3V0v9IrghtM3MbqGaB/cRFVjpw8qP90aZIzqN4IP7oAM54Mo5JhBR88UBxlxLrZxLQaQfEXTriWk4qVmiPPGPiiPPGPiiApJCkmsEZbWiTcy1LIzurCYoQ4/NexZPbRGDY+cUN24H7o0yTnW/dQr90Jl5V9XhKgSGnGlJNXy/GCxIVcSYbS6tI/iEk49wUYo8mnmjyaeaJaUZP2SbXcuMnFTRqhmNV7MSbpolJRdy2yMRNGqOc1x5NPNHk080GxV1dSSm1OpQf4ZBGLcNOK+mHwLottqXQctAhU7OqDz7mcVJG1GYR5NPNGoTzQ6mbXorks5oQdOqULkGvdrx3k5NIAUpllbgBxGgUwubnFaO+5WVKHyGYR5NPNFSADnAhU1Zd3RHGnjLt3PlH8EHnrxwpOiGSlD/AOnYVRTwlZeiKAKBuXiVpJS4nEtJoI5YSzZO6npX83+Kj/d0w3MyrqX2HBSlaMt4tYQpwpSTcIxncEOz80Apx2sDaJyJEeTTzR5NPNE3YtVSXRo7Q9YVK+VHMfECUFCmZJNz76qz8rn5x5NPNHk080MTMs3d3RDbjKP4qScW/mtPWOWr7HK3Ny0MSlFIN0c+ONQnmvK0g78eTTzR5NPNHk080VIAOcCCqbXorrDpZ0TKoUA17td6WfO53/LtnU8I5IIdmTLsH+BLYCeU4zFQA3r3RZKYclHM7Rop3xiPLCJezKUsnEJtvUe8Mm/i3oCkkKSawRfTTUwRoEq8tppoakUGinfjyaeaPJp5omJCYeSLHNMKmApw+RoIprzVwpiw+kM4vClpw1cEHFywXnnFvvHG46q6Vz3klwHOr+MVxZvpVbsT7fsN7Zb2/YLaeLOdKb6e9gvqmG+CLdkuMjqJvLK8Vd6hgb3i7tFLkm4dPlxl9Yet0w1My7gdYdTdIWnKLyaZSKGXT4Q1vKxjkNNuVnkU0y7gWQMqdcOamEOtqum1i6SoZRfTM475NhBWRn3IceeN086ouLPrGs20PKTSzJDRjwsSO0+7asnvt/8A8keKm+NnqIvHLGWLX9qFT0wP4Xqj1uiCcZJpJOXxKZSbUV2LUeWXOcernEBSSFJNYIvbLcbd61sjIcd9JcBzq/jFcWb6VW7E+37De2W9v2C2niznSm+nvYL6phvgi3ZLjI6ibyyvFXeoYG9e6DKsOTLu0aTdGKfAA37R5IgqVY1bif5K0r+VNMKQoFC01KSoUEcl5/hT6/s0yaWadY5m5enfvGrIITpkmrC9mrH86Dz3ngqzS7JK0L3NZ3e7fStjEKwn1aM7wE4v7ureIfWmh6cOjng6wc1fLadstLIXNNP3OiNtppU2QAnEMYqj7vnP9MvuvDoEu8/c49CaUujmj7vnP9Mvuj7vnP8ATL7o+75z/TL7oShNjpwqUaAPB1jsjQHnAt9xeiuXOJJoAoHNbEvLKon5kYB/LTlX3fS9pk5J+aTtm0YPPij7to4TzffF05Yt4j+UUudUwUmkKTUUmoi8NhphdJQm6lidrlRyZNzevbLcbd617STQN2LqWkJqYTtm2VUc8UmxE7R7EmC24lTTg1jiblXMYl5ttlapVkLC3qMEYNFFOX8YrizfSq3Yn2/Yb2y3t+wW08Wc6U3097BfVMN8EW7JcZHUTeWV4q71DA3rxVJLMi0dOeGM+qnd6ITLybCJdka1OXfz2yH0aHMgaXMo1aO8bkOyc2m5ebyjUrGRQ3LYKVFCwaUqGQ5DErO1Ba00OAZFipXztuy7oumnUFChnBiYk3a3JdZbJz5jyiu2wlRoZmx4Orf1vzq96+nJsGlq60NrgJqHPWeW3KSAxProWRkRjV8oCUi5SKgBbMI3rdl/6P779brirhtAKlKOQRMT7lI0U4CTrUa0W0MsoU664blCE41GETFk0pnZzHoZrab5Mp3TAAFAGS2RMN3EwBgTKNWnvG5C5OaGGK0rGJac4tsTbHlmFhxO7ucuKGJpk0tPIDid43lluNu9a8RJyaLp1VZJ1KE7YwlehibnMsw8KT7o1tvQp2WbmW8ziaaIS20hLbaakoQKAPxiuLN9Krdifb9hvbLe37BbTxZzpTfT3sF9Uw3wRbslxkdRN5ZXirvUMDettsMpunnVBtCc5OKGJJnUtitW3VlVy3pnW0/apLDq1yNcO3kvLIWPUc0wgfJX7byWskhOBMDQnT64xfKn9NvBNyrGFDIYlJ3XOIwxmWKlDnvJlSDQ+/pDe+rLyCkwAMQtzllFj/p2ulZ6ByG8MI3rdl/6P77/AMHSaHJxYa93Groo5bw2YfRS89SlinWoz8vRfOOoTTNSlLze6NcnlHQIpGK2qXUaVSrymxwThDpvLLcbd61sk4hCFuJonJoB17c2qeQfOnYFXFm+lVuxPt+w3tlvb9gtp4s50pvp72C+qYb4It2S4yOom8srxV3qGBvW0OKFKZRpTvvHBHSb4pULpJqIMTcnj8HdU2N4Gr5UW5KuhLwWyeanpSLyblANNubtrhisRTitzli1mpX2hroUOqee8bkkKpak0YXtFfSjnNuhKbpZqCRlOaJSSFZaRhHOrGo89N4YRvW7L/0f338pLU4LDF1RuqP/AIi2lpGrcIQN81QzLNvtBtlAbSLsYhVHnDX6xHnDX6xHnLPxBHnTPxBHnTPxBHnLHxBEzLpN0lp1aEkZgardkpfItpDnMSP3XlluNu9a3Y+UKbpDjwux6owj8hsErizfSq3Yn2/Yb2y3t+wW08Wc6U3097BfVMN8EW7JcZHUTeWV4q71DA3rdln/AFm2+YE/uv56ioOBtz+2jst2Kc2s011qO29mQkUMzP2hvl1Q56ee3KT6f4C7pQGVOJQ5qYSpJukkUgjLamJt7ybKC4rkh6Ye8s8suL3zbacUKWZMaOrhYkfOv3b0wjet2X/o/vv7JHIlSUDkQO2m81CeaNQnmjUJ5o1CeaNQnmjUJ5o1Cea8UNvKrH9yLyy3G3etbYP5TLi+gfu2CVxZvpVbsT7fsN7Zb2/YLaeLOdKb6e9gvqmG+CLdkuMjqJvLK8Vd6hgb1ueOeb/Yi/Sc8q31l25Mj/MN9cXonECl2SVd+4aldh5LxDC1UvSZ0E07XWfKrktS9jUHDmVXbnAT9aOY3iZlaaHp06MeBrPlXy3phG9bsv8A0f339lz/ANUrxyeLOdKbyy3G3etbc4ovrI2CVxZvpVbsT7fsN7Zb2/YLaeLOdKb6e9gvqmG+CLdkuMjqJvLK8Vd6hgb1uyLe1maedCe6/UNrLNj5qPbbkUbaZaH94vVtOJu21pKVJOURMyLmql13FJyjIeai2hpSqGZ0aCeFjR2j3rU5MJVdMpOgtcFPeaTy25SQTTp67lRGRONR5qYShACUJFAAyC9MI3rdl/6P77+y4P8AmVG2EpSpajiSkUkx5pM/AX3R5pM/AX3R5pM/AX3R5pM/AX3R5pM/AX3R5pM/AX3R5pM/AX3R5pM/AX3R5pM/AX3R5pM/AX3R/i80lUuktltllQoUoGjCObFVeWW4271rbnFF9ZGwSuLN9Krdifb9hvbLe3/aLbW6w4Oi+sm4armWc6pgDMLdkuMjqJvLK8Vd6hgb1uyctlW2h0chIPSL+yixiS4Gv0pA6abdiWx/mEq/Thdl9KWUQMFweDu7+NJ6RzWwptVw4k3SVZjkgWUZNw/MthtsbVw1HmwuaABiFucsosVJ+ztdKj1Rz3xhG9bsv/R/ffz9VAcuHR+kDpBtyM2aksvoWrg01/Knx9luNu9a25xRfWRsErizfSq3Yn2/Yb2yXrFCv+2m3YxasSllr9SSOmi+8EB0yccCKPVFauwct5ZLjI6ibyyvFXeoYG9bkn1GhpZ0BzeV9bm+mZx3ybCCs7u5CnHDS6tRWs7prNvRsksypfKcEfK6vpuT160UtnMsVp+cVi5ViIOQ22pIq0ht1TyU+sR/znNvBF0rEEjKYlJLXNowznWa1HnvjCN63ZgbjP77+x86NS4hTCt8VjpVzWyDiMS5UqmYYGgPDdGXlFB8dZbjbvWtucUX1kbBK4s30qt2J9v2G9l36MF+Xop3Uk/7hbQ42bl1CgtCsxFYiXnWcTia07VWUchvHH33EtMti6UtWICFzVBRLoGhsIOROc7p7ryyXGR1E3lleKu9QwN62QcRgMPrpshLAJcpxrGRffu3osPLLpQ2oKmVDbZEcmM8l49OqFCpxzB4Cah87q/eUkUMzenp39eOev3r5lShSzKfaFb+tHPX7viHWTjaWpvmNFudlyfKsBQ91X/lfzLTYuphrTmhnUnJyikcsAjEbej0KclnMF9pOUZxuiG5mWdS8w4KUrTlvy/NzDcu0Nc4qiFSzL6m3aaEB9NxovB7sd7ZbjbvWtucUX1kbBK4s30qt2J9v2G9bnEppXJuXR4BqPYeS8UWho8q4aXJdRopOcHIYF3NeBr2kym5+eL5xSbLyVG4+kwfB1Oz7mQMooH6jFD5DMqk0plmzg75OuN7ZLjI6ibyyvFXeoYG9eNzUq6WZhvUrH/MUJRZRPgL+VwAqaPdy88UtWQlXB6ryTBU/ZKWRuaICeYQuWsOlbSTUZtwUK9wdpvJeRY8o+q5p2oyq5BDMsym5aaQEJG4L8zKE0vSR0YcDX/Kv3b7wpYodnVaL7ms7/e8RZNrIp3Rk7yq+mm21NyrmhPtGlKscUTVjG3FbZl65+RHbH3VMfETH3XMfETCbuxswhFNagpJo5IbmJdxLzLgukrTiNtTjaaJKbJcbzJVrk9v/wBXhXJO0IUaVsLrbXydogJn2XZFzKoDREfKv5RS3ZWU3lOhJ5jH3jKfHT3xh2VlN5DoUflBDAmJxX8tq5H91EFMmy1IJ2x01fzq+UaNNPuTL23dVdH6QqnNFjSSVEyzdJPBF5ZbjbvWtucUX1kbBK4s30qt2J9v2G9dYdTdtOJKFJzgw/IvUktnAWdejWq/5lp8ZZLjI6ibyyvFXeoYG9fVpB3xFQA3ryk4oVPTaCmdmBUhWNpvNvnGeTxCkLAUhQoIOWJuQV/AXQknKjGk815KyKKftDgQSMidceamENtpuW0C5SkZB4iWss2PJ6Q/wacE89XveImuNq6qbbsnMjBXqVDGhWRQhcnNpocTWlQ1LidsL2uuNQnmvVb0WM4q11ReWW4271rbnFF9ZGwSuLN9Krdifb9hvhcENT7NbLpxcFW4Ycl5lpTEw2aFtrxi/fdbSUSjCVKcmCMGoU3IzmEqzim3ZLjI6ibyyvFXeoYG9bXZJDeiSrbuhOFONFQNJ3K8fiGrJWVbuFpwmZVWT1lbu54qTsogY/s7vSn915N2UWMFseDtb+NX7fn4lxh5AcacTcqQrERC3UBczY3Wvist7i++/m+NnqIvPB5tGKtDidU2c4g+EJ0WUpwZtAwTv7U+K8HlmVzD5Hk2k3RiQZdTcOtsIQpOYhIvLLcbd61tzii+sjYJfF2/3W7E+37DfhM23pqdQ+3UtHL2QVStxZJn1MBz9J7DFE1LPSp/nNlMatPPFSgd4wPBrHTCgdetOhp51UQHbLvhz/ppepPKrGeSiPBUMoRLXNxoSU0JozUQr/CtCcklVpS85cqb9XdEeRlvj/SANDlUU64v4vlAlmCVqJunXVY3FZ/peWV4q71DA3rc8DWPCz1EQp6xjgkHjWWqKWjya3k5oOi2PcdR+ZLaaPlX8ouXNLVtV4JjVp54uGG1vr2rKSs/KAVS4kGtvNGg/pFfRCXvPJ0fx3RqeCMnT4uXscg4EsnRXOGrFzDrW6hdHIBliUk/4iEUuHOs1q+fiy4llUk6capU3IPu4o+y2TacGZ9oj5gxgqknN55Q/bHkZb4/0jyMt8f6QkKRKtpJrVo1NHyhMpL0mu6W4rGtWU3pSoBSSKCDlhTkko2NdORAum/05OSiCUMInm9tLrr/AEmiPtMpMS/tWlJjVp541aeeKEYZzJrMDQLGTawcpaKRzmNO8Hkk/wAxd2rmT3wFTr70+ra+TRzCv5xoMpLtyze1aTReqnbFXAceVS8y4q5FO2BjyMt8f6R5GW+P9IMzMkOWRdTcqKdS2najv2Cnv5Ybb/tB7bdjBmUtXMhXiqVS7SjnKBGltob4KaPF2V4q71DA3rc7xs9RFuhaQoZiI82Z+GIoAoGYeMemX1XLLKCtR3BExOPVOvrLhGbc5MVuXuhSzK/aF8mpHP0fi9MZQvhJBjzZn4YigCgbmxqpiceS0gYgcatwDKYmZtwXK33FOFOanJbdfowZeXNe6ojuP4ayvFXeoYG9bneNnqI/AixMi6HWgq6mHEGokYkdp5LzwtxND06dE9zWd/vehCbFyhUwpxsOOPpNBuSSKE82OPvGd/1K++LtRK17ZZpPPeOTqxQucXdDgCpPaeX8NZXirvUMDetzvGz1EeOdkJJx2TYlV3K1tquVuL3xkj70nv8AUr74uJidmX0bV19ShzU3jEiKdDOG8oa1sY+7lgJSAlIFAAyehDfFEdZd6mVRSGE4Uw6NYnvOT6QhptIQ2hISlIyD8NZXirvUMDetzvGz1EeOsvxpd7QAVE1ADGYK30jw+YoU76gyI5On0Jl5ktnwdxhLaXMl0Co0fO2ECtZxJFZ5oSuYQbHSuVbo0w7ye+Eysm3obYrJ1yznJyn8PPsNJunXZdxCE5yUmiChaFIcRgqQoUFJzG28462ptL8wXG7rXJuUin5eOskHmy3orxebp1yTlF5ochLOTSs6BgjfViEJnJ5SZmfGpCdQ1vZzu+hSmJplEwyrGhxNIMfdEl8AR90SXwRFEpKMS2TSmwn8Up+asdLPvKxuONAkx90SXwRH3RJfATFAqHjkJnZRmaCDSnRUBVEfdEl8ER90SXwRAUmxEkCP5CYCEJCEDElIoA/95KNGF1KuipQxoMBaFBSTiI9ElLcUEISKSpWIQGJOlMkzhuO5XMwGYd2xK0gUuJwkb8Ut1tnG2cRi6bOENUg4x6IaI+us6lA1St6NMOhy4rSyDVy54DixQ9MaYreyDm2KVQNLcw09sBbaihYxKEBuZoacyL1qu70OUzKUTExiKtYjvhTz7hddVjUqGmKNL1bnBH/KNizcil1vCTbCFacxtTjG9F2yu6GUZR6FaLMOBtPzO9CmmaZaVza9W/b8IWKHpnC3k5O/YwlI0p3CT2i2HGllCxlEBE1Q0vb6093oQWpKiZe2+sT3wXphwuuZzk3rbbJGkpw3d7Ny7Gqb/iCtB3YoIoOa8oQbtr8tWLkzRQk3Dv5asfoJQ6u7eyMo1X0gpUrQZf8AJQce+ct6LsUTD2G5uZhybHeFIGAupe4b4Jf+0N59cO+KWXArOnKPQC7mXQ3TiGU7wgolAZVrb6890E4ycZN74Q4mmXlzl1y8nNj5tj1tOClChQYWyvGnLnGe+CkkpUMRBrgJmk6Knbp1UXTLgWPmNnNEmHUtJ3csFEi3oSfzXNVyCC46tTjhxqWaTfNy7IpdcNA74bl2tSgY85z7IXbY09vU7u54gLQooWMSk44CZlOjp2wqVGkuBR2uIjk2YpmXgjMnGo8kFEk3oCfzHK1c2SC46tTrh1yzSfEeGPJofeGCDrE/XZLwpsaWs4YzHP4mnERlEALPhCPXx88AFegr2rlWyhToujuj+GzXBSzRKN+rWrngqJKlHGo1k+J0d5P2Vk/rVm2TUhYukqFBBi4xtmtCs48XpLxCdoa0wBMs3Prt1/KNJeSvcy7HUzD6Gtwms8kFMmwXDt3cEc0afMKuPy0YKfFpl2qsq17ROeG2GU3LaBQBsoWl1bVW1MKadFC0+MpxHPFAd0VO1driiYaU16ycIRpLyHNwGvYimYfba4RrgiWZW+dsrAT3xRo3g6NqzV84KjWo5Tj8YhppN26s0JSI0MYTqq3HNsdlqU0B9GpPZBSoFKhUQcnjqcsYEwojauYQih+Xut1s9hit7Qj/ADBRF0hQWM6TTsBdLUEJzqNEecaKrM0LqKJaVo9Z5XYIw5lSE7VrBEU5c/jqAKTmEaO+KZxwfoGbZjR2Rp6cY24/BUoJQc6TRFUwV7jgpjTZdC91CqI0xLrO+mnoihE03TmJo6YpSQRufhqSQBuxhzbVOYKpPyg6Gl147iaOmNJlUI3XFUxXM6GMzSQmKXFKcOdZp/BJnZtGnHybZ1m7v7NGZlxp2uRt/r+GwSUcE0RgzbvKaemK3EOcJHdGHLtK3iRGFJq91YMClt5PujvitxaN9sx50BwgRHnrP6o87Z/WI87Z+II87Z+II87Z+II87Z/WI89Z/VHnSTwQTFTq17zaoNy2+r3aO2MCSX7ywIwJZpHCUTFTjbY9RvvjCnHuQ3PRGGor4Zp/DInpxFeNppWT1js4qYlk6brkbf6+gCJydRutsq6T3bPF+XqfypyL+sEEFKhUQcmzqZueTpuNDJ1m6d30A0RFDcwNdttwwpt1NwtOMHZpLbaS44o0JSnGYTMTNDk3kzN727u+gVy4KFjUrGMRcOpqOpWMStmNBl0XSspOJO/GDpkwrVPHHvDMPQQtuoC0HIYLjNLrH9ydlg4qliV/Myq4PfCWZdsIQPnun0HLstQ07lTrVd0Ft1BbWMh2SS20hTjisSUiswl6focXkZxpG/n9Crh5F0MhyiCtumYZzgYQ3xsgF0eDy/5ixj3hFywjCOqcVqlehpWjSHtsnEd8RpyMH8xOpOxlzLNXedZqSOWA5Mfan90YCd4eiBBFIOQwVSp0Be11v0ih9so9bWnl2IuJZpTpykYhvmAueXoyvykVJ+sBDaQhAxJSKAPRMpUApJxgwVS58HVmxp5opcapRt0VjYT7OySj8xVSeeAucX4QraCpH1gIbQEIGJKRQPRgkt6G5t26jFLCkzCc2pVFy82ppWZYo/HXDSFOr2qBTAL5TKo3cJXNAUW/CHBr3a/li9HblaQtOZQpjSwqXV/LNXNGkrQ+P0mNOYW3ukVc/wCIoYZce4CaueNNLcsndwj8opeu5pXrmgcwi4abS2jMkUekdLksinbAUH5RpTzjW4cIRpbrTu/gxhSqzuowo0xCm+GmiMfjKzRGAlTnAFMYMm5vqwemNMW0zy3UadMOO7icERSiVRdbZeEfn6WaZLNK30CPNUp4BKYq0VO85GDMPJ5j2RVOL5UCKp3/ALX1jz4fB/8AKK53/tfWK5xfIgRhTLyuYdkV6MrfcjzYK4aiY0uVZTvIEVVf/pAv/8QALhABAAEBBQcEAwEBAQEBAAAAAREAITFBUWEQIHGBkaHwMFCxwWDR8UDhgKCw/9oACAEBAAE/If8A7D5qanZNTU7JqSp/LpqT4cc9KdRDgOrFEnld8RqZ0Bf2lE9svma+OZ8CnvD+NdwYfdD9xmv51H6Cyh+hr7pqU9P314EXGvmY/gKMOLH2GohHcz+QUkDeunWVORdKDPSp/JZrn8suhbUqNeNNvaps8hp/SrurM9hZRdQ4H+FojYOKleXOdF1IBk3vkPimRPiT6ntSYrY3voan8f0sKcvgLaBL5Uh0W/FHog8ot70ATBa07H1XedjsukcVRgIYnaucoqCm5t5cmo9JJu7mto/GXCAWq4VMujZg+N3pNT4L6DzvdIq9K1Xq1adr6T6TTsdjtAxJddpVnvfy3FMIKyXLy3cwoXYyuR5/itujBMBXTW5538nWtABsTxnOx3X/ACux9C88Zb/Edn3WVVWi8S/uq0NHIHP8RAqsBnUABWSQ3y5VI8Vo2cD9tx2P+dp9R623FvbH5pYi7vONjz2a0MY0iSJ+HI7CTa3xyONZITTufxpuO4/5Xa7H02il6zaHwzalQC61bxf60o/CjGjK4Aq3hdpdA3cWksCJUlXXddjsdr67vPqtNJPK00rJrQW8bL341clLST8ItshSvmaGtA/EXzdX0Xdf9jvO5b1nNeJffQEWRK79Xg7/AILNPtBZfcLN2pBCy2Veo+q7rvPqtO4gpZOEzHCjelMaGR6OFASS0/AjXjJQBTV2gLOHl3NRFhYbzuux/wBDsd19S+lMHwv+x/DKpFUkkH4AbUZaLRCa3kuw9d2vpOx2u8+i7H0kUswzZ8D5Y0RKx5KxDB09+7uZrkZtXibYNmpzfRd9/wATvPou6+hh1BXOZOThUjE+Cx7538zXAM2tAZWw/bruO87rsd21iE5F9Oxhtn6quNpifkqIWTmp+KOEBjYHxVrbpxXdUFs/IP1UywuBTyX6ryH6rwX6rwX6piu/GlfJTUQ2dkv6rOAy+sKeYfD/AKFd/hPmizDTEy/RmnoW8FhSogCxFhNr/j8VIodHCv8At8DvLfeonQlatS2OW7m0fXaurRtC/Gr1Tk/++1Qro7LulX3HAexUEnsxdZUfBl0D8Kio/wAEVFCQHo/KrcSwFdYUVbmgHZU8h4LXUWrVfMUse1aP/b51eSXbz6aU5i4l9OHWrl51cQGCe8FRwQgq/wCO0x+749c27Y5dqjV0FvQlocZvg+rLUcDx1d6LFdwQf7mzXeEjUgRZnxKm8hiHUh+aMQbMPVD0mng1iek7juO/aajGWzNGHShOxzx92WKZsBjA+n/cvV5n+zrdSJkG+mzvR443bRyWVp4MCo9kipeXhx3opc7fKydKmRzwDZ3rlsvPBueVPqTNNjdh99cKFsaRJE91uhLzG1+ONXb7tOvtzOgVHh/lH21CBOK+CyhATcEB7ZixOYeVS7tbL89nSKVEXF+Vo01v3OLk77uXvnGO59P+MvdLYBtj3WhTlnN4Ln6DUfxI7CkkD/sXntWac7CeOdR7hFQZC4mTg3lSimHa75zmoVMYDb8tnWPRSf8AlT80Unk/R14+5WsGirOVsdP2HdWCWwq1xP8AiYtNkungec5oEALAC73YWwIQkajGviJfG70irIBzS4L/AIa0ASMmZsd21RcTcMVo0r9ja23GWo+43mrdLvB14byxa2FWg7ojwL3y2nYAw7B0uFR71FN30ogl0H5rQvwoHU7jWgCRkzN66GEt119Lyyot9vuWT/O5PlKu3RmNhsB++VQ3ithtPDOj392/heHovGx1p62liHj+240kiJI07wmBVvzBc8s/bh6NIuCp0FteDd++dO3NJBc4nCoSr7yvppRAACAMPwIGwIRJErH+KvPls0rJ85cc7hNjstG5T1jxPqoBaaJ9tuCGzww831t+7Aqcd68/7cKFj8MWrn+DX10S7mTqVKW/vY/LxrMtEYRsRyduLmT4fb9sF1lalFvgyyORZsurWW479UFwD9jD5qPwhqQCysC10ODvrROGkW7huDo27IEf5EXVZuuA9nIZ9r8Dm598imrfQtuOLk78Ku92uA/DCpja4KgxfVTxuHS/jX8twqwxv/AlpyPak0Rm0KR42H4NXACDlTsU2nwn38fh8V/OyiMeN/GjEsVtSNiYlWfpO4cjJ7TDiFSZBh1irEKbbY+a/iS89+djZmDSErYy5uPiucn89R/6cNLCOoyxBsWHQ2mDCzHhARmEBFjENHP8969vrLveJhhVaSJQMHG+HLZF0PjRGPacFaI4n4D17fWXe7uG0pYMY4o7BcBYFm22W5wXDokMXX5+/IYzIsjJGcSddsZoIZgTcBRd7v2ldl+PwHDfDCjPr3LnbH7xqXt6cFkAGQcfeO0rsvx+A4NY6nAM1rxX7rxX7oGnKAdS03VIRAjDK1rxX7rxX7oJDi8hmO+CSpQU5teK/dALchqtwW7w84gxTO1rxX7o3sktWQTts0iLocTU51FIvEp6bReIc68izvjnV8KaxokDxS83yrzAxTOFrxX7rxX7q2irCzZSegwnYRTaTXiv3Xiv3Tl0WPV0w6Oy63GQc2tCPhbRgG+Pxt4NjtWoniV4r914r914r90b2S2rIt9B+NQj5B2VEFLp1QNYjUadTH4Gi6mEf1nyq4G6fDJ6BCfbFM5S14r91H4vej+iJSDM2ZM/mHCb64jZF6xVxBSk69oDtKp3tIIvWp8v9hmL33GDnJmtZgj+Dr+DoQuTjInIGpfcJuEvyeKXlgyLr1f4Ov4Oov757KNN5zWkSzumbGGgSMdqBsI8hDgZc2Va/g60rgCoDV4MxrFjNFtsrtvSLnjgelArVcgyDAwK/g6HCEugJwaUysRMA7MblsFktXWZCEOpwkaKgyyhG41kSWF6C0rD2WWzcvhbqmOwqQfTmNpuKOKQmMniNNQuSSdgB1Zca/g6/g6RIwyFgJxl9AtNlhhGLowcafwdfwdJKiqiCI8UOoyXYP8AGxkPmiyYHFr+H3ICyck1/B1/B1/B0OEJaQE4NA+BXdjPSzjE7tu2EbFaubs9XSkLPKZgy+RY0KsedyRu5vwgvIWGkSGwoT54UH5GSkTM3nersotkxcX8iv4Ov5OolgIiDBgduMEsvoBb1c43Lra0Kv8A0aJzW7ngc/8Av69vrLtrdXf/AEvqc8hl6CJR27blpd6GMbIu9kfo4IfLF0J5duXXPAQDMHJ8I25naAuuYxzoTBNwISPTexaykWCwarBzrUKiafI7cYrUsXIdf8AMJCI5nnycz8rmVCrJSpvVxdfRh/qFtR4C68xE/IyEiZm747PtltDcCbHG3eYS4j3/AO/r2+su2t1d/wDS+pzyGXoIlHbt2yp8rwM2LjVofFpJPdBaIuMWej4KQncmfkq057l+E0uYvBHo3FqhbZjAdPJG4fDrG+dq6TvVhNABxLLxg8226+ysdj0tFZ0JxPYmJAZNRLRAajo2RU8ZJLTbgF2ON0wYub8tz/8A/wCSIjJC6oDi1Kcsr0kWIAtxZ2m/UAbbuDPDVbioIzcVWVc3aoCtgY1bGyJ71/tQ8iN9irrY9Doj2psItCyckbTckTNf6P8As4huvHZ92JLOUVLLbkn0R3qNJmOwJq9D0wOg1Zr3WZQkvSlhKf7+vb6y7a3V3/0vqc8hl6CJR27cFBsXkv5S9wOpWEHFvZq9atu2xaGG08LVnBtoUsBxzec3ZEvNoAwm4SZDUYa4jilIOhjSNuiLj1CdGnHsUsP0HNt6AALZe9LSms7ZfBxbXPZBvACXoeaUE8IFABcbbHArsvxuYioqKjaSq40ASvSojDR39Nrqu03JQ5RgUy6fDB4iwKJsKAEAbQ6wBQ5/cWUKmHlu+4wdq9RqiMWglaNTYJuhJueOz7gGCXXilwDu2FRmoscHoDhbmuyKiczIaTMy5UK14CfIC7/f17fWXbW6u/8ApfU55DL0ESjt23VkWSj5Varw3IUtbVS7svsEot/T2ddVDJJabWLGde/UubuWY0GGDLeMXJtcSk4oVonBopwCg/5AHce8WZeEj4aKMRAQG25NLd5dRuR2ldl+PSwi4823983CGzQNsJ1ZfkM3eibNJeB2jrQBJKtHakakMoPknLc8dn2mqgJWpRABvs926lj7J17fWXbW6u/+l9TnkMvQRKO3bSaQikn/AEXlvD5DASJiVJKyc42jtHJ3GWdwQZLkuHzqRwWo2DLBvNNsKIETnZuYYchC6AXptyGFML0Zg5mKjfDDx+4S3O0rsvx6WEFmt5P19shoJawCAZ51cZ+RhDHSvDvuvDvurwLj+2vFfuvFfukQsNiP7aOYuiRaKeAbX+1b9Y3PHZ9vFNXbF6vsvXt9Zdtbq7/6X1OeQy9BEo7dtKQWoXKT+HTfCKgUNSu722+R8oUG5ky6uJ9ibgNsgCDei/I9lGnGSkDc7H8jXwEwatJXLsZ8vSY5bcd0i5uHdunaV2X49LERKythaTq6tqSQ2lfwtfw9fw9fw9fy9fy9fy9ACAgyNtscHFoT97njs+2WcH4x9r2Xr2+su2t1d/8AS+pzyGXoIlHbtoGLQ37WzbRbAIput8aSL2IeW1361jKfpW+vK/sC51w3OMPHczEA0IS4PC/u9pXZfj0cN1OlfD0g/wAXXx2f2hN17fWXbW6u/wDpfU55DL0ESjt208YHl/ab4gXt8dqKNf1Cs3B/XMxCE6VNspJRj89rntxTlWwMp12DDAfZLYk02kjYR3h8IPZRLVHQBYG72ldl+PRw3U9/O8B+9rsjhNmgWvp7NmzZs2bNmzY0lCjRI25gXt9hE7fHZ/aE3Xt9Zdtbq61bWK+c/rebeC51sO9afh6CJR27a55hTfp3BROY9m0EM200kt7ZjygMMq4nS2hXABXmyuSFDCBhODjjFUbpEG27x5tbN7DtK7L8elxrsetFm1IKrA4He9d47P7Qm69vrLtyFxAHqP2DtvJPcm7t4PDE8U43Cz0SiUdu2zO9VYCzF0JuW8mdh0xYLBqsHOtS9QM9xdtpC/nD7jeRPLcNYdBymjA4OLBYjwdr0HLAIfh/6bWxCtmjWAcWh1CSP/sCd4SWldl+NuhpfPLfJK0iLBfj2gxEhDQnBsRHB4CfW8dn9oTde31l24xbA5DPdtrrc6BSdQpcgnTW3T6yG4nZKsCxazYIPLcZlrlYw9FEo7dtO1AQlCVDKyerN2QOZuineTYi3nI1IYO5854H8xzN+ymemNjeBYEHRSx5V70CIhIcf6bSKCPZtt236p4Br7RCgGqkJHaAJMctO7jTGYpjZNeV8g/eZhv315yB0M3Qq3DPnjTv4o0bvjs/tCbr2+su3HgKWLz7fcgiSoYuNM2ZJfcI2K97o975UzxS0Og1f9iVl1hI1JoVIY5DheugGAekiUdu3FkZPciYrEaQIdmpGJLw2DNRBsJn7ygSxhb4TLyKJkLYy7PYyxoIzcVWVc9tnj3jtzHpWlI7wg38HrQtbg8Lm8ubWXxsHSfQkARdixEs8w5O258IoWkImIiiUJxKcOsoR2yaV+U/dHTwTKMW1bwoP515DbKLEmq0bWGjGLcHrBLMzcDwHjWM5h8tPdQWp/TAaTJTM6RTbj9BSasktZJNxqIb91k9AeqtT5YDIm5oRRHEkrGkflrlW+XHc8dn9oTde31l24ZNMsFCdGra5Qom+Qv0DDdn1ESjt29NH8wa7NqNxykC1aJq81AHkkcAYegjFB0gbxqVhFvxvkTnO5a3LwF9yCqFoTcAEB09BQ6CwwUuWnkegmKWCAmwt/l22I2m5TqD9lzVxZhaDR0wbN0BgAyag/RosILDTc758bvLx2f2hN17fWXbqbNF4M/KGHMYpgihfscEscN+Yc8oL9A2F0y4DYBEEPQRKO3bZ9RW8pENJ0N9Xk4byxGrAFquRU6EB9rwHqMN7bYeiAQdVe/w5m5akSBMcKcoc/RIL4ZKiEaTmGQQNG6LsLo0IBGRuT0kiBEq586/VzjS1JQ4VB7DZkvpMlYhHNC41aSAjSMISzXc8dn9lTAjkb12hPDVl288EGGctiNUmlRei0WAapD4FaE1H6pFfw9DAWbiRaPrtvhs6Vie2Z4FnwBxNCxxggMhwIrHejeIQwYN+DdLS7hAoUJqgrkdHVYYYFgAuDiu4o7dtAxICONSPFUzegt7FIAFOKmcWPMUSyHeKHJtr+Xr+YWIDSARf0hN1UfI4DfT47dXp2tscMqA812kC3ub0sA40TYWBag6nlHpAESRwpNWKOzNQ9tKrgBKc1PQp2wM/kNtdcCgBVHnBa4VCS5s4S9CzADdQeYOQN4lMj6WcvG90aUuDLY3VK6TTsZ+idUiv5Wv5eirT3HNyKyq52rSoVOK+0CigQz997nRkFwp4sXu7O3CfjvjN+Jzz2r7zmcBMgdW4nFGR7FZtE6JtmeyRnT9qPRim7ZiT8UahjlfD1FHbt6lNo80UEzbeOFAzFcEB6mgshwlocOJlu5Ucm24WdNVHavP/rkyefylCJCdP01DUWAg9smiRsyLfmtAq2Omk21nIQcts7N4EKO3+dUdu/x0poUFpY5INzD0BnuKIF27w2DpP4RRXiuIBi0Wc5LsxBChk15O73sfmt3HQ2m6/UeUP86jt3+Gk/1rEK/EDgY3uWwhrJ6XmhQAAIC4NsDh/EGbDrQF7g4AXAfhqY4I+4MmeMczdS7nmaRAHL/Oo7d/hpeez3YQQQHKNwGK012zDORPEzmnCPwkUeCttppYDrbFzUOVQ5UG0Ei1vAWtaQPm9c4x4NX88hnE44/4QH+e1VQgQgS2XtTzJZpbEMEqHKkgpwJGIs4TJVGd93rT06ly7Jj9NQ5VDlTYlsM2iUlQ9dncat/oG7+3U8gx/CYgtR0Zksda8Z+q87+qZBUlbRyP9R1eCI4glS2yyvO/qvGPqgIALAPWXAwJi3xNed/Ved/VWzAh/wCFDbmIAaB/7JloswWG/iRDnfQDnlcifiUoXCQGa1CUs8jAzw25pgo9o+IoTDnac6kXMl/M0dasM8g8f9/iFktYWtch93FSWa3GavF2MKSeRaXn9TivtLV36f6HX5q+GuYSst5DwVDP4ZNJR7eJTVxaHNr/AIYsRkaFOnIsuV8c2OaoCIjh7UmTh45nMoYSXUkltWsQxOq+ntUKnCEyTD8KcXek2rkL1q1jLINjqLjQ60EICAwq6pizi0W4P55vbLMiTKH9lvPbdEG+NzqL9wD3vBQkjI4n4MoLbKj5dGdtx+vWl4/lshcHDa0xWpp+yzhNAAEBge2A6LyYH93c6RRAMKvHLccLaWv3KQllrbHkz5fgjWwM2lccmrTUtaIeTLSrtoCXCsMazf0XdfbWoK2JByXn88d3LBLRMKgEhZJ73261KsF5Zxj8AjBtXwy1qddWStP473WmUFRKJVzXa7LtwMCy8Ht4nYUFW4bWdFvLce8MOdZYldDiXNQBy8LOIXnvmXm526AveVE4dRSuyc54VjvFQ3rDTO3Ga0C2h2xDvxlqvuCWhFQYcfGNX798AgQKyIWzDlc9qneKX1SqfdpiphNt7JFrXJJpOFzmmr2KEw8y30BVgLZpnuSq29DjeeR7i1M4OWP8H54+jcAtoEhODUAx4KD4zq00/wCZuaGT3KYrKoLzOrcc2rbLzznHdyOdWz408wvo37Lqlh3cBe8jOoj3IMuGElNnM9fQdT0HYkltRflmhu5RSZZY2Lqt+akzeIbHEvqZ9smtJZ6IvNZUOb9p7VJjF/BL+c0AQEGRT6NiZbjJicWAZ1/2adnXH3S1FXhfgJU02w5Jgmj6hYAwXCxOdBEFwPnfUSn8XHtQNucA5X+0abKCLgXtZEW+w+lS0CYMuq34q1BvjyuL6Ltd/nUP61oxHZ8eIYHux2FpfHVo0/8AfFll6jsixgXOJQQA7vsLe9QprT+HGrL0Bu+7vQpNyCp/3TSMcvIO9TRAsd3lnepnwx4NCI484t70lt2u9Wrz2u478KEIwBKuAUUXtDHT65v694sFxWHQ45dK0ZEsRvN13ne1Ucn2q5EyJ/feoMNzD6M0SSnA9zWbhWv0hU3KxUlT/kmmpleqCkIP/CpUVC11necKsYzMvoB80aj/ANAWvetV9t9/8ICW6mEIUnu5tfbj7y1grWl3Hiav3H1XaklttMy5mz7VDRQsCH8qdILGP9KdsXzb6wN8y0KElWNpHSjceJbhruz+XKUgk1NCSR+WNeafdeafdeKfdBSmeWNNQz6FrxL+hXlBtQo2wN1mXWmMHmWDS7GeDdSy21gCnOVKNmcI3wqVJ5q+9ACAg09d3VAVYDFpLACDuQc8jC++73qJriEn3HiaejcjtfVdr6TUUmlRuu19F3XcdwEWwKWAos67I88uZ099BEL66/Rqp0wwUKyTY+q7X1GnY7z6rTuO3EIVWACVahNRixkzdGHG73+fgEGAeFuFPF/6lqa07zvv+h2Ox2u+70bmRSlZoMC37n8KPwHxAjdNK8sgRk6bzuux2vpPpv8AjCYqsx5rD5aftiQW14EdfwS/tKdZjm2TxczWpkkt3HffVd13nY+i7Xc1tWOi+1nGrYI1l6zMXX8Ham+3FPtqVfDi+czNfSf8TvPoux3bDI09QmO/j/1vbjQGAg/CYBituFzHCrOB8yTxKEEjJT6T6Tuu8+m7VAlsKvrOsPe4tnGkUfMHEfq6o/C0p23NqFr3ON9QeOcFpzMOe67H/O07j6M2hGOsf0vphwLSyTucXt+IDWsyEjXEXtr5fTpUZ7hf4H+Q7Xedjsd12NAuywccsKzra0Hi39hQvdiAGh+J2IMASNTg5cl+nKp1Z+fecyhBIyZm6+k7r6DvLBLYFKis/vr+U1Njw++/FlE8+IA5fi8U/K3/AFsHnU3mQ/g9q5wkDhntf9etfm+1JqbD4qw609fCwbpcdKAfjjl8viKlHNXyFlKrkf8AfJ3pny2uWUIJGT0Xdd1p2IErBm1xcxH6KaHXDt2O9RieAfsmhZthx2/IoKdUX/1UGnp4Udy3vUuk8T+6RYfQHZpCMGtPnRdA8Hed67TiasxzV+NKkUckdxVw/wAT7R80iOnJ9z3okuMDvSoIAEBh+UxSBCSUTEjQN8CZNP8Acn3S9PIPcitA47EAWZwp+ixTXRql9+SfBXm09WomxaQkABgVH/4gP//aAAwDAQACAAMAAAAQ888888888888888888888888888888888888888888888888888888888888888888888888888888888888888888888888888888888888888888888888888888888888888888888888888888888888888888888888888888888888888888888888888888888888888888888888888888888888888888888888888888888888888888888888888888888888888888888888888888888888888888888888888888888888888888888888888888888888888888888888888888888888888888888888888888888888888888888888888888888888888888888888888888888888888888888888888888888885JFxZRUqd6+8888888888888888888888888888888888888888888888884w2dzC+DdpC8ADeAw38888888888888888888888888888888888888888888VUSoK/wCQvq96wvAAfQfEmB/PPPPPPPPPPPPPPPPPPPPPPPPPPPPPPPPPPPPPPPBj6Q6i/wC0L6PWkLwAH0HwD23rjzzzzzzzzzzzzzzzzzzzzzzzzzzzzzzzzzzzyA8P6sOqP8kL4NesLwAX0HwBT3xWHTzzzzzzzzzzzzzzzzzzzzzzzzzzzzzzzzzlyWP6sOoP+sJ4NW8DwAH0HwFz3jagHjzzzzzzzzzzzzzzzzzzzzzzzzzzzzzzw8JY4P6sOov+0L4PUsLwAH8HwDR3y68PbbzzzzzzzzzzzzzzzzzzzzzzzzzzzzySEF76v6sOoG4Wj09y8znt1cDEPT3174NXfTzzzzzzzzzzzzzzzzzzzzzzzzzzy/yslb4rDA2Rzzzzzzzzzzzzzw/w37f7oPV177zzzzzzzzzzzzzzzzzzzzzzzzyOD68FfyW3zzzzzzzzzzzzzzzzzzzzw7rQDRWErzzzzzzzzzzzzzzzzzzzzzzzziAP6zajzzzzzzzzzzzzzzzzzzzzzzzzzzO15WlNTzzzzzzzzzzzzzzzzzzzzzzwMhNtDzzzzzzzzzzzzzzzzzzzzzzzzzzzzzyzGFZ/3zzzzzzzzzzzzzzzzzzzzzhypXzzzzzzzzzzzzzzzzzzzzzzzzzzzzzzzzzx9KKTzzzzzzzzzzzzzzzzzzzzw3tLzzzzzzzzzzzzzzzzzzzzzzzzzzzzzzzzzzzzx8/rzzzzzzzzzzzzzzzzzzzw5zzzzzzzzzzzzzzzzzzzzzzzzzzzzzzzzzzzzzzzzWvzzzzzzzzzzzzzzzzzzzzzzzzzzzzzzzzzzzzzzzzzzzzzzzzzzzzzzzzzzzzzzzzzzzzzzzzzzzzzzzzygTTzzzzzzzzzzzzzzzzzzzzzzzzzzzzzzzzzzzzzzzzzzzzzzzzzzzzzzzzzzzzyhTzzzzzzzzzzzzzzzzzzzzzzzzzzxQzzzzzzzzzzzzzzzzzzzzzzzzzzzzzzzzDRzzzzzzzzzzzzzzzzzzzzzzzzzzyjzzzzzzzzzzzzzzzzzzzzzzzzzzzzzzzzzTjThTjzzjyTzhxRjwxDzzzjzzzTxDxyzyjTzRhwzDzzjzQxyzzzzzzzzzzzzzzzyhShTzzyhSjyjyzzzyzizSxzzzzgTzTjzjThTjTjxzyhTzzCjzzzzzzzzzzzzzzyhShTzzyhSjyjzhwzzTzyzyzyxTxxjzwwzwTywwxDxShTiQwzzzzzzzzzzzzzzzyhShTzzyhSjyjyxzzhzhTjTzxzwDyjzzzzjSjywCTxShTxzzzzzzzzzzzzzzzzzyhShTzzyhSjyjzjzzzyhTwizjzxTyjzzzyhzzzzzzzShTjzzzzzzzzzzzzzzzzzyhSjyjTyjyjyjzjTyjThzyzwjzjzyjyzzyzSiwwwwxyhSjzzzzzzzzzzzzzzzzzyhTzSzjgzyjyjzzjSDyjzyzzzwTzyhyjzDRDwjTzAxyhSjzzzzzzzzzzzzzzzzzyhTxzzzzjSjyjzjQzzzTzzwjyzzzzxTzzxzzDzyzyhShSjzzzzzzzzzzzzzzzzjzxTzzhQDwzzyjzggiCzzzzyjwDzzzzyywzzyyiRjCzywwzzzzzzzzzzzzzzzyhxyzzzzzzzzzzyjyjzzzzzyQjzhTzzzzzzzzzzzzzzzzzzzzzzzzzzzzzzzzzzyzDjTzzzzzzzzzyjijzzzzzxDDzDzzzzzzzzzzzzzzzzzzzzzzzzzzzzzzzzzzzzzwzzzzzzzzzzzzxyzzzzzzyzxzzzzzzzzzzzzzzzzzzzzzzzzzzzzzzzzzzzzzzzzzzzzzzzzzzzzzzzzzzzzzzzzzzzzzzzzzzzzzzzzzzzzzzzzzzzzzzzzzzzzzzzzyP7zzzzzzzzzzzzzzzzzzzzzzzzzzzzzzzzzzzzzzz7XzzzzzzzzzzzzzzzzzzzzLDbzzzzzzzzzzzzzzzzzzzzzzzzzzzzzzzzzzzyzNA7zzzzzzzzzzzzzzzzzzzy7mpLjzzzzzzzzzzzzzzzzzzzzzzzzzzzzzzzzih3lLzzzzzzzzzzzzzzzzzzzzzy6oO2ijzzzzzzzzzzzzzzzzzzzzzzzzzzzzyXupKxTzzzzzzzzzzzzzzzzzzzzzzxYP6sL1nzzzzzzzzzzzzzzzzzzzzzzzzhZF9WlS3zzzzzzzzzzzzzzzzzzzzzzzzEr6kHZ1FnLzzzzzzzzzzzzzzzzzzjG324N1W+jzzzzzzzzzzzzzzzzzzzzzzzzzxhqsFb4P5qVX/jTzzzzzzzzzEp9vd/zbsNXcDzzzzzzzzzzzzzzzzzzzzzzzzzzzw2kFbcP6sOq52TK77b39WGJ6LwHz3z64NxpzzzzzzzzzzzzzzzzzzzzzzzzzzzzzwAf78P6sOov/0L4NesHwAH0HwDT3zroFtzzzzzzzzzzzzzzzzzzzzzzzzzzzzzzzy96SP6sOov/kL4r2sfwAH0HwDzX37HDzzzzzzzzzzzzzzzzzzzzzzzzzzzzzzzzzy7KX6sOqv+kL4NWsLwEH0HwBRVnOHzzzzzzzzzzzzzzzzzzzzzzzzzzzzzzzzzzzzzb+NOov8ApC+KVjC8AB9B8Bc+Zc8888888888888888888888888888888888888888NdyH9jC+D1tm8AR9B5QSl88888888888888888888888888888888888888888888drLmF9iVjA6NDnJEc8888888888888888888888888888888888888888888888888cMc+fNuf9c888888888888888888888888888888888888888888888888888888888888888888888888888888888888888888888888888888888888888888888888888888888888888888888888888888888888888888888888888888888888888888888888888888888888888888888888888888888888888888888888888888888888888888888888888888888888888888888888888888888888888888888888888888888888888888888888888888888888888888888888888888888888888888888888888888888888888888888888888888888888888888888888888888888888888888888888888888888888888888888888888888888888888888888888888888888888888888888888888888888888888888888888888888888888888888888888888888888888888888//EAC0RAQABAQYFBAMBAAMBAAAAAAERABAhMUFRYXGBkaHBIECx0VDh8DCAkPGg/9oACAEDAQE/EP8AmnKguxNfKi75isOcR+hp2E6v1SC5sNEwnijy1iX5p4q9ugn2NXtxgY6/k8T01wOrdUGA2vd36ajpn1vdsO1QhjYij/BBxrHEucX9can0nU7396lgNrHo+JpagMkh/GArBUAe648j7ioLcl7th53oBAUWnpPSWQMHc+NKnpDiHJxOc1N1uyeDh+JWC3Hgz+N6JN0seWlhYWn+RYUUgOmSSVMymrDk5c+1MXhk/hSiEwCoL4gcdfjjQGBdRYWFp6T0lhRbf/6OZwadeFMTg84cPwce7s3I/tKgDKxWL+tqLCwsLT/IsKPQiCRoWDu/126aUjQhPwF17jF8G/xQSIP6/wBBYWFFh6y0sKPQWOCA6cW+j12gDFyPvtHDF8G/xUCYUegsKKhBvVyC8L/iaurkgHdntS7gOLPYD5rD3IfLWk+B9KXl+L4r/wBNX/tqB+5rCl0XyU5eOIeIrsGSeWm4xwR+Yq6Ve4+JK7OCUM4Ueticf0Hw09CBcjk+8B3Bm6H3pQswLD0BXI6YvQvqTXubjy/FTgJ2eWWm5a3V/wBxS8pEiGiydGSoIZ1L3k+Kg07C7qSdUosYOYz6jbURo+zLXDSki590aUpBRbFXrq/2FFhTsIM1ipNi1wPvtzqfNgud8e9KrL7aS17Pzk86jTjUufp7VGBFsP75TYWzt6rui58HPfj7q7vT2Pt/s7CowxvS3828H30qatb+DA5e7GLynRbW90cTubVFSDLwcH52oZvLCZkISs5u9amnEweufuIwM130P7KgggpmIDNqSOXVhyM/7GpFVv8A134BgfYHBxO5tUQ1FXPLXlYYGYt9ODh3ypwUJj7ZiCVrPYv4n6woZnsPOlcJoGB/av4Mw8JglclOxOOvzxoqdMyogNfb9seM+2TvF7LhOXTHpUjcmeZ4acaRqS/hsEHNYPE841jFiZZJgmpPOMaKiEYTc9rgGLMb76/iTbgwS5KUbpGbrxc97/8A4RETRcpkMnZy0YpA4GT+IhJDivGr21oLsk5sYrxZ5R7WVGU88Hk9pq4mMgx/ZVz85Rh+n8KNQrAMafADE+7wc9KIouCXRucDvHt4Bcp3MnxS0pHJqRWHVhyfD2pA4Mn8Eib6YcjP43oe6gseWhw50oEtSJT+0eb2j2+BxgmpnT8yElkHbvmcGp9dr+Q/11JiRMn30bZM1cOfglqA5tg5Z8+lAIEFFcRVtm64HPT3MWl7Fo6c8t+NhZFkuuCc6l4vRueuD2qelbnunhmdg+3kVEpx7ujPnPChkQMi1f7u5yCkfvOhkGx7kVSY0E95jX7osLIuxuTU8hdTvf3qUd2vdsal0HRu9ooG4Rd1bu9Q4zpeeuB3qPGG4/RyCgjD0NUgXq1PmMFru45aHP3axRQUujg0/Vh6CosBuDV/Tezd0Z7Ve58Un3WJqbQ/F9Mwq3E+f8wVgrF9yY64VgQd36mohV2Ed2fFQqK63nfxQCBFpaoXtTV0YjNobHfhj7x6ITomjU9IGJmfrRosLCwsKDgTWJjkrQXB+1AXDmeSk/Q+q33QrddCvoo/dFZX0+qvviC8RWDjxl+Zrt6AUEYWFHqmL2uAIGex5ffh4g77NRAuMfI1LCwsLC09ZaWFHpXPAZ1cpYHNsNvnhj+APRDBKmzoOT9P9tQzfYWFhaf5FhR6HcM6uwZtIOBZu/0w4/hIPyxw14PWjJx3OJlRYWFp/kWFFkxfRLyXA4vg7U8nuxsGX9P4YgkNP6+o2M6MOZlynlRkSZjNFhaf5FhRTgk0r39c4qYfYMXi+COf4qcxbYczBpYTP4vP3yoe7XTB6N9FFh/kUuIBm1L7KwdcOk1OzvLFzxdIpVSt/wCNFUjUUONL3zf3qGDnrw/dXQybE74d67JiNCOHoiwSEFfCBl6E1dSPCDvf2qZEdXq3dqkB427pgflJrt+I81hPWn5oaBdPpW8oY8coPgry9fdIyjxZ/wClT//EAC0RAQABAQUHBQEAAgMAAAAAAAEAERAhMVFhQXGBkaHB0UBQseHwIDDxgJCg/9oACAECAQE/EP8AmmBQBq0nx2v+KzHm4PNIVvnI8xq/h0gYGYpx+iYNuB5ncQfuYtOJK19yqNEcsXkSuVOtzoeZWS6yudcesrJrVrD+CFophMdTSt3LCUAI8npd0lNVeuHM70lLYZl/tgCq3SuNomHPxWVMaa51xilVbCELSEIWEIWVR1oyn07Mx5YfEpAum3l7SAt0nd2fOkZTQWHHPjMYQsIQ/gsLCELCEBuE2kpZ1MmPE/cYKMmXsrEQbWOvz53ZfMU6lW0hYQhaQhCwhCwhCy6wzNjvIAbkz3ePY6wb9htf2cq8oMBgfethaQsIQ/ghCwhC0hYQVVMYhRLtnl55wBUqewUJi4dzp8yoSX66whaQsIQ/ghCwhCwhCwtXGr1H1pDqVHb66iS/CO7p8zbhAwsIWkoxVmIfG75pLy4xX4IS9Xcfb8TGy4niZy3r5mAD5+Z/rCf6wmKciYqeb5mDrcXvWYIOT4mEDvE8y/AjRO9GY07w2ELC0g9KrpqQE9R9YqvFgzfGcTKv4pusLCEx2TPA5t0OB6C97HzKAu9XYoQqhbgH+dBuZhNwueZSXuy1vO3eX1Q/mGMqoDrC0sYUvYOT4g1KnqmfoFWabAZH7GFhBa02BWUkgyxfBz4SnDVXumHSAKB6ammNSVmr5N55OsQrXzF59cbCwlIa5izMuHqlrV7fq+CEIOetJh/qbXxzlOgad3F9Wg3MqA1R3MJXya53Me2thAK0S8hvYXJr9+orS7A0Nr41iq1YBUmwlNWjJjxdn7CECjT9f7BUAa53I3WtmMPqxgbfud2fCARLn0yNaBeyq+5cNDzjDlOs7Zy9C2li/sj2M1Coyo37k4ZfG6LqAZyopk7vrx6a8JuKGNNvPDnKIquzZN+e6GDoHs2JZsdpNopxMsnJhhqjf6WpXropXIyMvaUx1HZBWGYeP/CIICt8bS2mpt0rA4kwT2iujVwPOUqy2m6uBy9LRB/YnE60lWqu0sHw6w/rKx4Znsrh6BAv/DTzCjfC9P7bC70rfFUNoaO0huiTaShHUyY8Tbw6wMFNp7EEponfKXqU2Aw+4FWUGnbPY4fPp9dYsnZBJolEhKyWjY7yUstYxdyExB2l/rq2v8tvKV/uTx2cJVWq2XZd9+vU7JzBmZ8NukIWVWDTEeEo9SzLzlidZSqGj6qrmmF74lS7hz8SuGrYQG73oZzDLP1fUgUKjKI727Ry8QsLD61mNJTyDk8y7pKeaZ5YfEOGDtGvpBbs028sZeLWbccsfiVsoZC4++Mx/gQdVgb9NNPV1iQRrePFmebCwhZWgWikulg1L+ZSXO2418TCgdbvm6BVPcR/xoCqzBJxPiYpd080l3Gb2vxSV6qGRd8RSqthaQK4SjDv4GWu/wCPWm1UeY5kTHVYbCedIWELSFl9qkwNcWZi3h4mDFwfMDiufmaDmwynNjsupMGHPzMHNwO9ZiSbrviM1beVlVsIQsLS9pLmb9i+Xt6+sCHmamsv6VMOxybCFpCwhC0hCFhCFpCwsIBVYVBV2TLfr8fHsC8SYjHEnaG08kwuYWkLSH8EIWEIWkLCHap/YwU3hsN3n2PGV/tzvy3kRtXR3NpCwhD+CELCELSFlL7k7jvLhQ6u99mWj1P10qtMzY8Hb04xisNiUhCwhD+CELCELCEaGlmbj74Sj77cDce1UXB14OJMT9DP64x+jhnicy6whD+CELCEJSjVlNd5Y8sZQQ3mHLzWAFDD20GgqStNVnc+ukfHhDueJhtDVXpj0jfNBJRLSEInQLPkkU+ZR1B31el3WU5Z8jz1gNA3C/nj7og4zEFvCdqFPiXg9flAPt5TDT1e87OiB0A3FP8ApU//xAAuEAEAAQMDAwMEAgMBAQEBAAABEQAhMRBBUWFxgSCRoTBQsfBgwUDR4fGAoLD/2gAIAQEAAT8Q/wD2G5rFQKjzUe/apKhUKhS1GK6xQH+XQ5mgpQMJIeLp+KMCOUnpCe8xRQUGBkjmPa0QRNi58FQQ/W1rqWiz+6FS5jqP4NEoW5PyVAyPdflTPNzsojlZvfwqJGfvRTjaiv8ANWCCGwj4te10G+b80Qc2ifYvijhijLusRfdpszCY48WPmrossufEkfioRM25/ksDepQ2+dbTaReClBvMRS9w1uoXYtvvFEmaSQkHa1DxRj1GAppNXFNNb05pxU0ujmmmsqGAnAGgyeABYcXvwo8EMBP3ZVQoNln2j5Xmi7MYbOB/GVHG/wDHljNTpYSvuoXgpTZPyMTLy0sjFf8Ao3lUqgLihd70oNTW1ONXR0c0jTWWjmmkpzWGmWggCGwmK26tkHS8jupB+cSflT8varnVCPdR7MgnWlM/xaJ0mhEipQAyq4pN+ZICdT+x0q++GRThbqG5F8tUcq3Xvqaw0fQ49JpzTTZpIdHNPOrD0Mqa3qVAqlbrkdnrRjMMukOJfcU6VuJ6TdApDjsIncILJ2qa3/iYndgp+VbFWYy0y7kh7AKSaVyL2zPeTrRAAABYCstHRrDRpJqI0XVp0WWnGjnRIpto59I5pvo40ahPWCfnx3A6ipJrEFbm78Y3SiVjDg8gt/EGhhAlVAFNzhLvS3TifClSA5B+KWnrJ66OKmstTo6NJNOjv6EjRzSSaOdHNLplWGjol6dHGiTW9NIG0Y/dvuW4JSCvAdRyn8igQ8jCGESydf4csVZEAcMmOt4TUmubgI8Cu8dCkjXClpz6DenSdI0euu9OjmnRzo5rDRzqV9EvTfRxoujqu9dwc2GW6PUaTRcuOxlsh3tA3FKT+FQ2Je5ZWnjTWBl01vk4DNS1GI5JN16ujcp0wprLTDRpW0acaLFJomjo2acU1lot6dHOpzo5p0cVMU50c6ZVhQImZQgwowjkTZL0iQ2xn8T/AN4UCWZmB3HcTcYTcoZP4OElWBd5193iW1GSGmadYP7DiC3obmqTTWWiQaOqadGm+ixSy020c06LOjmmmm9JJo50Wab0s1hTTo51NNTanMriNMbTEsYEDZ2Q6n5WgzanZAbhvP8ABEGafXiwn4TYL4OZSK7jjUEX9DBFRNNOjinRxWKc6nGjok06NOdJimstHNNb1lo0kmiy0raOdG7q6LZ0bOmVYaJTZo0aXpeAXRyU4AQ0kYBLNwhbmSaQQkS4n8CVC0ENdVbAVd/aeLubva6BmAAAsAWNGxo6WapJTWWgp0bmqSaLTellppvTo51c6OaabU59A4pzSWpErCm1OdHOjmkmnNOiUgEQRsjvRkywVpzxvI9wZphvKD8JkbNN/v8ALjM3sBlVsBdcUpGXK3Btyu5h1NynOjTTox6XOpxTe9Yab06Nq30bam1ZU40y0aac0supzSwU5p0aaGmWjW9b6NONV4GRPkV298QjYkitFaHyFz3X4R+/FBNnKsFlGwFXjqXAfkTLtg3V0dH0nRvo6CtqacaOqxTimkpzTos0sHoN2m2iRWGi6NOi2pxqdHNYVvW9LNOdXrRAcJWC24N4b9QostlsJBl2D1LJCKP3wrAjqrCyjYKvEQkord5d/AtlvTplokujphTjRprLTCkmnNNRFLXdsDSniKQLRLOS9UHzUIwooX1SSOw0+IlaW+KJFBgt2Sy+KuWP2CB7ijxRN3pJ/M6AXexce1Fst5Uf+yoo/wBmk/8As0UgVyYe9ErDFj+/SW/tjgq4J4uFL3hHhqKbZvPeGHzSBH8qngKgzEBbqCy7hV74Rck90PmnB4yYFkRuPSnnTKs0s002pdHOiXppzpvSTq1FEmAC7cygeXIrllFcZeykKUTe8iWCJZ+9GWmmSuwBurABlavbNuwngVu7YLSuVNTo6NtG+jYdW9NZUoFWAytXm2EyFxMGPNFTFZg+1ol/4U0B5c2YkPmPFDvRz7UT800wCgDnqLxVo/kAQYLCkrQOIqI+slIclAMVAHhAOOcGpVAs2T4VFPpbjcHCPzTOX2VmEHG8HYq8qDCe0n8LrSk8Yna7xEnxUgIKwjJo6OmVJJosU06LFNNqWguSBITpeBJXKuRDBcbChe+LJvZJEfvDN+OQIlVoTcKHC8IctjYxldGzTSRo2dEn0OkTSg+g9uwtIJ3Z/tmQqZm2LtXjwFKYN5SiJJoeAq1EUIOwWoAx/mIOSaAY8BA6jZpTq4qveWHOETpSrrDdneAYtruyjANKT5n8KMWSOiFgF7lJd0Z1LanPqLOkI412x44L0t7qzIK+m3sImRERG4iOPu0CadmXys6z1THL0aGlmnFOiX0bmjnTmNkxd8XlKeEUXBRhEB8qNXyJNObXgjRUB/0QBQDFvskGnCalnPmAlJtYw0L7L0BSF8gWHgRbjbW17wX9CXNL0OjSzTTjRpIXDdZLR8YCZCF7i4wMIEiJkRmfuiw1I0QlQsWDsDLx1WQAAACANGm1PpLBWa2KC8WBaXu1LgzskHg7UDeMjM5kgj3TVkXY/YBb7YC1YGPwoRoxqsKmbzN7VJZYJYPVIfK9K+exlkQ/FYadHHpOdHylsiWWTl7Gd4oZ+5qEORJBMDgR6qG9Jv8AilbKndVWnRpz6OVApoj3BVvBL0reR7J2k+CjFEwBdSyu7QDH3BLQa9AFPOQ6iVbrMy26B71LyQXsLsJkgk6UMglxvJSxSRok6LoAyjMikRLiJcRuJimMwigZoI5wO0GwPuUz7oMscBurAG6lTPvvZCWLtKruq6ZatmktRMgGVYCpB9oqHJ/CR1qDRQzMOgUfKgHtBwAwAYPuzcOGAuRGyUtJQwkt7/ybqXi9iC5h94RyokJcJI6YaOdR+3DI60fJ2fDkKcpjgmtxwI82SyfcFiuQZew/JceXCo0c6NqIqAEqsBQllaAm5/EwUVfFQjyvmLvWoA/d9tWTSN0KI8ny8HVRJEp61V/vUAomwkj50dUvTHJDP8AjbpyqofblgpljxA3MfGSKAQAW3LL71OoVbbyNzYcs4li6UkPHA+suh3ZdaAffkmrt/I3WWuwoWbSJcrEol9CdFpsx6BEAIRJEq4fwzEScre6J+3GzuHAiVegFGHFtb6Ecsq69BoWXQerRDsO7WPVTpNDWXXQnDv5xQD8QYAMAGKj+AZpYDDyGRHI8U835DVugXXWXyU0u+xUGy8obbg20FRFZ5KDAtug9hFtRrcRShJJsmE2R+2wWxn2D80V6Q30W9XkAVQAlVsAbrxU9RgEgOuxfPRRcDTHlumU8qv8ABSt/qyA7JkNkE2ahBcoCPXYBxbv02WFx6Ewg3Ecjc0blNcUY7Zy7LDk5UM/a5cqAzAYOVwdWpnT50hwPQDw0eR7CTL6bfoleN6LEMuO7c2vW63aAY/hAEvijrLAmzixO9A2FZEVF+gLXCS9Nyllg/vJXbZNxTegmJeeVknqI9nf7UsVNpAAHRv8Akf8AcpRd7UOQ6Aw9n/0KFkCA/wDo65f4ZE4aDiEf0qMZS4N1L5LrdnEGZsiKgQoYRG4jZHFLc5ybW78jv1/aug+8wV80mzTWyWJLDSPytTUYQXeplvnfjZQRisfw1CzRDlk3DmA+EbOi1L3faCkm04CnKINqKIdZy4m6inb7SHJiy+gywSEt8RV5zFDsSv2sGwfxInrZC14d/gcIlqe5gAEgMy243BEIfzwH/wAQSclSclTP86Vaa8+MLAxIiKywOnTpKpWAanwhCkOwgGT+ekIWDt94ZG9xzcuZkGAoJlFWkSUG6MO7hRTkuCANIgiJZH+BEIWDt93YiJEk4xQJeIi8QQQAgIAAAqalN6cgL+QqyMScFREvv0hS1SCT8gMYROTVsW2qn9GJCXBJyVg7fd/l/wAV+v4a/H+/JtpNmHQSElkEGEadCyazdQc7JL0vAlZkxH3f5f8AFfr+Gvx/vyOzb5pKiwBdXWXLSOABIwBEkbPpUZqEigFAJUDq6y5YOvrskgFETCetViiQmFAlB3NJbUyOTAAmqoAZWhn03Q0VEiACk2nSWpqzVWAE1XAaTFML1XKZPDYUihKAtcn46kABO4RjmN/Sai72zd2vpfjVMHUjJsVM+q/7FuqQApIk9NZcva5s8MMhJNz6C4hncCUTJYFg41lywVwIZEyUTYnMPGkGcLuqBKASoXcpTBhvyW1UIIBR2s1eIj5QBJi5HJ6JcuWpqyVWACargPXNIJgNBMlKA2S9gKn3KYHKWvaVJkXFx54BfamNXAc94HzUwVyTnKkfD9B00IfViQEsNtJaJUQurZqeIpapIhZEREpYoWoTDDMkgq5YlvUuzvcvQm7ijOaiM4y2uYlSTHH+sPiFK9BUqlktAzA3/MkWuCSjd4gCFXA0/d/6r9n/AKp5+HuDmYYJLWhNIMg6rAtXp05YGDllIRMCaT9n/qv3f+qf8lRYZPkGCAXHqTx98AakuCwnrSUD6FrLc3aAusog/s/9UoR3Sh2QkepUq6ErON9YWJDL0A8m+0SwLwoGLxQEGBEYu2BYcGZVX9n/AKpQmSE7ZCETIjJRxlhxuTQEk2EIKyu5QpDNjhkb8FLKqXGYAnm3oLfo8y4sE6iUwU4iBtrlgbyMXSLFAJn2SicgiAEEQRPQW2CCUAKDFAKEpei2DLnATi0InkLqv2f+q/Z/6oUdzQACozBnU3Y9WKdeM4NP8XRg5r9n/qv2f+qCKGqoBLEWxcQ5E2pDCxEladxPAKEjQTISYT/V6BOFo4dpr9n/AKr9n/qv2f8AqlCZAnGEIRMiMlDKICNn2QSCLCuvoWKdUUhUBMAqLgiiIy9TFok6i4nvXW0yUGiVKBLvHom/FTTxG0JkHEegKg921hoMi1yjJlAUeYIJYkQsiXE9LagH4cqlM5JWBICZ/Z/6r9X/AKqEwNmMAwJpWkQEUxw2RixDQt4JYl+FUsMufi6sOgwbBWfsdwhCwdtcnb6cIhW/VcfoINv7zg1SVN2R0TEx3g9j6BEjDsFELYNzACaiz/AlMs3uOygREQRNUkowiCQigGIYNurGs/hS4uP/AG3FYyW+OF0UPn1IvuYGyjonqKX8tG9p2kDoBrkrHRmxTCQ+oqIPrlF13iISaX2YXcCxdxVL/DT6VpUbqVXL9G/subDvrX4fFUgwQyxIhZERE9Dj0PVLUwKhEANwQYdwch6jJQhdWT8D9gIQsHbXJ2+nCIVv1XH6CDb+84PSgFeifkR1kOtR2uCKpOXHow9KyUpfO0rjaqzQ8FGgvQD6JmBuSQSKtjSGAoJdF9TxNHJVK3QulyGsOm81EPAkVC3mxC7u/qmtlDCDhbjB/o1UCoASrgpkZazlCHiwbaFK3HiEwybQZUzJRMqQEq0gJBLiYdRWBA8ycuWLJlGH0SpUoeOCVUAnE7gGVC9dLV+PEEqXuICA0CtbRAiuCYmy24Cri6KokGVG6qqrdVXVEAEqYA5oEq5LPFbHVRduMuxiBo94qAuypsG/93VOf0h4RhOiD6FLsOJaZFlZhXZWA+hx6nrQEYiD3aJRihEdxF+KRAYlQB5XxXzZSjCD2oDIag/EBCmMMoF/sBCFg7a5O304RCt+q4/QQbf3nB6AJaADQDok0MKAUUG/wAu9xsp3dW7URSTR0mCpkAuJ8zqWLAS9ASMlIZEc3QXNVDoAHkDAA6lRak3ELRdiVLKW+p61iYk/OSk5I6iDszshdDqGQi1gKPzD3KGT0PzT32wRuJTbUEYdiAVBncOfkUUj7QaADAAEaJNGSKMrj0r9Pw1uGWI3Vh196h196h196h199ckWpnL6AXxVvqTbzSLAmJl++u1JaqovdVgAVQFAYgER9oWQV5BJi0lOpg0AQAFgDaoikKnZAG+3eZlUthhBLSEo9SfeFES5IzZdFZiuUE3i3AOWp1LDEp5owwwmyOrj0vWaGXQECt0EF0AVqAKTbSzLMzG1lXqKhxHaiubRKDK3di6OKNPkgHAwDoH2AhCwdtcnb6cIhW/VcfoINv7zg1nFbGByeCQrsC7UUoTyRAtyl7SBYPTdZf3ar3uA3GyZ0BIISI2TVlqWIsc/iYnLd9Xv+8oHPcn2dZkA2QhAW2QE6lWVStAhhcDnJDv6FYBMYguoB1PNQRI4gEBreStlwiDzCTcPR8v+K/X8Nfj+tG+wgiMUI2E/9qWXTLVsRuzKcI9hs2JvTsEfNB6guDmbUfgoDCJI6YoOgcZ9myHwR21ceh7JCDiAS0rvGRlOAggp9lIQhYO2uTt9OEQrfquP0EG395wammCSyDzgbhKYrHpXtUcmQg5EUikGQ1XUE7zedUEZzsCGe8fzRjUoiMRLc7gkWkQUBKcJujZGycmqDxlAtit3YDlc64qxwDlO6aYHZK19Y7lukILqgO9MmkTIlk/94ej5f8V+v4a/H9aHM1MtjP7J66h0fexksAlXaKQUtwTweUDWtWRB9vANTRoEdpBEciUBHZ0v4KMsnrrPezjhWniTscauPQ9nNL2JyuRC9Fox9lIQsHbXJ2+nCIVv1XH6CDb+84NYQGHVxcHX4HqcVCKECCW3lXddSQQlRw/8KsNW5UeVm7gCgghg21dl6YIZFO7C6nCom2mhCDuIjOloL8QVVJwQG6hQRiSASSOlhwA1e+SYblkm9j3UW9Hy/wCK/X8Nfj+pbFRuq2xHOkjUDAIQiSJX7Z/VftH9V+0f1XM36cV+tf1X61/VfrX9URABAEAasSEY3QGpx6HpEhJFtBvsHn7MQhYO2uTt9OEQrfquP0EG395wak7IrbEX5fXCAEpGVDv8apNLThGKMehJ8dgtjI2gy4HURogEQDZHDUx7xwoTekiW7oQC4lpAAzfhyFqUt87HhJvRMevpvl/xX6/hr8f1IldqXGfY4XwH+CQceh6BZBc0Y+zJCFg7a5O304RCt+q4/QQbf3nBrIBWI4AD59YP3u2/AGttsXBwKw8+jIrkJy+ik81eNrQjI3/btVt5OhNCGWz6ipktT3NNuv3cn0GrpwPREIu5HWG9Q8wnIAGwAEdPT8v+K/X8Nfj+pULtRxQh9i/ga9FejhBKdAfpsWLFixYsWLFiyxmiWiDbilxWoOPtT1yQhYO2uTtTgcq9ya4J3/v6oY8ZTwh3UHmnXzaegH9fQQbf3nBqpfAVcff8B6mxTprOO0dOkruusgLb02leCVGPTFhBIIPnl2eneSNHwCnAIryp4p8uvhW7pN886GZAE8BBrEsykDfFbkED0HPq+X/Ffr+GrGLYHqtyrY4uGTXnVsTGSIBXtUDv71Hf3qO/vUd/eo7+9R396jv71Hf3qO/vUd/f0OPtT1yQhYO2rcqFXO/Yi+38aqUkEbpPt8Ghk9JEs4UiHjgyeJvSy/QQbf3nBrEu8WNsOAr0eM0MnpJUNKSUo6IN0U5NLN/PnXQS0/FgcXd9l6lzKIe6JbgJ/KGFq2q0FCiNsgj1NZPZrbl84BA2e00nCbAJQBjKgHVoQ0ZEyGVuLnBBt6kMJVAeK/f8NWwIYF5U/wBPW75CGBdeWF3ayRALEiQ1MGAGGXN99xLNn6rj7U9ckIWDt6FAr2WSPV/E1ZOFm3+EzxR2jlkLwYTmJLJ6DkkNISp+zgqYkFhPJ2lnbMt79BBt/ecGoRSEyJEhprZFo4CnhsbhBL6FEObV7ks2FeDmE1Y6qpcyWOrPkbEepJKuGvGOSDE2+L1T/wAqo5EuVR6clBB61bIQQjB6zcruxOAOpJ7+sVYC1koRlQ+oqPEkaJEk1u0m+cp1hVAxcZBoTvu00eoERAUIgievOCZmibjLQxIuw1KcMcHZHnNuQtv6HH2p65IQsHb0bYArHwzAm4GuKw6v+oWAAjNoJhEAmgYWEJ7tsyHcxOKm8QhIDohfag8GBTjEH/mY4qJfvAWUgBaFEXVK/RQbf3nB6GxrPGJstYlrJOoISVBGNtyatmDuVCecsLxbUxCZX3CFdEahKqbEoy3aYMZMTgXF0VRIMqW6qqrdVXWWo0EkA7AHUQZSuhSJvPqwF/W1zfGWEXoQfWjz6DNGR3kEIN5sxu71uKlNDBCTvQd24tVYKRYSP7OAyNkQQbIbljpD++oCBuEn5NDxJKJ2dkSYXhdiCpGBCT3OHIjcREEdWRmXJLhxYg84n0E1rg7EXQ2wksAwIphOISaGYTPAxy5qaDkxT3Edkoe0kyIomOyeJHT2ooHSnHgtE6g9JqFJeAN4ZBw93dRMoh4olcwjpR5XSCbhI+Gk7GxeRRKluqy6uPtT1yQhYO3olrO/DL4vdCmjLXCahsoRDHoQKYalzWfpoNv7zg9OKfc2k90oZD3Icvb0GvKo2KLM9UIQrZAOJN3PriujGUgNxFIps4kqAFRuy+gbegsgR8wEvUt1Crb7eBwugA+gPVaHNJgw+Xwg/QuGHumV0GCUWMquXV8iQsyjXD34RSUHKs1BLDXKw5TK5L6FCBsyfNCpAeT/AEUAgAsFh6P3/L0QnH2p65IQsHb0hn0qwsMQVgLgpCMULxXEAJG1hXUgikfXvaZ+mCTIFIMgodZGExIMfP0EG395wavGlanmcsgbAwIaEAIokRsnqO9KgQoMAF1WwF1xT9gAE98cC26xZlOD6M64LCDKx7wivxnojLgoOX3SC9C0M/QnaG4GG4RSndncqtomRBHHMkJlBSiROR+kudoU8OESRicKELBKTKy7AXJK0l2TOVCR9ELWgeIyF8QG7T312DDqRgJIpazq4+zPXIIZTnDP+E1QQTetVg7epZuAt1MRIrMiszdCBhLAYE5q2lF2OK/5CBIS8KV+0f3TdegRHAF3xU8nZWxlunueBbUelEk5hlAMj2AYpRkkCgAEgokXlqYIk0ObyYpO2ZHRNB6qQdYnIQzBdi1RzuXCAgKEWEASvpG395wangClIGYTemScCXZZAqvLvXo5XYWm4EFaTaY7iRg9q/Wv7oShf7MSllHZIZvMV6RdaCH1r0cwzhwsSLGKCD6TBMoTdHVPCdsaIZNA0rYFupAOUqPjUXfs8yQjgDAfSBsCFEicUuFyADIFm6hXdpmSWEbYQF1O1TEJQCh8WverulNBXEqMwxrEvBFiJM0R82xYCHYUAFgDHpNWp01CFkRRHmk7WJrKsk3YE5UXkbHjNpMt8PvpGhMGfFfcYqDJ9w/uv1r+6meuEuwFX2phIsd1kMXWaSlFZFE7ArvjSVeVlb3HsDpUHu2R2IgB1FlfSH7PC6rAKzkKwRg6NdIsQnXuIJK7EoAAT9gbUISbIzdX2Wdx1FYgcTBYvkfNFj15pCJkeaywyXPLSxCBA32FQfT2/vOD0rkmkWZRm8JFBQYZkmmg2LgAHQMUEfT3fgcqxG7BAbqFOMT9W7aXYS6HU3JdDBMCJXDuVBB/kJJeoiurt0e4aNj2EDQhj0QPBUFR9pbVDr7UiXgFL36kAFvsUT08LRWffP76kjoGNhn3/P8A8fb+84P8FcsVPf2qFWtJPsHsIiEgzZiaqmjkoeoHZRfwhN/cKgIlFsJAuWhq/kKYlGAwjuqKr39HIoco7KMIfKv8fb+84P8AAXNirRdeXKUJeBZewApOxR894Cl5GjLGgEAcGoaJpCVCphhmjYXZox8nTUAWAAAOP4a5ic9eEuKtZFd2VKI0oUFhuAAdv8fb+84P8Bc4a/c8PSI3AFtA10IAXVAoG0V2McIkhFoNRD+EXH3XL7TZwYhksdZ7V1ntT4xgKlwSEeAp8CZ3JWdkbYBM7NGdUy6AnrwCVsAAAP8AG3v2hbQBIEqBN2lfHrUstugRGus9qRFIAlWp5DjCZYEzIQAShfqOGnzJQl8jLCRELgjDXWe1dZ7Ve2YlsAVH0C+F6Quw8DRiIUC6RMBDkQIlLxoEfwlvEpRARJJAI7JraLXsQTeBSXzQR/kn05meYSAAuwGA0PBI40b0DwiAQAYA+sHqT6CFAxJExmDg1PHkOHd0PN6RzlY4AAB2/wDskoyjO0lDOoMIhJYjUugluJ/EnjGIk5RYCglWr1TAJMiluhAbiD7QllnyN2D0UC97WiTI/GO41bZRZJ6NzgSPP8QhKmQpnJvtKjcSnuT6I8WkeZegMqDCiMLIbiII+0oSVGsEJAK/Gp7GpK8NyWTqO4yO5SD2xaEwTPsLDs7UOH8MRRVzPViAx80GxhyhaBMbAQFsAFPqjBhA+S8nigIABACAK3+0zkqhyQfnDvFCCSiRoEAIkIkjSJrYWv19vFw0LDMCCkZV138T/Cg1uz2hfCCo1zqh7qde5+6xRiAEAIApQKoBdXamd7DiPOfCinbx9rSamHnAMv4lDp06NqzFsEKcDYdESpRnFjXuuu89RihjGESRHef4M4VAJVtSJ+lyhWwyL2cWuMVMzkFsjMTwgdZb6JNOyEExNaXMHk7UTQkAQBwfbAMPsfJeBK6Kn1ONgTCuoieKZdclrKIPIrtJ0oJe6h9VeD1XcKGT+BLBenWNa0/CJjqIcTipzGQd0Fp7bdTNAAAACANqdGM0cCXwbtI6YSMsfKQ9TvUfbBJSwkZC0MdkgPQb0W+qzW6FQIQowiXHqVhloQDut2QaIiOPvL3O+HZaL3+/STRmY0ktNpCdiDdKJnmSnREnwdhTSfmj2USq8uq0lYBsiH0KBF1hzQQfbthSasJkdkyOyFWfQdtLl3M8Im1OdHVy/SZvQX/3QzpxDCWvZ3bkPRre0TSOHhL7n3ybeTmPw5XoFpEDjDk5udFa6KW7cu9HLg4CA2CsVEOrRcipDBPAEp4OYpP1oAHX68K94wfcABBEEvd+8SdBy0MJudEhOibaOdGmlpDwyj2ibdMVGoEWbctnzu9Rx0mb4QfOOtASdvuyJTRgvwp8jdyI5SjQlkCG5vt1XaVl/HoOJcHRAbFRTo51AoKSYA5pQI1iTcDi1xBtNZ+4CSKs/cQstDlYeLujVpZaSadJX4pQvkLj2pexQxNOxL+D3qRBQWJLtL7TPSjJERuRv9yRKWpkuyAOGJ/nM2s0E6ye8gB4zRwYStHKlfLq2p0euuGkN8gPVt8r0FA5T9yYXQyVEI1uOyWBu3WB5kd7Jq0sajQEAI7NJgJu0QKnZCPK2HholAiYfvsDyUDD7YgooOSS/FT4BovFBbuAntNUP+glXvLlRMxYCA9B0caPOiXO1gG5srIyuBgXZILsZU3Sqd1X7mXqQ5LVJR+VCbim9W5mB3S3C49zI6JNLLTq59Mn5ctVcgueKx6IWQ4Ch8r2raZKl7mAD7u9SIFkfkdnkoR3+zLFXggn9cEsVFqZA3ObFHjQnXBY4Zn4eym3j51vUlfLW9YpIp0STRtWGjmjj5ty/LsAVVgF2pzGCCMWCbhMbBfKtBH3UGkFmC5f5NmHkV8jLguUfs5ppzTc1S/rNQAWWRsnRyUMNowb9MCiQda/PwVOLljPeBXeKXKdBE7IpUH/ADZioBdoTjyATlUFEFJRWSbYLbcUcOtpnk/vPaiCciAw7Td8ugZx8v7pV3zo1hW9LDW9LR0SadAGPOFmAF1VADK1ZYgcGhnwqyWUAsJ+7JNTBkWyiMto7nOVoREUFECEGERuI2RxSQ0030V9FjR1LGjfRWlrz/thDXae+6yFCgQIe6EA5tJU65WYgvyj4o4kzZGY3FDMRjp5KA7n+JDkrAzZg7rVu9qFSGLSG/SgSxwzqMvdimW734Yw91IF1kT4hSUszPzc2NE0dHNNOqT6GmkbwLrTEs5BzHwNjaxkxEEH3gSRSwmDBgDwA9lm8NTJsiMIkIlkTZONHTL1OKdGsU59BtRRAHCSV/6PehDRxNSDwYsKRilEAU4lR9qzI27RxcvqMrexQFqdBC9/J4pBZEz7egywYJRnuZRKbYAfmpcnKtDpLEjUuo1KykwbfhKjxn7gHl6YBxOk6UpoANglGLCcSlRiT3Pbat1rWV48F9SCuQAcST7xUqYETwOSBSKKx+ZGtRpcQgpzTosGiX0c6Nqa3p9JZqaJACVIA5qatkIqyh5P1MCgR96RlUwQjjQB2CP9G8NSFEQUBERhEcI2ioj0EPQ4p0dHPoNYaJOjd0SaWdFeaEtwfFQ4PagnD2pEYPakL2PalRs1M0t3U1ho6Leo0fQc6LFYaRplo6ImXSuCmrzlxout2KYtcgoEffEkqLL8OCe3Bg4dkeeFULlFxPQfQ4rOjTmnOp9Bzo2aaSdGnNJplQtTqc0tNOdS0k006NNOjqw1SPQugCEyDAAXVUALq1IQRGKzsN0uM70BH32aSaRSjstMQ7cC/USL1eDKhwEsmws+lGmGrjRb+g06JNNZpJp1bUs6pNNqbujmnGi39JlTphoujnRzqbaOhFzdIkHyrYLqFX9o3ZmOgb9xAlQBB/AZ4AsYHeOVurPRhoLdSHkDlwXXc6l9GmxS6YU6JoI1N9LjSPRE6OKdDanNNRFOdHNOjnUtLFOizTikpxomi030dGIqDPwtK+O4CdgbxAFaUjmC9zY3iUv8EFbUTA8JuJslzalYHkBBzaY+Nzc3oIIBJEw+s4ps059Jxo0sU50fUawUs6nNNNLestMtFvTbRxU2ptplo5oSaNKAqwF1dqfJrLb3CZOhDY2XKCi7fpu+6vQR/BUGk2lEEZ0oZOCGbjmr3GxExyFk4KU20Skto2NHOgjV0WKW1TpjR0c09KabFOWstEhpdHOpzo5qY0cVFZaZaNONHUjJGbwbBusBlSjJdHxW09jjH3URIBABAH8ISauAgJeAd18O4lRQuDZHQw/6hRACYRk0Rq0s6L6TTit9FzrvWWjmn0GltUzTnU6OafbRxommWi3p0gBKrAFLslys7zh8ThsqNAYYP7eOBA2KgfwuQoRyb8HEdiOpqXpbk43V6ReJp0blY1ZaTNONG1NOjjRJ0dHNLanNJDo2adMtTnS5prenGjokOjCdIpPXInonopBuhbgSsyHl5CgBj+G7W0InEIA5EclRMpLGv6Ze4XpIDWC9oW8MPSmxol9HRZpxq3NWnRps6ZU021LLTY0W9YehlTo6YUXpG6wJ4S7EzwNJhWJSfFv5zcah8m1wAWKMfxInowcfCNkqTN3lI7mfOHRqSyN+Llg9kOtCANhJHRxNTWPQSdWlmmm2jenNOKdTmnRzTplos6ragZAEqsAU1lobP2D46Kk6FFZwgxd0GkdrSg9AQfxdC4oIzZWGeQHsmnD3cjgjhZvPZUcjYE+Q28FpKaw0aabtOqSaN3RrBOjo5pxTTmnRzTilmmiaDaAe4GO7BUIElQY7snfx2pQ6gKdRCeCXWgAAAIDioio/jOawGbBe4iVN8MZHz+yKGaGzmDiEj4U0CyZa29z51GFzDJSxSSU3aaa3qaXestHNLFTWWjmnHpIyiykBUhI/3RAPlp16hSNO8UsnDJ+PhOiphJIZ+AfyFhpYSLNGyZP1cdaWtbosrawKIcs2JU8h+aHBO6w5Jn3B6UwRDybwK+JsabVioilvplTY0c6Je1AexBTsKMI+PYtZE2Bjc3HxTQz0mIXsBNES8EtzQwrHV7qjxRdBQAgDtQRWP5Oh2pgBCESZpSDymL5iahn7WsdSo8QgPY1YGcP91HIO8/iopVudk/gUq7HfT/UT/aoRMefyy1Oi+AXwqXFDeQPtUHnbwr4c+KLE8kZB5SaLKUAwB2qBsf8A8QH/2Q==;" vertex="1" parent="1">
          <mxGeometry x="125" y="265.3399999999999" width="109.33" height="109.33" as="geometry" />
        </mxCell>
        <mxCell id="w0s_Ixj0cFRI1buppDWQ-3" value="" style="shape=image;verticalLabelPosition=bottom;labelBackgroundColor=default;verticalAlign=top;aspect=fixed;imageAspect=0;image=data:image/jpeg,/9j/4AAQSkZJRgABAQAAAQABAAD/2wBDAAsJCQcJCQcJCQkJCwkJCQkJCQsJCwsMCwsLDA0QDBEODQ4MEhkSJRodJR0ZHxwpKRYlNzU2GioyPi0pMBk7IRP/2wBDAQcICAsJCxULCxUsHRkdLCwsLCwsLCwsLCwsLCwsLCwsLCwsLCwsLCwsLCwsLCwsLCwsLCwsLCwsLCwsLCwsLCz/wAARCAEPAdsDASIAAhEBAxEB/8QAGwABAQADAQEBAAAAAAAAAAAAAAYCBAcBBQP/xABEEAABBAEBBAUJBgUBBwUAAAAAAQIDBAURBhIhMTRxc7GyEyIyNUFRcnSzFDNhgYORBxYjQsEVJDZSodHw8VNigqLh/8QAGwEBAAIDAQEAAAAAAAAAAAAAAAMEAQIFBgf/xAAlEQEAAQMDBAIDAQAAAAAAAAAAAQIDBBEhMgUSMUEioVFxwRP/2gAMAwEAAhEDEQA/AOuAAAAAAAAAAAAAAAAAAAAAAAAAAAAAAAAAAAAAAAAAAAAAAAAAAAAAAAAAAAAAAAAAAAAAAAAAAAAAAAAAAAAAAAAAAAAAAAAAAAAAAAAAAAAAAAAAAAAAAAAAAAAAAAAAAAAAAAAAAAAAAAAAAAAAAAAAAAAAAAAAAAAAAAAAAAAAAAAAAAAAAAAAAAAAAAAAAAAAAAADgfnJJHEx0kj2MjYm8973I1rU96qvARyRyNR8b2vY7ijmKiov5oa90a6a7s6Tpq/QAGzAAAAAAAAAAAAAAAAAAAAAAAAAAAAAAAAAAAAAAAAAAAAAAAAAAAAAAAAAAAAAAAAAAAAB5qgHoPxnsVqsbprM0UMTU858zmsamnHm4nHbZ4d9qOpTZNZ3t5XTIiRxIjU183f4r+yENy7Rb5zokt2q7nCNVRqROf2zmx9q1j6VRFngduPnsLrGiq1HeYxv+VQqamRpXETyUqbyc2O816fkpyjaj/eDM/MJ4GlTKyNLcVWp8rmJjxVdmm7T4al7KZbJuR1+3NNx1RjnI2NvH+2NvmJ+xYVrVuqrXV5XsXRNURdWr1tXgQK/9/uW6cm9Sdx5y/driYqiZ1ensWbcxNMxGimp7RMdusts3F5eUj4t61bzPuRTQzsSSKRr2LyVqoqHPj9YLFis/wApBK6N3t3V4L1pyUt4/Vq6Nrsax9qOR0eive1Ok/ToIJqntEvmstx8OXlYk4datPvQWa1liPhlbI1fa1eXWnM79jKtX41ol56/i3bE6Vw/cDVAWlcAAAAAAAAAAAAAAAAAAAAAAAAAAAAAAAAAAAAAAAAAAAAAAAAAAAAAAAAAAAGLnI1Fc5URqIquVyoiIie1VU0LWQi/0/IW6U8EroKs8sbmObIxHsYrk1RFNKq4pjdmKZq8NyWWGKN0sskccbOLnyuRjGonvc7gfhUyGOvNR1WxHM1eKbi6ap70R2i6HGb2TyeTk8retSzuTi1rnaRs19jI2+Yn7FHinObToOaqtckbVRWroqLr7FQ493qcUbxTs7VrpU1xpNW/0+DnLFmzlMl9omllSO3YZGkr1cjGNeqI1jV5aHmI6fB8EvhU1rbnOt3HOVVcs8qqq81XeU2cR0+H4JfCpy7lffEy69qj/PSFQiqioqKqKnFFTgqdSoS2Ve9+SvPe5XOWVNVcuqr5qc1Kkk8n6wu9ovchTsTOswt3qY0iWmv+f8lunJOpO4iFLZnoR/AzuNsjxBj+ZZAAqrQZxSzQvR8Uj2PT2sVUVeswBmJmmdYlrVTFUaTvD71TaKVmjLke83/1Ik0cn4q3kffr3Ktpu9BK16e1EXzk62rxIIyY+SNyPje5j05OYqoqfmh18fqt23tc+UfbjZPSLdze38Z+nQvceoStTaCxFo203yzeW+3RsidfsU+/Uv07jdYZWq72sXg9Otq8Tv2M21f4zu89fwr2Pzp2/LcAQFxUAAAAAAAAAAAAAAAAAAAAAAAAAAAAAAAAAAAAAAAAAAAAAAAAAAAPFTvT/qegxI41mc7mMnNZis2VSuyaVjK8PmQ6NcqJvNTiq9Z9CBz2YdFYqs1x7kXdXTVFZy4E3Z6Ta+Yn+opRxep2/IL9M8hk3Kqp1mfb2eLbopjSI9Jf3FZi1RaFL4NP/spJ+4rMV0Gp1O8RBe4rFjkmbXSbfbS+JTYxPrCr+p4HGvZ6Tb7eXxKbOJ6fV/U8DjeeEoo5wqSTyfrC72i9yFYSeT9YXe0XuQgseZWb/GGmvItmehH8DO4iV5Fsz0I/gZ3Gcj01x/bIAFZaAAAAAAzhVUngVFVF8rHxTgvpIYGcX3sHbR+JDe3OlcftHcj4Vfp0NOSdQCckB76l88AAbAAAAAAAAAAAAAAAAAAAAAAAAAAAAAAAAAAAAAAAAAAAAAAAAAADEjg1npNr5if6ilHF6nb8gv0ycs9JtfMT/UUo4vU7fkF+meNyPMft7bG/iX9xWYroNTqd4iT9xWYroNTqd4iK/wAUtjkmbPSbfby+JTZxPT6v6ngca1npNvt5fEps4np9X9TwOJJ4IqeUKkk8n6wu9ovchWEnk/WF3tF7kILHmVm/xhpryLZnoR/AzuIleRbM9CP4GdxnI9Ncf2yABWWgAAAAAM4vvoO2j8SGBnF99B20fiQ2o5QjucJdDTknUAnJOoH0CHzwABkAAAAAAAAAAAAAAAAAAAAAAAAAAAAAAAAAAAAAAAAAAAAAAAAAAYkcGs9JtfMT/UUo4vU7fkF+mTlnpNr5if6ilHF6nb8gv0zxuR5j9vbY38S/uKzFdBqdTvESfuKzFdBqdTvERX+KWxyTNnpNvt5fEps4np9X9TwONaz0m328viU2cT0+r+p4HEk8EVPKFSSeT9YXe0XuQrCTyfrC72i9yEFjzKzf4w015Fsz0I/gZ3ESvItmehH8DO4zkemuP7ZAArLQAAAAAGcX30HbR+JDAzi++g7aPxIbUcoR3OEuhpyTqATknUD6BD54AAyAAAAAAAAAAAAAAAAAAAAAAAAAAAAAAAAAAAAAAAAAAAAAAAAAAMSODWek2vmJ/qKUcXqdvyC/TJyz0m18xP8AUUo4vU7fkF+meNyPMft7bG/iX9xWYroNTqd4iT9xWYroNTqd4iK/xS2OSZs9Jt9vL4lNnE9Pq/qeBxrWek2+3l8Smzien1f1PA4kngip5QqSTyfrC72i9yFYSeT9YXe0XuQgseZWb/GGmvItmehH8DO4iV5Fsz0I/gZ3Gcj01x/bIAFZaAAAAAAzi++g7aPxIYGcX30HbR+JDajlCO5wl0NOSdQCck6gfQIfPAAGQAAAAAAAAAAAAAAAAAAAAAAAAAAAAAAAAAAAAAAAAAAAAAAAAABiRwaz0m18xP8AUUo4vU7fkF+mTlnpNr5if6ilHF6nb8gv0zxuR5j9vbY38S/uKzFdBqdTvESfuKzFdBqdTvERX+KWxyTNnpNvt5fEps4np9X9TwONaz0m328viU2cT0+r+p4HEk8EVPKFSSeT9YXe0XuQrCTyfrC72i9yEFjzKzf4w015Fsz0I/gZ3ESvItmehH8DO4zkemuP7ZAArLQAAAAAGcX30HbR+JDAzi++g7aPxIbUcoR3OEuhpyTqATknUD6BD54AAyAAAAAAAAAAAAAAAAAAAAAAAAAAAAAAAAAAAAAAAAAAAAAAAAAAMT4HBrPSbXzE/wBRSji9Tt+QX6ZOWekWvmJ/GpRxep2/IL9M8Zf/AK9tjfxL+4rMV0Gp1O8RJ+4q8V0Gp1O8Sml7ilsck1Z6Tb7eXxKbOJ6fV/U8DjWs9Jt9vL4lNnE9Pq/qeBxJVwRU8oVJJ5P1hd7Re5CsJPJ+sLvaL3IV7HmVm/xhpryLZnoR/AzuIleRbM9CP4GdxnI9Ncf2yABWWgAAAAAM4vvoO2i8SGBnF99B20fiQ2o5Q0ucJdDTknUAnJOoH0CHzsABkAAAAAAAAAAAAAAAAAAAAAAAAAAAAAAAAAAAAAAAAAAAAAAAADxVROJ6AOHZOjfo2bDblWaDfmldG6Rq7j0VyqisenD/AJn3IU1xDGpqq/YFXgmvDc58Dp8sMFhjopoo5Ynp5zJGo5q9aO4HzrOKqQYvJVcfUhY6WnYhiYxEbq57FajdVOHe6bNU601beXbs9V7I0mnfw4whWYtEShS09saO/NVJievbpyrBaglhmbwWOVqtVfxT2KVGM6DR7Jpxr9MxGku7j1RM6x4TFnpNvt5fEpsYr1hV/U8Dj8LXSbXby+JTYxHT4PwbL4VNp4taeSpJPJ+sLvaL3IVhJ5P1hd7Re5CvY8ys3+MNNeRbM9CP4GdxEryLZnoR/AzuM5Hprj+2QAKy0AAwAATVXI1Nd5eSNTVV6kQzG/hidtwyh4zV0RNV8rFy5+kh9Sng71ndfN/s8S/8Sayr+XsKGni6FPjFGjpPbJJ5z/3U62L067cmKqtocfL6pZtxNFG8t5OSHoQHrIeRAAZAAAAAAAAAAAAAAAAAAAAAAAAAAAAAAAAAAAAAAAAAAAAAAAAAAAAABpXcdj8jF5G7WinjX2SNRVavva7mn5KamP2fxONbG2GNz0i4RLO7yisTXXRNT7B4pDVaoqnWY3SU3K6Y7YnZxHLtezKZVsjHxuW7YejZGq1VYsiqipqe4j1hB8E3hU7BfxeMycXkr1aKZuioivb57PhennJ+5KfyP9mvRWMfc/2dEe10VlFc9iObp5j28/zQ42RgXI1mjd28bqNG0XNmkSeURft9xFRUXyic+H9qHWqeEoVt18ieXlTjvyJq1F/9reRzPaj1/me3T6bSlODVYp7653n0vU9QoyK+yiNo9vir/n/JbpyTqTuIj/r/AJLdOTepO4pX/EL+P5l6AetRz3IxiOe9eTWIquX9irETM6QtTMRGsvAiOc5GNRznLyRqKqr+SH2Kmz9yfdfZX7PGui7rdFlX8F9iFFUx9Km3SCJqO/ue5N6R3W5eJ1cfpl27vX8YcjJ6ratbW/lP0nKeBuz6PsL5CJeOnOVfy5IUNPG0qTU8jE3f9sj/ADpF/wDkpuhNT0GPhWbHGN/y85kZ17I5Tt+HvEAF3RTAAZAAAAAAAAAAAAAAAAAAAAAAAAAAAAAAAAAAAAAAAAAAAAAAAAAAAAAAAAAAABogAHikBtHsfk7Vu5kqEsczp3eUkrv0jeio3d/pu9Ffz0OgHhDdtU3Y7aktq9VZq7qHB7FezVldDZglhmauixytVrufs14FoxskisZGxz5FRN1jE1dy/AubuOx2RiWK7Winj9iSNRVb+LXJxT9zKrSqU2oytCyNunHdTivWq8TkXOld9UR3bfbs2+r9lOvbv9J2ns/Zl3X23+RZ/wADOMi/nyQoatGnTZu14msVfSVeL3dbl4m0DoWMO1Y4xv8AlzMjMvZE/Kdvx6e6IAC6qAAAAAAAAAAAAAAAAAAAAAAAAAAAAAAAAAAAAAAAAAAAAAAAAAAAAAAAAAAAABQPlZvO4rAVY7mQfI2OSZII2xM8pI96tV2jWoqLw0XU361iC3Xr2oHI+GxEyaFyf3RvajkUkbcMO0O2CUZWpJQ2excy2Wr5zFvZJvk0avs1azj+Z+uws80dC/grKr9q2evTUF3l4urq5XwvT8NNUT4QK/UakHjsjtxnZs9Wp3KVKvjsvkKy3pazJ5H7kn9KtFCm61GtTTec7VV1PMZk9u8y7I4mOalSt4azJVyWVdCk/l37y+TZBWXRicOLlVfcBejUmdl8rl7kuexeYdDLfwtxsD7FePycdiKRu/G/c9ink9Hb+y+1MzOY6i3fl+yVYKDbEaxo5dxZ55/PVVTTXdagFPqg1JbB5TL7RbN/aoJoKWW35arplh8tBHNBLuuekTl/uT8fb+B82tb2zj2ooYV+arZCOKJbuZ8lj4q7K0DkVI41c1XO338FTj/y5hd6jUkruT2gyecu4LBWK9GLFw15MnkJ4Esv8rOm+yCCN3ma6cV1/wDPlTJ7Q4vO0MFnLFe9DlYbD8bfggStJ5aFFe+GeNrtzly0/wDAV2oIWpkttcxf2lx9GzTp18ZmLVdchPWbPIyNq6RVoYNUauicXOd7z6mzWUy89vaDDZd8Mt/DTV0WzA1I2WYLDFkjesacEX3gUquRqKqroiIrl6k5kiz+IOy8iK6KPLSNRVbvRY6w9qqi6LorU0Kub7mbs5PCpzTYzaajisDBVkx+bneyxbe59DHyzw+fK5262RujdfeB0Gjk6eQox5GNJYqz2SSKtxi13MZGqo50jZOScFPgu292a3pVgjyluvEqo+3SoTy1EVOekiImqfkae3dx9nAYirA6aBNoMljab0kRY5WwT6SOa9F5Ly1QsatWtSr16lWJsVevG2KKNiIjWtamiJogHzZ9ptnq+Nq5d1xH0bb/ACVR0MckkliTVybkUTU31VNF14ew1cftjgchdix6NvVLkyK6CHJVZKzptE10jVyqmp9xlWpG2JrIIWpFI+SJGRtRI5JN7ecxETgq6rr1kZtSjcptNsViajUfdoXP9XuvRNUq043Nd/Uc32v00RPxT38QugEAAAAAAAAAAAAAAAAAAAAAAAAAAAAAAAAAAAAAAAAAAAAAAAAAAAAD8bM8VWvZsy6+Srwy2JNOK7kbVeuiH7BQOdbNbPX8rRnztjM5rHWc3asX5IcdOyBnk3PckW+isVddD9K9GfZbbHFqt29dq7SVpalie67ys32yvo6NZHtaictETrU6Ch4qKBH7D6p/OmqOTXavJqm81WoqKjNFTU92TRUzX8RlVF0XOs0VUXRdIvZqV+ijQCQ2bRybTfxFVUciOvY9UVyKiLpAqKqL7iax02zEy5F+1zLlraVchYatKVLj5d3yipDDShj0Zuqmmh1TQbqa66Jry104/uBzrZXIPwGxGWvyVpVlp5DIIyurXarK6ZsTWKicdEcui9R++yWZ2ZpQsimyLrGezNtJ8jJ9lt/1LcvFImvdHu7jPRTj4i+0UaKBBpdh2V2p2knyrZYsZn0qWq15sT5IWTQM8m6GRY0VU5r7O8zZbj2p2o2euYxkz8RgGXZZ7745I4Z7NiPyTYYfKaKunBVXT/8AblW6oqKiKi+xeQ0VE0TRETkickAj9jUX/Uv4iaoqIu01lU1RU11bzTU9wmv86fxAdo5GrFhER267dVUhfrovIr9FGgGMv3U3s/pv4+7zVOabGbVbP4bBQUL81qO0yzbe5jadp6NSSVXJ5zWaHTvYOIEdtBD/ADbs1Fbwj3vmgtR5GgkjHROlmrPcxWbsqIqKvHTh3nlX+IOzqwMTJfa6ORa1G2KT6ll0rZk4K2NGtXX8Cx0G6mqLomqcEXRNf3AkcxtfNj8FWybcbaht5GSWGhWuRvR8aIrt2a02NFVqaaOVPxPi7P5/YnCR2Zpsjeu5bISJNk78mPub88vsYzWPgxv9qf8AadIRFPV1A8Tkh6E4IAAAAAAAAAAAAAAAAAAAAAAAAAAAAAAAAAAAAAAAAAAAAAAAAAAAAAAAAAAAAAAAAAAAAAAAAAAAAAAAAAAAAAAAAAAAAAAAAAAAAAAAAAP/2Q==;" vertex="1" parent="1">
          <mxGeometry x="251" y="183" width="140.22" height="80" as="geometry" />
        </mxCell>
        <mxCell id="w0s_Ixj0cFRI1buppDWQ-6" value="" style="shape=image;verticalLabelPosition=bottom;labelBackgroundColor=default;verticalAlign=top;aspect=fixed;imageAspect=0;image=data:image/jpeg,/9j/4AAQSkZJRgABAQAAAQABAAD/2wBDAAsJCQcJCQcJCQkJCwkJCQkJCQsJCwsMCwsLDA0QDBEODQ4MEhkSJRodJR0ZHxwpKRYlNzU2GioyPi0pMBk7IRP/2wBDAQcICAsJCxULCxUsHRkdLCwsLCwsLCwsLCwsLCwsLCwsLCwsLCwsLCwsLCwsLCwsLCwsLCwsLCwsLCwsLCwsLCz/wAARCAEKAY4DASIAAhEBAxEB/8QAHAABAAICAwEAAAAAAAAAAAAAAAcIBQYBAwQC/8QAWRAAAQQBAgIECAgGDgcGBwAAAQACAwQFBhESIQcTMUEUIjZRYXF1gRVyc5GhsbKzMkJSVWK0FyMzNFR0goWSk5SiwcQWJENG0dTwJVOD0tPiNUVllcPh8f/EABQBAQAAAAAAAAAAAAAAAAAAAAD/xAAUEQEAAAAAAAAAAAAAAAAAAAAA/9oADAMBAAIRAxEAPwCXEREBERAREQEREBERAREQEREBERAREQEREBF0W7dOlBJauWIa9eIEySzvbHG31ucQPUo0zvS1QrufBgKvhcgJb4XcD462+/ayJu0jh6yz3oJSWEyGq9JYsuF7M0Y5G78UTJOumaR54oOJ/wBH1Kv2X1bqrNcYv5Ow6F/I1oXdTW28xih2affufSsEgnq10saLgc5sLMna232dBWYxh/tEjHf3VjJOmPFgnqsJceO4yWImH5mtd9ahhEEyN6ZKBPj4KyB52243H5jGF76/S7pSTYT08tAT+N1VeRg97ZeL+6oMRBZOjrvQ18tbDma0T3beLcElTY+bjna1m/qctjikilY2WJ7HxvG7HxuDmOHnaWkhVJHevfj8vmcVIZcbftVHkgu8Hlc1r9vy2b8J94KC1SKF8J0t5GEsiz1RtuLcA2aYZFYA87ojtE73FqlTD57BZ2Az4q7FYDQDKwHhmh37pYngOHzc9uW6DKInnRAREQEREBERAREQEREBERAREQEREBERAREQEREBERAREQEREBERAREQERcHu9fnQD6dvq+lalqvXGI0www8rWUe3eKnG/bqw4Ah9l3a0eYbbn37jD6718zDiXEYeRj8qWltmcbOZRBHYN+Rk+r1nZQhNLNNJJNM98ksr3SSSSuc973uO5c5zuZJ9aDK53Uee1FY6/J2XPa0uMNePdlauCeyKLcj3ncnbmTssOVwiAiIgIiICIiAiIgL0Urt7H2I7VKxLXsxkGOWF5Y9vPftB7POCvOiCadJdJ9e8YsfqLq69t5bHDfYOCtMTyAnA/Ad6ez4u3OT2ncA92wIPLY/MqkDvUi6G6QJsO+DE5mV8uJcRHBYcXOkodwHeTH6O7u7NiE5oviN8cjGyRPa+ORrZGPY4OY9rhuHNcOWx7tl9oCIiAiIgIiICIiAiIgIiICIiAiIgIiICIiAiIgIiICIiAiIgIiIC0bpA1j/AKPUxRoPb8MXoz1btwfA4CeEzuHbxHmGD0E/ibO2bPZmngMVdylvYsrs/aow4NdPM7kyJu/eT28uQ3Pcqy5PIXsreuZG9IZLVuV0sruwDsAa0HsDQA0DzDbuQeV73yPfI9znPe5z3ueSXOc47kuJ57nvXyiICKwfR5halTSuNfPWhdNketvTGRjHktldwxjdwPLhDT7178poXRmVa7rcXBXlO+0+PaKsoceW/wC1jgPvaUFbUUi6h6Lc5jhLZxEnwlVbxOMTWhl2NvyYPC7+Tz/RUeOa5jnMe0tc1zmua4bOa4HYgg80Hyi9dXHZW9ypULlk77f6rXmm5/8AhtKycWj9aTDduAyg9ElaSI+8SgFBgUWwu0Vrhg3OByG36MXEfmaSV4bGB1LUDnWsNlYWt/CdNSsMYP5Tm7fSgxiLns3862TTmjdRalcH1IBDRa7aS7a4mQDmdxFsOJxHPkB6yN0GtIp+w3RjpPGtY+7G/KWhsXPteJXDu/grsPDt6HFy25mKw0cD60WOox13sMbooq8UbCxw2LeFjQNkFU1yN17cvQdi8plccST4Fds1g4jYubHI5rXe8bH3rwoJO6ONauozQ6fys3+oTu4MfPI7lVmceUTnH8R2/LzH0O3ZNTd+fr71Ugd6n3o51Uc7jDQuyB2UxbGMe5x3dYq7cLJiT2uH4L/cfx0G9ogRAREQEREBERAREQEREBERAREQEREBERAREQEREBERAREQFwVysbnspHhcPlcpIGnwOs+WNriQ18x8SKM7c/GcWj3oIe6UtQnIZZmGrSb08SSJ+F3iyXXjxyeE/iDZo5cjxKOSuyaWaeWaeZ7pJppHyyvcd3Pe88TnH0ldaAiIgtPgWNiwen4mfgx4rHRt9Ta7AFklr+jLseQ0tpydhJ4KENWTfkesqjwZ5+dpWwICx8mEwEtt16XF4+S67bexJVhfNuOQPG5u6yCIOAA0AAAAAAADYAeoLlEQEPpREHgu4fB5Lb4QxtG0R2Os14pHD1OcCfpXtYxkbGRxtayONrWMawBrWtA2DQBy5L6RAREQVy6RWMj1lqFrRsC+k8/GfTge76SVqazmrr7MnqXUNyNwfHJeljie3sfFBtAxw9YaFg0BZfTmasafzFDJw8TmwycNmJp266s/lJH5tyPwfMQD3LEIO9BbSvNBZhgsV3tkgnijmhkZ+C+KRoc1zfQQdwu1R/0V5k5DAyY6VxNjDzCFu+5Pgs28kRJPmPG0ehoUgICIiAiIgIiICIiAiIgIiICIiAiIgIiICIiAiIgIiICIiBzUZ9L2SMGJxOMYSHZC2+eXbvhqtHiuHpc9pHxVJigjpauCxqWCs0nho42vG4dwlle+cke4s+ZBHpREQFnNLYCfUmZqYyMuZEQ6e5K3beGrHtxuG+/M7hreXa4dywYU39EmKbXw9/LPZtLkbRhicef+rVhwgt9bi8H4oQSFSp1KFWtTpwshq1o2Qwxs32axo27+e/n37e3tK9CIgIiICIiAiIgIiIC4K5RBC3SjpSOnONRUYw2C3NwZKNgAbHZfzbOAO5/Pi/S5/j8owPcrUZnGw5jFZPGTbcF2tLCHOG4ZIRvHJt52u2cPUqsPa5jnseC17HOY5p7WkHYgoPlERBvXRbkTS1RDWcT1WTq2Kjhv4okY3whjj6fFLR8ZT+FVXDXPg/LYa9z2p36ll23e2OVr3D3jdWqCAiIgIiICIiAiIgIiICIiAiIgIiICIiAiIgIiICIiAiIgKt/SBMZ9Yaif5p4IR/4NeKH/AAVkFWbWm/8ApVqff85WNvVug19ERACspoSFsGkdNMb2OqGY+ueV8x+0q1qymhJRNpHTTx3UzEfXFI+L/BBsqIiAiIgIiICIiAiIgIiICq9qiJsOo9TRNGzW5fIho8zTYeQFaFVe1RIJdSaoeDuDmcnwn9EWZAEGHREQFa/HTGxQxtjtM9OtMfW+Jrv8VVBWm0/v8A6d37fgjG7+vwaNBk0REBERAREQEREBERAREQEREBERAREQEREBERAREQEREBVv6QYeo1hqJvc+avMPT11eKX/FWQUE9LVPqNR1bTWngvY2F7j55YXvhcPcAxBHiIiAP+CnzoquizpZtbfxsfetV9u8MkIsg+ol5+ZQGFIfRXm2Y/N2MZM4NhzETGRk9gtwcTox/KBePXsgnZFwFygIiICIiAiIgIiICIiDqsTw1a9mzM7hhrwyzyu/JjjaXuPzBVQsTSWZ7FiQ7yTyyTSHzvkcXk/Sp76Tc23F6cmqMftazLjSiaD43g42dO/bzbbMPygUAHuQcIiICthQhNajj6xGxr1K8JHmMcbWbfQqwYOn8IZnCUSCW28jTgft3RvlaHn3Dcq1AQEREBERAREQEREBERAREQEREBERAREQEREBERAREQEREBRt0uYx1nC43JxtJfjbhil27GwWwGFzv5TYwPjKSV4MzjYsxisnjJeENu1pYWuI3EchG8cm36Ltne5BVY81wu2zXnqWLFWwwxz1pZIJmO5FkkbixzT6iCusIOF2QySQyRyxPfHLE9kkUkbi18b2HiDmlvPcdy2SroLXNyrDcgxD3QTRsmiL7FONz43N4g4MklD+fqWBvUMjjZ3Vb9WxVsNG5jsRujdseQcA4cx5iEFgtFauq6moNbK9keXqsAvQbgce2w8Ihb3sd3+YnbzF+2qp9G7ex9mG5RnkgtQOD4pYnFrmns94PeOw9/LkZe050r0ZmR1tRxeDz7BvhtZjn15O7ilibu9p7N9gR6GjkglJF5aWRxmSi6/H3K1uLlu+tMyVoJ7ncBOx9BXqQEREBERARF8yPZGx8kj2sYxpc97yGtaB2kk8vpQfS8eTyNDE07F+/O2GtXaXPe48ye5jB3uPcFq2c6SNJ4gSR1p/hO40HhhouBhDu0dZZ2LNvi8R9ChrUeqs5qawJb8obXjcfBqkG4rwg94HaXeck/MOQD51VqK1qbLTZCUGOBo6ilB3QVmkloP6R3JcfOfMABgkRARECDfeivGuuamFxzT1OKqT2CfxetmHg7Gn3Oc4fFU+LQ+i7CnG6e8OlZw2czKLR3GzhWjBZAD6/GePjrfEBERAREQEREBERAREQEREBERAREQEREBERAREQEREBERAXBXKIIQ6VdPGjkoc7Xj2q5Q9Xa4R4sd1je08tv2xo39bXHvUbjtHLzdpG3Pz7q02axNPOYy9i7jd4bUZYHAeNFIPGZKz0tOxHn7Ow86zZfFXsLkbmMus4bFaQtJG/BIwjdkjCe5w2I9fceQDetG9I9nEinis1vNi4+CGG0A51ilHsGtDgNy6Nvm7QOzcNDBKuaweF1PjfB7TWSxyx9bTtQ8DpIXPAc2WCQeLseW+3Ij0FViHf6u9TJ0ValfPDY05ckc6Sqx1nGueTua++0kG/wCiSC30EjsagizOYe9gcncxlwfttdw4XtBDJonDiZKzfuI+bmO0csarGa00dW1TUY+N0cGVqtcKdh4PA9pPEYJ+Hd3Ae0HYlp3I7SHQNlsHnMJM6DJ0Z65Di1kj2Ewy7d8crd2EeolB4YJ7NeRs1eaWGVh3bJC90b2+pzSD9K3PTGo+kXJZOjiaGctl9lxD5LbYrghiaOOSV3hLXHxRuRzG52HetJa1z3BjGuc9x2a1gJcSe4AKYuirT2ToTZjK5GhYqulggqUjaY6J743OMkx6t/j7eLHsSOe/L0BKMLZGRRskkdLIxjWvleGB0jgNi8iMBu57eQHauxEQEPciIIs6RsnrrBTw2aGWlZh7x6prY69Zr61hrdzE6YR8ZDgC5p4u4j8Xd0TXcrmciQ7IZC7bI/B8KsSyhu/PxQ8kBWG15QZkNKZ+NzQX16zr8RPa19UiYlvpIDh71WwoBREQEREBZvS2Cn1FmqWNYHCFzuuuyN/2VSMgyOJ2PM8mt9LgsK3fflvv3bKwnR/pU6exXX22bZXJBktoHtrxgExwc+8bku9J25hoKDcYYooIooYmNZFExkUTGDZrGMaGhrR5gvtEQEREBERAREQEREBERAREQEREBERAREQEREBERAREQEREBERAK0zXWjotS0hYqNY3MUoyKjiQ0Tx7lxrSO7PiE9hPcHErc1we5BUuaKWCWWGaN8csT3RyxyNLXse08Ja5p5gjvXsw2UtYXJ0MpVI66nM2ThJ2EjCC18bj27OaSD61Net9BQ6hY7I43q4czGzxg4hsd5rRyZIewPHY13uPLnHBdqtap2JqtqGSGzA8xzRStLXscO4goLP4TN4vP0Yr+OmD43gCWNxAmry7eNFMwHk4fT2jcHc5JzQ4bOAIPaCNwfcVVTHZPK4qcWcbcnqzjYF0Dy3iAO/C9v4JHoIW6VelnWMDGsnixlsjfeSevIyU/wBnkYz+4gnOOvWhJMUMUZPaY2NaT69gu1Qg/pg1OQOrxuIa7zuZaf8AQJh9a33o/wBR5bUuPylzJGDrIb/URNrx9WxsfUsftzJPaT2lBuSIiAiIgxWpPJ3U/sXK/qsiq2rSak8ndT+xcr+qyKraAiIgLkDtPmQAnfbb59lKGhejyW66DMZ+AsotLZaVKQbPtnkRJOw9kfmB5u7/ABf3QO3o10W+aWtqTKw8MMZbJiYJG85XjstvafxR/s/OfG7AC+YwvlgAaAAAAAAB2ADlsP8A+L6QEREBERAREQEREBERAREQEREBERAREQEREBERAREQEREBERAREQEREHB/67lrWp9G4TU8JNhnUX42cFe9A0dawDm1sjdwHM9B9xG+52ZEFZdQ6Uz+m5XNvViarncMFyAOfWlB7PG7Wu/RcAfWOZwBVtpoYZ45IZ445YZGlkkcrWvje08iHNcCCPco8z3RXgr5knw8zsbYdu7qdjLTc47k7NJ42+47D8lBBim3oe/+C5r2oPuI1HmT0DrbFvLXYua5GTs2XGNdbY7lv+BGOsA9bApX6NcFlcJhbfwlCYJ71zwlkDiDJHEI2Mb1gHY47E7b+bsPIBvCIiAiIgxOpvJzVPsTK/qsiq4rV5epJfxWYoRua2S9j7tONzvwWvnhdECfeVXduidbvtGmMFf60Oc3jdHw1+R23FlxEO3m8dBri9mNxuTytllPHVJbVmTbZkTd+Ebgcb3HxQ0d5JAHnUnYPoikLo5tQXg1nI+CY87uPPfaSd7dvQQGn0OClDF4jD4auKuLpQ1YfFLhG08chA2DpXu3e4+kkoNH0n0aUcUYchmuquZFu0kVcAmpVd2jt/DcPORsO4HYOUjDfn61yiAiIgIiICIiAiIgIiICIiAiIgIiICIiAiIgIiICIiAiFYPUWpsLpmq2xkJSZZdxVqwgOsWHN234G8gAO8kgD1kAhnEUBZjpQ1bkHPbRfFjKztw1lZrZJ+E8xx2JRvv8VrVqdjNZ+2S61lsjOT/31uw/3eM4oLUoqnC7kGnibasgjzTSA/QVkK2ptV0y0183lWBvMN8LndH743uLfoQWhRQ9ozpC1VkcvjcPkGV7zLkjo+u4GwWImtYZHP3hHVkNAJI4B2doUwebs7EHKLX9Q6t0/plkXwjNI6eYF8VWq1sll7Adi/hc4NDfSXDsO3ZywuK6T9I5OwyrJ4XQkkIbHJebE2uXE7Bplje7b1kAelBvSLgb/wDHu5+pcoCIiAiIgIoRn6XdUMmnZHj8OGNke1ofHbc4BriBxETgb+4L4HS/qvcE4/CkDtHVWwdvX4R/ggnFF8sPE1rvymg/PzX0gIta1pqC5pvCnJVIa805twV2tsh5jAkDiXERuae7zqMv2X9WfwDC/wBTc/5hBOSKNdEa/wA5qXMSY69Ux8UTaU9lr6jJ2vD43xtAcZJXDbme5SUEBERAREQERCgIofzvSjqPGZnM46tQxZgpXbFWN08dl0jmxPLOJxZM0c9t+zvWOHS9qw//AC/C/wBTc/5hBOKLwYW7LksRhshK1jJb1CpbkZHvwNfNE2QhvESdufLmvegIiICIiAiIgIiICIiAiIgIiICIiDHZrLVMHjL2Utc4qsfEGb7GWVxDY4mnY83Egb7ct9zyG4rPmctkc3kLOSvycdiw7fZu4jijH4MUTSSQ1vcPedydzJfTBlX8eFwcbiG8DsnYA22cSXQQgeraTf1hRIUBcta5xDWglxOwAG5J9AC2LSOmLWqMn4Ix7oacDBNfsBvF1cROwY3fxeN3Ph38xPPh2NgsRgMFg4mw42jDBs0NfKGh08p27ZJXeOfeUFaW4fOubxNxeRc08w5tSwR84bsvLNXs1zwzwzQu800boz8zgCraL4kjilY6OVjJI3AhzJGhzXA9xa7kgg/okoGxqC7fc3dmOoP4Xb/gz2XCJv8AdEinLtXio4nD4x9t+PoVKjrbmOseCxMiEhZxcPEGADluduXefOvad/r/AOtkFYdVXLV/UWoLFku6z4Rtwhru2OOGQwsj/khoHuWFCl7XHR1kr2Qs5jARsmNt5luU3PbHILDj40sLpNmkO7XAuGx32332Zq2K6NtZ5CzHHZqfB1Xj2ms23RksZuN+CFjuNx2327Afyhvuglvo/t2bukcDNYcXysinrcZ3JdHXnkgZz9AaB7lmc1km4fF5LJuhMzaUDpzE13AZNthw8RB+pdmLx9TFY+jjabC2tThZDGHbFztuZe8tABc47l2w7SVitbeSepvZ8v1hBo46ZYO/T0n/ANwb/wAuspp/pOiz2Yx2Jbhn1zcdK0TOutkDOCJ8v4HUjffh27e/54LW1dHnllpz5W1+qzILHhERBUuz++LPy0v2iupdtn98WflpftFdSC28f7nF8Rn1BfS+Y/3OL4jPqC+kGhdK/kr/ADlT+zIoDU+dK/kr/OVP7MigNBIHRN5Uy+yrf3kKnlQN0TeVMvsq395Cp5QEREBERAREQVi1d5Uap9r3/vXLBrOau8qNU+17/wB65YNBaDSnkzpX2Njf1dizKw2lPJnSvsbG/q7FmUBERAREQEREBERAREQEREBERAREQVz6RbXhWr85sd2V3V6rB5uqgja4f0uJamN1mdWOL9TapJ7szkmf0J3t/wAFhQgn3osxsdPTEdzhHXZWzPYe4jZwjica8bN/N4pcPjlb4sDo6MRaW0u1vYcXUk98jBIfrXuzdixUw2dtV38E9bGX7EL9geGSKB72u2PLkQEGQRVtOvdedvw5Z90dcf8A40/0915+fLX9CD/yILJIq2jXuvPz5a/oQf8AkU66Qu3MjpvBXbsrprVisXTSODQXuEj27nhAHd5kEZak6RtX47O5qhUlpsrU7k1eFrqzXu4YzsC5zjvusSOlLXX8Ipe+pGsJrHyq1R7UtfbKwKCy0OoPBdI0tR5JjpHfBdO5ZZWY0F8szWDZjXEAblw71GGoulC3maF7GVsVBWrW4nQSvnmfNNwEg7s4AxoP9L/juF9kknRRA2NjnuOBxfitBJ4Q+EuOw58hufcoOdXtNDi6CYBo3JMbwAO3mSEHSvdicnew1+rk6LmNtVTIYjIwPYDJG6I7tPLsJXhXLWucQ1oLnHkA0Ek+oBBvA6Utdfwin/ZI1NGmMhayuAwuRtlhs26zZJjG3gaXhxbuG+5Vk8Htf9xN6f2p/wDwVkdEMfHpPTbHtc1wpN3a8EEbvcRyPNBW2z++LPy0v2iupdtn98WflpftFdSCy7NZ6Jaxjfh/HHha0b9b27D1L6/000R+fsd/W/8A6VZkQTP0j6j01lNOGtj8pUs2PD6snVQycT+BofuQPQoZK4RBv/RN5Uy+yrf3kK3zpF1Xm9MDAjGeDA3jfMxsRGQ/tHUcIb4wH4x3WidE3lTL7Kt/eQrO9M/+6P8APH+UQa9+yrrf8rHe6r/7lIHR1qrN6mGe+EzWJomh1JrxGM7TifiDuZH4o2UBqXehns1b68R/m0EuKKdca81LgM9Ljcd4G2vHWrSft0BkeXyN4jueL/BSsq/dKXldb/idH7tB2fsq64P42P8A7L/7lLejMxezunsfk73VeEzvtNk6hhYw9XPJG3ZpJ7gFWhWG6MvI7EfK5D9alQQrq7yo1T7Xv/euWEGyzervKjVPte/965YNBvTukvUcGMxWLxMdejHRoVKbp+FtixK6GJsZeDK3gAO3ZwHbzrAy6s1lK4vdqDLgk7kR3bETfc2NwH0LqxmmtTZlofjcXbsRFxaJgwRwFw7R1spbHy7/ABl35TSOrcLB4TksXNDX3AdMx8M8bN9h47q73gdvfsg92N6QdbY57XDKS24gQXw5H/WGvA7i937YPc8fRymbSWrsdqmo98Y6i/WDPDajjuWcW+0kTu9h2PduO/tBdW0rOaVzMmBzuMyLXlsLJWw3B3PqykMlBHoHjD0tCCzoRcBcoCIiAiIgIiICIiAiIgIiFBWDVbSzU+qQfzzkne59h7x9awoW3dI9M1NX5nxeGO14NciP5QlhZxu/pB61IILM6MmbPpXTD29jcbXh98I6k/ZXr1E178BqRjGlz3YfJtY1oLnOca0gAAHPdaj0UZSO3p6TGlw67FWpWhnea9lzp2O97jIP5KkJBUs17RP7hN6urf6/Mvh7XsJa9rmuHaHAgj3FW3Vb+kHyx1H8vB+rRINWVk9B+SOm/wCKu+9eq2Kyeg/JHTf8Vd969BBWsfKrVHtS19srArPax8qtUe1LX2ysCgs7pHyX0t7Jo/dNXVrbyT1N7Pl+sLt0j5L6W9k0fumrq1t5J6m9ny/WEFZ1tfR35Zad+Ut/qky1RbV0eeWWnPlbX6rMgseiIgqXZ/fFn5aX7RXUF22f3xZ+Wl+0V1IJDb0Sawc1rvCsKNwDsbFrcb9x2r7Ln9iLWP8AC8L/AGi3/wAupzj/AHOL4jPqC+kFdM/oHUGm8eclfsY18HXxQBtWWw+TjkDiDtJC0bcufNaip86V/JX+cqf2ZFAaCQOibypl9lW/vIVnemf/AHR/nj/KLBdE3lTL7Kt/eQrO9M/+6P8APH+UQREpd6GezVvrxH+bURKXehns1b68R/m0EuKv3Sl5XW/4nR+7VgVX7pS8rrf8To/doNHVhujLyOxHy2Q/WpFXlWG6MvI7EfLZD9akQQrq7yo1T7Xv/euWDWc1d5Uap9r3/vXLBoLS6c8ntM+xsX+rRrITQw2IpoJ42yQzxvhmjeN2vje0tc1w8xB5rH6c8ntM+xsX+rRrKIKq5ikMblcvjg4ubRvWqrHHkXNilcxrj6wAvAs/rIg6q1Pt+c7Q94fssAgtPgbD7eDwFp/N9nFY+d/xpK7Hn61klh9LAjTOlR/9ExZ+etGVmEBERAREQEREBERAREQEREEU9LuGfLBis9C3fwb/ALPuEAkiJ7jJC4+gOLgfS8KHT3fQrX36VTJU7dC5EJa1uJ8MzDy3a4doPaCO0HuIB7lXDVOlslpi++vYa59OVzjQtgbMnjHPY7djx2OHv5gguDz6b1BkNN5OLI1NngNMVmu8kR2YHEcUbiOYPYWnY7EDkRyM64nX2jMpEx/wnDTmIHHBknsrva4js43nqz7n/N2KuKILRu1HpRoDnZ7DAdxOQqc/76r9ra3TvaoztunPHPWmmiMUsLg6N4bBGwlrhy7QVrqICsnoPyR03/FXfevVbFZPQfkjpv8AirvvXoIK1j5Vao9qWvtlYFZ7WPlVqj2pa+2VgUFndI+S+lvZNH7pq6tagnSmptvzfMfm2K7dI+S+lvZNH7pqyOTptyONyePcQ1t6nZqFxG4b10bo+L3b7oKolbJoa1Wp6r09YsSNjiFmSIvcQGtdNDJC3iJ5bbuG6wNmvYqWLFWwx0c9aWSCZjvwmSRuLHNPqIXSEFuBuuVVyHUWqa8LYIM5l4oWNDWRxXrLGNH5LQ1+w71YDQ9m3b0rgLFuaaexJBL1ks73SSv4Z5Ggue8knkB3oK3Wf3xZ+Wl+0V1Lts/viz8tL9orqQW3j/c4viM+oL6XzH+5xfEZ9QX0g0LpX8lf5yp/ZkUBqfOlfyV/nKn9mRQGgkDom8qZvZNv7yFZ3pmB20ke7/tcfqiwXRN5Uy+yrf3kK3bpXxclzA1L8TC5+Lt8cu23i152iN7vcQz/AKCCCVK/Q5ZgZZ1NUc9onnix88TSfGeyB0zXkD0cbfnUUldleezVljnrTSwzxODo5YHujkY7ztc3Yj50Fs/+uSr50mzV59V3XwSxStbWqRvdE9rwHtj2LSWnbcd6wFjUeqLURgs5vKzQuGzo5LthzHj9JpfsViUBWG6MvI7EfLZD9akVeVYboy8jsR8tkP1qRBCurvKjVPte/wDeuWEHes3q7yo1T7Xv/euWDQWi0zJDLp7TjoZI5GtxWPjcY3teA9ldjXNJYdtx2FZOxPXqwT2bEjIq9eN800kh2ZHGwFznOJ7gqq08jlMe4voXrlR7vwnVJ5YSfQTG4LvuZzUORi6m/lcjahBDuqs2p5Y9x3lj3EboOrLXfhHKZbIcJaL163bDTzLRNK6QN9268Q83n5IVtOhMJJm9RY+MsLqlGRmQuktDmdVA4ObG4Ht43cLdvMSe5BYXG1fAsdjKX8EpVa39TE2P/BetAiAiIgIiICIiAiIgIiICIiAvLfoY/J1pad+tDZrSjx4pm8TSe4jvBHcQQQvUiCKcx0Q1ZXPlweRdX3JLat9pkiG/c2ePxwB6WuPp5c9Ss9GOvIHFsVKvaaPx61yuG+4WHRu+hWDRBXH9jzpA34fgSTf02aQHz9bsvfT6LNcWCOvhpUm9pNm0x5A9Aq9ZzU/ogjfC9E+CpOZPlrMuSlbs4Qtaa9Tft8cNJedvjgecFSHDDBWihr14o4YImBkUUTGsjY1vY1rGgABdqIIk1B0X5zK5nLZKtkce2G7akstZY69sjOsO/CeBjhy9axf7D+pvzlif6Vr/ANJTeiDH4Wi/F4nEY58jZH0aVaq+RgIa90UYYXNB57HZe89y5RBo+rej3G6klffrTeBZUtDXy8PFBZ4Rs3rmDY7jkOIH1g7DaNLXRhryB5bFTrWmj8ercga3b1WTG76FYNEFeq3Rlr2aQNkx8FZp/wBpZuVSz3iB73f3VNmmcVYwmCxOLsSxSzU4nskfDx9W5zpHyeLxAO2G+3YFmUQQpN0Q6jfNM9uTxRa6R7ml3hLXEFxI3AjI+kr4HQ/qXcb5PEhveQbJIHoBiH1qbkQfLBwta3l4oA83Zy7F9IiDW9aaft6lwxxtWeGGbwqCwHWOPqyIw4FpLAT3+buUafsP6l/OWJ/pWv8A0lN6II30VoDL6Zy8mSuXaM0bqU1Zsdbri4ukex256xjRtyUiTRRTRSxSsbJFLG+OSORrXskY8Frmua4cJBBI2PJdiIIgz/RLMZpLGnbUQheXO8CvPfvFvzDYZ+F247hxDcbfhHflqcnRz0gMdw/A5dzOzo7dFzSPP+7b/OrFogr9S6L9c2nhs9arSZy3fasxO5d+zaxkP0Ld6HRPhqtK8LVp93JT1LENaV7HRVa00kbmskbExxeS0kHm/u7ApKRBB/7EOp+05HD7bnsfa7P6lSjpLCWdPYKjirE0U00DrL3vgDurJlmfIAC4A8t9ln0QRDnOi3PZPMZjIwZHGtiu3bFqNsxsCRrZXl/C7hY4ct9u3uXq070V+BWbrs/JQu1J6UlaKKv1/WRzPkY4TNe5rSCACBt+V88qIghnL9EWRY90mDvwzwcy2HIbxTtHcBLG0xuPp4WLW39HHSC1xb8DlwB5OZboEH1bzbqxSIIFxvRVrC3Izw7wTHQ7jrHSzMsS8P6EdclpPrkb61MGnNN4nTNI06DCXSOa+1Yl2M1iQDbicR3DnwjsG585Ls0iAiIgIiICIiD/2Q==;" vertex="1" parent="1">
          <mxGeometry x="579.37" y="198" width="100.25" height="67" as="geometry" />
        </mxCell>
        <mxCell id="w0s_Ixj0cFRI1buppDWQ-9" value="&lt;font color=&quot;#ffffff&quot;&gt;Experiment / Train&lt;br&gt;&lt;/font&gt;" style="text;strokeColor=none;align=center;fillColor=none;html=1;verticalAlign=middle;whiteSpace=wrap;rounded=0;" vertex="1" parent="1">
          <mxGeometry x="149.67" y="362.16" width="60" height="30" as="geometry" />
        </mxCell>
        <mxCell id="w0s_Ixj0cFRI1buppDWQ-18" value="" style="endArrow=none;dashed=1;html=1;rounded=0;exitX=1;exitY=0.5;exitDx=0;exitDy=0;entryX=0;entryY=0.5;entryDx=0;entryDy=0;strokeColor=#FFFFFF;strokeWidth=3;flowAnimation=1;" edge="1" parent="1" source="w0s_Ixj0cFRI1buppDWQ-2" target="F_4bH8baSX07HVHHKdEK-2">
          <mxGeometry width="50" height="50" relative="1" as="geometry">
            <mxPoint x="238" y="379" as="sourcePoint" />
            <mxPoint x="288" y="329" as="targetPoint" />
          </mxGeometry>
        </mxCell>
        <mxCell id="w0s_Ixj0cFRI1buppDWQ-24" value="" style="endArrow=none;dashed=1;html=1;rounded=0;exitX=1;exitY=0.5;exitDx=0;exitDy=0;entryX=0;entryY=0.5;entryDx=0;entryDy=0;strokeColor=#FFFFFF;strokeWidth=3;flowAnimation=1;shape=link;" edge="1" parent="1" source="F_4bH8baSX07HVHHKdEK-1" target="w0s_Ixj0cFRI1buppDWQ-2">
          <mxGeometry width="50" height="50" relative="1" as="geometry">
            <mxPoint x="244" y="330" as="sourcePoint" />
            <mxPoint x="289" y="330" as="targetPoint" />
          </mxGeometry>
        </mxCell>
      </root>
    </mxGraphModel>
  </diagram>
</mxfile>
